<svg width="28" height="27" viewBox="0 0 28 27" fill="none" xmlns="http://www.w3.org/2000/svg">
<path d="M0.625 0.625002L0 1.225V13.5V25.775L0.625 26.375L1.225 27H8.2C14.725 27 15.225 26.975 15.775 26.525L16.375 26.05V13.5V0.950001L15.775 0.475002C15.225 0.0250015 14.725 1.90735e-06 8.2 1.90735e-06H1.225L0.625 0.625002ZM14.45 12.575L14.5 22.25H8.25H2V12.5V2.75L8.2 2.8L14.375 2.875L14.45 12.575ZM8.525 23.65C8.95 24.175 8.525 24.875 7.75 24.875C6.975 24.875 6.55 24.175 6.975 23.65C7.175 23.425 7.5 23.25 7.75 23.25C8 23.25 8.325 23.425 8.525 23.65Z" fill="black"/>
<path d="M3.75 10.125V11.5H5.25H6.75V13V14.525L8.2 14.45L9.625 14.375L9.7 12.925L9.775 11.5H11.125H12.5V10.125V8.75002H11.125H9.75V10.125V11.5H8.25H6.75V10.125V8.75002H5.25H3.75V10.125Z" fill="black"/>
<path d="M18.35 6.09999C18.275 6.29999 18.25 6.72499 18.3 7.04999C18.375 7.57499 18.5 7.62499 20.275 7.69999C21.7 7.74999 22.275 7.87499 22.55 8.19999C23.05 8.74999 24.025 11.75 23.85 12.05C23.75 12.2 22.625 12.225 20.95 12.1L18.225 11.925L18.3 13.15C18.375 14.25 18.45 14.375 19 14.45C20.8 14.7 20.575 16.5 18.75 16.5C18.25 16.5 18.225 16.6 18.3 18.925L18.375 21.375L21.45 21.325L24.5 21.25V22.1C24.5 23.9 26.475 24.825 27.55 23.525C27.95 23.025 28 22.475 28 19.25C28 15.3 27.875 14.7 26.925 13.65C26.6 13.3 25.9 11.8 25.375 10.325C24.375 7.42499 23.85 6.62499 22.575 6.09999C21.475 5.62499 18.525 5.62499 18.35 6.09999ZM24.95 15.8C25.425 16.275 25.325 17.45 24.775 17.75C23.75 18.275 22.75 17.75 22.75 16.65C22.75 15.925 23.2 15.5 24 15.5C24.35 15.5 24.775 15.625 24.95 15.8Z" fill="black"/>
</svg>
