<svg width="24" height="25" viewBox="0 0 24 25" fill="none" xmlns="http://www.w3.org/2000/svg">
<path d="M8.9 0.275002C6.2 0.925001 3.025 3.525 1.875 6.075C1.15 7.65 0.75 10.075 0.75 13.075C0.75 16.05 1.125 17.375 2.25 18.475C2.75 18.975 3.45 19.9 3.8 20.525C4.65 21.975 6.475 23.65 7.95 24.325C8.9 24.775 9.6 24.875 11.5 24.875C13.625 24.875 14.025 24.8 15.325 24.15C16.1 23.75 16.7 23.375 16.65 23.325C16.6 23.275 15.15 23.2 13.475 23.15C11.675 23.125 9.925 22.95 9.275 22.75C7.8 22.275 5.925 20.525 5.1 18.85C4.7 18.025 4.2 17.375 3.85 17.25C3.15 16.975 2.75 16.275 2.75 15.275C2.75 14.675 2.85 14.5 3.225 14.5C3.575 14.5 3.725 14.25 3.825 13.55C4.15 11.625 5.325 10.825 8.75 10.125C12.75 9.35 13.5 9.025 15.075 7.425C16.45 6.05 16.55 5.975 16.9 6.425C18.325 8.275 19.25 11.625 19.25 14.975C19.25 16.6 19.35 17.125 19.65 17.35C20 17.625 19.95 17.75 19.15 18.45C18.25 19.225 18.175 19.25 15.8 19.25C13.675 19.25 13.3 19.175 12.925 18.75C12 17.65 9.5 18.4 9.5 19.75C9.5 20.025 9.725 20.475 10 20.75C10.45 21.2 10.825 21.25 14.25 21.25C18.425 21.25 19.275 21.05 20.675 19.7C21.125 19.275 21.625 18.5 21.775 18.025C21.925 17.525 22.275 16.925 22.525 16.675C23.1 16.125 23.2 13.725 22.65 13.275C22.45 13.1 22.25 12.15 22.15 10.775C21.925 7.8 21.425 5.975 20.375 4.4C19.55 3.15 18 2 17.15 2C16.9 2 16.3 1.675 15.8 1.275C15.3 0.875002 14.425 0.425001 13.875 0.275002C12.7 -0.0499992 10.275 -0.0499992 8.9 0.275002Z" fill="black"/>
</svg>
