<svg width="109" height="109" viewBox="0 0 109 109" fill="none" xmlns="http://www.w3.org/2000/svg">
<path d="M72.667 72.6666L81.7503 81.7499L99.917 63.5833" stroke="#00C060" stroke-width="6" stroke-linecap="round" stroke-linejoin="round"/>
<path d="M95.375 45.4166V36.3332C95.3734 34.7403 94.9529 33.1759 94.1557 31.7968C93.3586 30.4178 92.2128 29.2726 90.8333 28.4761L59.0417 10.3095C57.6608 9.51224 56.0945 9.09253 54.5 9.09253C52.9055 9.09253 51.3392 9.51224 49.9583 10.3095L18.1667 28.4761C16.7872 29.2726 15.6414 30.4178 14.8443 31.7968C14.0471 33.1759 13.6266 34.7403 13.625 36.3332V72.6666C13.6266 74.2594 14.0471 75.8239 14.8443 77.2029C15.6414 78.582 16.7872 79.7272 18.1667 80.5236L49.9583 98.6903C51.3392 99.4875 52.9055 99.9072 54.5 99.9072C56.0945 99.9072 57.6608 99.4875 59.0417 98.6903L68.125 93.5128" stroke="#09596F" stroke-width="6" stroke-linecap="round" stroke-linejoin="round"/>
<path d="M34.0625 19.3928L74.9375 42.7824" stroke="#09596F" stroke-width="6" stroke-linecap="round" stroke-linejoin="round"/>
<path d="M14.9424 31.7917L54.5003 54.5001L94.0582 31.7917" stroke="#09596F" stroke-width="6" stroke-linecap="round" stroke-linejoin="round"/>
<path d="M54.5 99.9167V54.5" stroke="#09596F" stroke-width="6" stroke-linecap="round" stroke-linejoin="round"/>
</svg>
