<svg width="27" height="26" viewBox="0 0 27 26" fill="none" xmlns="http://www.w3.org/2000/svg">
<path d="M2.25 13H5.625" stroke="#0077B6" stroke-width="2" stroke-linecap="round" stroke-linejoin="round"/>
<path d="M21.375 13H24.75" stroke="#0077B6" stroke-width="2" stroke-linecap="round" stroke-linejoin="round"/>
<path d="M13.5 2.16667V5.41667" stroke="#0077B6" stroke-width="2" stroke-linecap="round" stroke-linejoin="round"/>
<path d="M13.5 20.5833V23.8333" stroke="#0077B6" stroke-width="2" stroke-linecap="round" stroke-linejoin="round"/>
<path d="M13.5 20.5833C17.8492 20.5833 21.375 17.1882 21.375 13C21.375 8.81184 17.8492 5.41667 13.5 5.41667C9.15076 5.41667 5.625 8.81184 5.625 13C5.625 17.1882 9.15076 20.5833 13.5 20.5833Z" stroke="#0077B6" stroke-width="2" stroke-linecap="round" stroke-linejoin="round"/>
<path d="M13.5 16.25C15.364 16.25 16.875 14.7949 16.875 13C16.875 11.2051 15.364 9.75 13.5 9.75C11.636 9.75 10.125 11.2051 10.125 13C10.125 14.7949 11.636 16.25 13.5 16.25Z" stroke="#0077B6" stroke-width="2" stroke-linecap="round" stroke-linejoin="round"/>
</svg>
