<svg width="31" height="31" viewBox="0 0 31 31" fill="none" xmlns="http://www.w3.org/2000/svg">
<path d="M15.5 21.9583C16.2134 21.9583 16.7917 21.38 16.7917 20.6667C16.7917 19.9533 16.2134 19.375 15.5 19.375C14.7867 19.375 14.2084 19.9533 14.2084 20.6667C14.2084 21.38 14.7867 21.9583 15.5 21.9583Z" stroke="black" stroke-width="2" stroke-linecap="round" stroke-linejoin="round"/>
<path d="M24.5417 12.9167H6.45833C5.0316 12.9167 3.875 14.0733 3.875 15.5V25.8333C3.875 27.2601 5.0316 28.4167 6.45833 28.4167H24.5417C25.9684 28.4167 27.125 27.2601 27.125 25.8333V15.5C27.125 14.0733 25.9684 12.9167 24.5417 12.9167Z" stroke="black" stroke-width="2" stroke-linecap="round" stroke-linejoin="round"/>
<path d="M9.04163 12.9167V9.04167C9.04163 7.32881 9.72206 5.68611 10.9332 4.47493C12.1444 3.26376 13.7871 2.58333 15.5 2.58333C17.2128 2.58333 18.8555 3.26376 20.0667 4.47493C21.2779 5.68611 21.9583 7.32881 21.9583 9.04167V12.9167" stroke="black" stroke-width="2" stroke-linecap="round" stroke-linejoin="round"/>
</svg>
