<svg width="89" height="88" viewBox="0 0 89 88" fill="none" xmlns="http://www.w3.org/2000/svg">
<path d="M36.328 58.7876H18.3075C17.877 58.7876 17.5283 59.1365 17.5283 59.5668C17.5283 59.9944 17.8729 60.3423 18.3005 60.3459C20.0849 60.3612 24.3505 60.3921 24.457 60.339C24.5919 60.2715 27.0327 63.8764 27.4415 63.7132L28.4364 67.0449L38.6886 63.2659L36.328 58.7876Z" fill="#263238"/>
<path opacity="0.3" d="M36.328 58.7876H18.3075C17.877 58.7876 17.5283 59.1365 17.5283 59.5668C17.5283 59.9944 17.8729 60.3423 18.3005 60.3459C20.0849 60.3612 24.3505 60.3921 24.457 60.339C24.5919 60.2715 27.0327 63.8764 27.4415 63.7132L28.4364 67.0449L38.6886 63.2659L36.328 58.7876Z" fill="black"/>
<path d="M36.1915 60.105C36.14 59.9501 34.8487 55.818 38.4125 56.0247C41.9764 56.2314 54.7857 61.0105 54.9406 62.0557C55.0955 63.1008 51.79 64.7019 51.79 64.7019C51.79 64.7019 49.2074 69.2988 51.0668 71.7262C52.9261 74.1537 55.1471 74.5671 57.7813 74.6187C60.4154 74.6702 65.1672 74.2571 64.9607 68.9888C64.754 63.7205 64.8058 59.8466 63.7212 57.3158C62.6366 54.785 62.8948 51.7376 62.8948 51.5825C62.8948 51.4276 65.8906 50.2932 65.8906 50.2932L74.1546 62.4577L70.5908 71.881C70.5908 71.881 65.4258 78.1307 65.2707 78.2339C65.1158 78.3372 53.6493 80.7647 53.4944 80.7647C53.3395 80.7647 43.371 79.835 43.3192 79.6283C43.2676 79.4216 41.2532 75.083 41.2532 75.083L36.1915 60.105Z" fill="#263238"/>
<path d="M81.2041 61.6187C81.2041 61.6187 82.4049 62.2362 83.266 63.8901C84.1271 65.5442 83.5832 66.7902 83.5832 66.7902L81.2041 61.6187Z" fill="#407BFF"/>
<path opacity="0.5" d="M81.2041 61.6187C81.2041 61.6187 82.4049 62.2362 83.266 63.8901C84.1271 65.5442 83.5832 66.7902 83.5832 66.7902L81.2041 61.6187Z" fill="white"/>
<path d="M43.4309 81.2521V81.9029H42.0747V82.7699C42.0747 82.7699 50.0509 83.1485 50.3764 82.7699C50.7019 82.3912 51.4073 80.6931 51.4073 80.6931L43.4309 81.2521Z" fill="#263238"/>
<path d="M29.9434 87.8814C35.5212 87.8814 40.043 83.37 40.043 77.8048C40.043 72.2396 35.5212 67.7282 29.9434 67.7282C24.3655 67.7282 19.8438 72.2396 19.8438 77.8048C19.8438 83.37 24.3655 87.8814 29.9434 87.8814Z" fill="#263238"/>
<path opacity="0.4" d="M29.9433 83.9827C33.363 83.9827 36.1351 81.2168 36.1351 77.8049C36.1351 74.393 33.363 71.6271 29.9433 71.6271C26.5236 71.6271 23.7515 74.393 23.7515 77.8049C23.7515 81.2168 26.5236 83.9827 29.9433 83.9827Z" fill="white"/>
<g opacity="0.3">
<path d="M30.4385 72.7405V75.9074C30.4385 76.18 30.2171 76.4007 29.944 76.4007H29.9408C29.6677 76.4007 29.4463 76.18 29.4463 75.9074V72.7405C29.4463 72.4679 29.6677 72.2472 29.9408 72.2472H29.944C30.2171 72.2472 30.4385 72.4679 30.4385 72.7405Z" fill="white"/>
</g>
<g opacity="0.3">
<path d="M30.4385 79.7012V82.8681C30.4385 83.1406 30.2171 83.3614 29.944 83.3614H29.9408C29.6677 83.3614 29.4463 83.1406 29.4463 82.8681V79.7012C29.4463 79.4286 29.6677 79.2078 29.9408 79.2078H29.944C30.2171 79.2078 30.4385 79.4286 30.4385 79.7012Z" fill="white"/>
</g>
<g opacity="0.3">
<path d="M31.832 77.2862C31.5957 77.4195 31.296 77.3366 31.1625 77.1009L31.1623 77.1007C31.0251 76.8653 31.105 76.5632 31.3411 76.4263L34.0908 74.8349C34.0912 74.8347 34.0916 74.8343 34.092 74.8341C34.3289 74.6984 34.6312 74.78 34.767 75.0162C34.7672 75.0166 34.7674 75.017 34.7678 75.0174C34.9039 75.2536 34.8222 75.5551 34.5853 75.6908L31.8387 77.2822C31.8365 77.2836 31.8344 77.2848 31.832 77.2862Z" fill="white"/>
</g>
<g opacity="0.3">
<path d="M25.1173 80.5699C25.1171 80.5695 25.1167 80.5691 25.1165 80.5687C24.9806 80.3325 25.0623 80.031 25.2989 79.8953L28.0456 78.3039C28.2826 78.1664 28.5865 78.2462 28.7251 78.4822C28.8624 78.7197 28.7811 79.0229 28.5432 79.1602L25.7966 80.7516C25.559 80.8885 25.2549 80.8071 25.1173 80.5699Z" fill="white"/>
</g>
<g opacity="0.3">
<path d="M34.7663 80.5841C34.6296 80.8199 34.3271 80.9007 34.0907 80.7642L31.3409 79.1728C31.1042 79.0345 31.0245 78.7314 31.1622 78.4948L31.1624 78.4946C31.2998 78.2592 31.6025 78.1794 31.8385 78.3167L34.5852 79.9081C34.5856 79.9083 34.586 79.9087 34.5866 79.9089C34.823 80.0453 34.9037 80.347 34.7671 80.5829C34.7669 80.5833 34.7667 80.5837 34.7663 80.5841Z" fill="white"/>
</g>
<g opacity="0.3">
<path d="M28.7222 77.1059C28.5841 77.341 28.2812 77.4199 28.0456 77.2823L25.299 75.6909C25.2986 75.6907 25.2982 75.6903 25.2978 75.6901C25.0613 75.5536 24.9806 75.2519 25.1173 75.0161C25.2547 74.7788 25.5588 74.6977 25.7966 74.8346L28.5433 76.4262C28.5437 76.4264 28.5441 76.4266 28.5444 76.427C28.7809 76.5634 28.8616 76.8651 28.7249 77.101C28.724 77.1026 28.7232 77.1043 28.7222 77.1059Z" fill="white"/>
</g>
<path d="M29.9438 76.9736C30.4036 76.9736 30.7765 77.3455 30.7765 77.8043C30.7765 78.2631 30.4038 78.635 29.9438 78.635C29.484 78.635 29.1113 78.2631 29.1113 77.8043C29.1111 77.3455 29.484 76.9736 29.9438 76.9736Z" fill="#263238"/>
<path d="M78.5064 87.8814C84.0842 87.8814 88.606 83.37 88.606 77.8048C88.606 72.2396 84.0842 67.7282 78.5064 67.7282C72.9285 67.7282 68.4067 72.2396 68.4067 77.8048C68.4067 83.37 72.9285 87.8814 78.5064 87.8814Z" fill="#263238"/>
<path opacity="0.4" d="M78.5068 83.9827C81.9264 83.9827 84.6986 81.2168 84.6986 77.8049C84.6986 74.393 81.9264 71.6271 78.5068 71.6271C75.0871 71.6271 72.3149 74.393 72.3149 77.8049C72.3149 81.2168 75.0871 83.9827 78.5068 83.9827Z" fill="white"/>
<g opacity="0.3">
<path d="M79.0015 72.7405V75.9074C79.0015 76.18 78.7801 76.4007 78.5069 76.4007H78.5038C78.2306 76.4007 78.0093 76.18 78.0093 75.9074V72.7405C78.0093 72.4679 78.2306 72.2472 78.5038 72.2472H78.5069C78.7801 72.2472 79.0015 72.4679 79.0015 72.7405Z" fill="white"/>
</g>
<g opacity="0.3">
<path d="M79.0015 79.7012V82.8681C79.0015 83.1406 78.7801 83.3614 78.5069 83.3614H78.5038C78.2306 83.3614 78.0093 83.1406 78.0093 82.8681V79.7012C78.0093 79.4286 78.2306 79.2078 78.5038 79.2078H78.5069C78.7801 79.2078 79.0015 79.4286 79.0015 79.7012Z" fill="white"/>
</g>
<g opacity="0.3">
<path d="M80.395 77.2862C80.1587 77.4195 79.859 77.3366 79.7255 77.1009L79.7253 77.1007C79.5881 76.8653 79.668 76.5632 79.904 76.4263L82.6538 74.8349C82.6542 74.8347 82.6546 74.8343 82.655 74.8341C82.8919 74.6984 83.1942 74.78 83.33 75.0162C83.3302 75.0166 83.3304 75.017 83.3308 75.0174C83.4669 75.2536 83.3852 75.5551 83.1483 75.6908L80.4017 77.2822C80.3995 77.2836 80.3972 77.2848 80.395 77.2862Z" fill="white"/>
</g>
<g opacity="0.3">
<path d="M73.6803 80.5699C73.6801 80.5695 73.6797 80.5691 73.6795 80.5687C73.5435 80.3325 73.6254 80.031 73.862 79.8953L76.6086 78.3039C76.8457 78.1664 77.1496 78.2462 77.2882 78.4822C77.4255 78.7197 77.3441 79.0229 77.1063 79.1602L74.3597 80.7516C74.1219 80.8885 73.8178 80.8071 73.6803 80.5699Z" fill="white"/>
</g>
<g opacity="0.3">
<path d="M83.3293 80.5841C83.1926 80.8199 82.8901 80.9007 82.6537 80.7642L79.9039 79.1728C79.6672 79.0345 79.5875 78.7314 79.7251 78.4948L79.7253 78.4946C79.8628 78.2592 80.1655 78.1794 80.4015 78.3167L83.1482 79.9081C83.1486 79.9083 83.149 79.9087 83.1495 79.9089C83.386 80.0453 83.4667 80.347 83.33 80.5829C83.3296 80.5833 83.3294 80.5837 83.3293 80.5841Z" fill="white"/>
</g>
<g opacity="0.3">
<path d="M77.2852 77.1059C77.1471 77.341 76.8442 77.4199 76.6086 77.2823L73.862 75.6909C73.8616 75.6907 73.8612 75.6903 73.8608 75.6901C73.6243 75.5536 73.5436 75.2519 73.6803 75.0161C73.8177 74.7788 74.1218 74.6977 74.3598 74.8346L77.1064 76.426C77.1068 76.4262 77.1072 76.4264 77.1076 76.4268C77.3441 76.5632 77.4248 76.8649 77.2881 77.1008C77.2871 77.1026 77.2862 77.1043 77.2852 77.1059Z" fill="white"/>
</g>
<path d="M78.507 76.9736C78.9668 76.9736 79.3395 77.3455 79.3395 77.8043C79.3395 78.2631 78.9668 78.635 78.507 78.635C78.0472 78.635 77.6743 78.2631 77.6743 77.8043C77.6745 77.3455 78.0472 76.9736 78.507 76.9736Z" fill="#263238"/>
<path d="M60.752 47.9959C60.752 47.9959 61.0493 47.1041 61.0245 47.1041C60.9997 47.1041 63.4524 45.1718 63.4524 45.1718C63.4524 45.1718 65.7067 46.3113 66.2765 46.9554C66.8464 47.5994 66.9206 49.7795 66.9206 49.7795C66.9206 49.7795 66.004 50.6465 65.9048 50.6961C65.8056 50.7457 62.8825 52.4549 62.7587 52.356C62.6347 52.257 60.752 47.9959 60.752 47.9959Z" fill="#407BFF"/>
<g opacity="0.3">
<path d="M57.7811 74.6189C55.147 74.5673 52.926 74.154 51.0666 71.7265C49.2072 69.299 51.7898 64.7022 51.7898 64.7022C51.7898 64.7022 46.0177 62.7254 46.1903 62.9164C46.3628 63.1076 44.2908 72.2129 48.7804 74.7685C52.4289 76.8454 58.925 75.0158 61.2305 74.2585C60.0301 74.5925 58.7596 74.6379 57.7811 74.6189Z" fill="black"/>
</g>
<path d="M17.769 70.8672C17.6741 71.0094 16.6334 72.2731 19.7698 72.7057C22.9061 73.1383 41.832 76.2206 42.0482 76.2206C42.2644 76.2206 46.5903 70.8672 45.1304 66.8116C43.6703 62.7561 37.2896 61.0798 33.8831 61.2962C30.4763 61.5124 23.8253 61.7827 17.769 70.8672Z" fill="#407BFF"/>
<path d="M40.9457 77.902L40.7793 81.8155C40.7793 81.8155 61.1438 81.8028 63.9213 80.767C66.404 79.8411 67.1484 78.7216 67.4842 77.3498C68.4415 77.35 69.3459 76.9164 69.9434 76.1686C71.5156 74.2005 75.3876 70.5089 82.0589 70.9705C82.2531 70.984 82.4487 70.9852 82.6427 70.9689C83.5178 70.8951 86.0252 70.663 85.886 70.431C85.7174 70.1501 81.3357 64.2516 74.0892 65.0381C74.0892 65.0381 76.3362 64.0269 75.4374 62.4541C74.5387 60.8812 66.3371 50.4326 66.3371 50.4326C66.3371 50.4326 63.6407 52.7921 65.6068 55.5446C67.5729 58.2972 69.9323 62.4541 69.9323 64.0832C69.9323 65.7123 68.907 74.402 64.5394 77.6776C62.517 79.1941 40.9457 77.902 40.9457 77.902Z" fill="#407BFF"/>
<path opacity="0.3" d="M20.1104 69.3466C20.1104 69.3466 27.3664 61.4688 35.9353 62.0906C44.5042 62.7124 21.147 71.2123 20.1104 69.3466Z" fill="white"/>
<path d="M77.5349 65.7526C77.5349 65.7526 76.7254 63.5606 78.7828 62.5151C80.8399 61.4695 81.1434 61.5033 81.1434 61.5033L83.9088 66.7642C83.9088 66.7642 83.4199 67.6269 81.329 67.728C79.2382 67.8292 77.6744 65.8096 77.6744 65.8096" fill="#407BFF"/>
<path d="M58.3637 47.7162L61.7743 48.0447L62.5847 47.3346C62.5847 47.3346 63.7927 47.4202 64.0141 47.6737C64.2354 47.9272 64.3834 48.6453 64.3834 48.6453C64.3834 48.6453 64.6038 49.2499 64.025 49.455C64.025 49.455 64.1501 49.891 63.4938 50.1423C63.4938 50.1423 63.3783 48.4211 62.7016 48.5794C62.0248 48.7377 62.241 50.7506 61.826 50.6985C61.0546 50.6017 61.0808 50.0843 61.0808 50.0843L58.1299 49.8806L58.3637 47.7162Z" fill="#FAAC6D"/>
<path d="M62.4401 50.7862C63.0952 50.7862 63.6262 50.2551 63.6262 49.6C63.6262 48.9449 63.0952 48.4139 62.4401 48.4139C61.785 48.4139 61.2539 48.9449 61.2539 49.6C61.2539 50.2551 61.785 50.7862 62.4401 50.7862Z" fill="#263238"/>
<path opacity="0.3" d="M45.1299 66.8117C44.515 65.1036 43.0264 63.8193 41.2556 62.9189C41.3064 62.9759 43.428 65.3621 43.7367 66.6373C44.0491 67.9278 41.7896 72.0577 40.0425 73.6924C38.2954 75.327 31.9839 74.6223 31.8721 74.6044C37.0723 75.4369 41.9386 76.2206 42.0477 76.2206C42.2641 76.2204 46.59 70.8672 45.1299 66.8117Z" fill="black"/>
<path opacity="0.3" d="M74.0897 65.0379C74.0897 65.0379 72.5404 65.7746 71.981 66.4738C71.4217 67.173 70.4604 69.4801 70.4604 69.4801C70.4604 69.4801 71.94 69.0072 72.2752 67.7318C72.6104 66.4564 73.2396 65.8097 73.2396 65.8097L74.0897 65.0379Z" fill="black"/>
<path opacity="0.3" d="M77.3906 65.038C77.3906 65.038 80.7434 66.0728 82.9467 67.5529C82.9467 67.5529 80.648 64.6774 77.3906 65.038Z" fill="black"/>
<path opacity="0.3" d="M19.8154 71.1035C26.0124 72.177 35.8774 73.8951 42.0744 74.9686" stroke="black" stroke-miterlimit="10" stroke-linecap="round" stroke-linejoin="round"/>
<path d="M51.542 64.6175C51.4185 64.5754 38.6772 60.5064 38.0337 60.2765" stroke="black" stroke-miterlimit="10" stroke-linecap="round" stroke-linejoin="round"/>
<path opacity="0.3" d="M69.9526 73.3788C72.5533 70.0198 77.1809 68.3727 81.3188 69.3327" stroke="black" stroke-miterlimit="10" stroke-linecap="round" stroke-linejoin="round"/>
<path opacity="0.5" d="M63.8364 46.1682C63.9445 46.3501 65.4221 47.9221 65.4221 47.9221L66.7374 48.1661C66.7374 48.1661 66.6199 47.4199 66.2766 46.9553C65.9332 46.491 63.9882 45.4639 63.9882 45.4639L63.8364 46.1682Z" fill="white"/>
<path opacity="0.3" d="M66.9204 53.3967C68.4071 56.8982 72.6572 62.1269 73.0137 62.4468" stroke="black" stroke-miterlimit="10" stroke-linecap="round" stroke-linejoin="round"/>
<path d="M55.2538 30.0026C55.5023 30.0669 55.707 30.2774 55.7641 30.5275C55.8212 30.7776 55.7284 31.0563 55.5326 31.2221C55.7256 31.2346 55.8333 31.4804 55.7723 31.6641C55.7112 31.8477 55.5414 31.9717 55.372 32.0655C55.465 32.1181 55.5071 32.2353 55.4969 32.3416C55.487 32.448 55.4341 32.5455 55.3753 32.6348C55.1197 33.0232 54.7269 33.3191 54.2832 33.458C54.2832 33.458 54.314 30.3825 54.4078 30.3434C54.5018 30.3041 55.2538 30.0026 55.2538 30.0026Z" fill="#263238"/>
<path d="M51.0875 37.5527C51.1837 37.2633 51.343 36.9745 51.5189 36.6978L51.0139 36.2657L49.3521 33.9071C49.3721 35.1849 49.1016 37.4134 47.9233 37.9682L50.7818 39.4309C50.3607 38.9614 50.9116 38.062 51.0875 37.5527Z" fill="#FAAC6D"/>
<path opacity="0.2" d="M51.0516 37.6649C50.556 37.2452 50.0474 36.5761 50.2291 35.9404C50.3074 35.673 50.4098 35.4245 50.503 35.2698L51.372 36.9395C51.2399 37.1627 51.1796 37.315 51.0516 37.6649Z" fill="black"/>
<path d="M49.3483 31.5632C49.1899 33.6524 49.0792 34.5311 49.9591 35.7889C51.2825 37.681 53.8316 37.5495 54.5984 35.5812C55.2887 33.8099 55.4317 30.6908 53.5576 29.4854C51.7111 28.298 49.5066 29.4739 49.3483 31.5632Z" fill="#FAAC6D"/>
<path d="M51.7035 32.6638C51.6769 32.8832 51.7646 33.0817 51.8995 33.1075C52.0343 33.1331 52.1651 32.976 52.1916 32.7566C52.2182 32.5372 52.1305 32.3387 51.9957 32.3131C51.8608 32.2873 51.7301 32.4444 51.7035 32.6638Z" fill="#263238"/>
<path d="M53.8486 33.0272C53.8232 33.2399 53.9117 33.4331 54.0461 33.4587C54.1806 33.4843 54.3102 33.3325 54.3353 33.1199C54.3607 32.9072 54.2723 32.714 54.1378 32.6885C54.0035 32.6627 53.874 32.8144 53.8486 33.0272Z" fill="#263238"/>
<path d="M51.5989 31.8515C51.6247 31.8589 51.6525 31.8557 51.6761 31.8404C52.0424 31.6004 52.382 31.7636 52.386 31.7654C52.4364 31.7898 52.4949 31.7688 52.5161 31.7168C52.5371 31.6649 52.5131 31.6026 52.4623 31.5774C52.4447 31.5687 52.0186 31.3634 51.5638 31.6615C51.5186 31.6912 51.5069 31.7553 51.5378 31.8047C51.5527 31.8287 51.5749 31.8448 51.5989 31.8515Z" fill="#263238"/>
<path d="M54.7867 32.1007C54.8085 32.0973 54.8285 32.0848 54.8414 32.0638C54.868 32.0204 54.8551 31.9573 54.8127 31.923C54.387 31.5794 54.0046 31.7214 53.9883 31.728C53.9427 31.7456 53.9228 31.8024 53.9441 31.8547C53.9651 31.9071 54.0188 31.9353 54.0645 31.918C54.0793 31.9123 54.3779 31.8069 54.7163 32.0803C54.7379 32.0979 54.7635 32.1045 54.7867 32.1007Z" fill="#263238"/>
<path d="M53.3954 32.8249C53.3954 32.8249 53.5874 33.6493 53.8696 34.1908C53.919 34.2854 53.8591 34.4012 53.7542 34.4209C53.4844 34.4714 53.2012 34.3368 53.2012 34.3368L53.3954 32.8249Z" fill="#E97F3F"/>
<path d="M51.9165 32.309L52.4076 32.277C52.4076 32.277 52.0899 32.5855 51.9165 32.309Z" fill="#263238"/>
<path d="M54.0654 32.6838L54.5566 32.6519C54.5566 32.6519 54.4897 32.9802 54.0654 32.6838Z" fill="#263238"/>
<path d="M49.6539 33.5356C49.6539 33.5356 50.4001 33.5522 50.1791 32.6481C50.1791 32.6481 51.0648 32.3407 50.7522 31.2708C50.7522 31.2708 51.6178 31.4538 51.9804 30.5839C51.9804 30.5839 52.6764 31.2787 53.4506 30.7015C53.4506 30.7015 54.5935 31.6752 55.0557 30.8161C55.0557 30.8161 56.726 30.4252 55.4431 29.41C55.4431 29.41 55.7424 27.1773 53.5367 28.0148C53.5367 28.0148 52.5354 26.4232 51.0255 27.8087C51.0255 27.8087 49.7667 27.1916 49.2903 28.7179C49.2903 28.7179 47.9157 28.5737 47.7572 30.5121C47.7572 30.5121 46.6238 31.1216 47.6368 32.2387C47.6368 32.2387 47.4301 32.7717 48.0315 33.3813C48.0315 33.3813 48.1629 34.1578 48.6812 34.3226C48.6812 34.3226 49.0453 35.4037 49.3306 35.3069C49.6158 35.2103 49.3205 34.0233 49.6539 33.5356Z" fill="#263238"/>
<path d="M48.5578 33.159C48.7298 33.622 49.0799 33.9536 49.4268 34.1054C49.9483 34.3339 50.3774 33.5056 50.2833 32.9285C50.1988 32.4091 49.7184 31.9937 49.1704 32.0115C48.6304 32.0292 48.3613 32.6296 48.5578 33.159Z" fill="#FAAC6D"/>
<path opacity="0.2" d="M49.8726 33.2805C49.8924 33.0836 49.8313 32.8794 49.7062 32.7259C49.5812 32.5724 49.3937 32.471 49.1968 32.4506" stroke="black" stroke-width="0.5" stroke-miterlimit="10" stroke-linecap="round" stroke-linejoin="round"/>
<path d="M52.9985 34.6695C52.8206 34.8615 52.6565 35.0658 52.5072 35.2809L52.381 35.2212C51.8189 34.9452 51.6489 34.6311 51.6275 34.3567C51.6229 34.2272 51.6483 34.0983 51.7019 33.9801C51.7302 33.912 51.7683 33.8485 51.8147 33.7912C52.0155 34.1687 52.5457 34.4365 52.82 34.5842C52.939 34.6572 52.9985 34.6695 52.9985 34.6695Z" fill="#263238"/>
<path d="M52.8067 34.5688L52.6571 34.7447C52.1364 34.4823 51.7901 34.2296 51.7036 33.9862C51.732 33.9184 51.7701 33.8547 51.8165 33.7976C52.0283 34.127 52.5361 34.4329 52.8067 34.5688Z" fill="white"/>
<path d="M52.3815 35.2214C51.8193 34.9454 51.6494 34.6313 51.6279 34.3569C51.8433 34.4625 52.0371 34.6072 52.1996 34.7836C52.3051 34.9066 52.3688 35.0597 52.3815 35.2214Z" fill="#E8675B"/>
<path d="M47.1757 31.6953C47.187 32.2312 47.2707 32.7658 47.4383 33.275C47.6924 34.0466 48.1754 35.0989 48.945 35.2212C50.9121 35.5342 50.712 33.9613 50.7816 33.6285C50.8512 33.2956 50.7788 30.5833 51.3719 30.4486C51.965 30.3139 56.2417 30.9935 56.2417 30.9935C56.2417 30.9935 56.6188 27.5897 52.9986 27.2033C48.9434 26.7709 47.0981 28.0452 47.1757 31.6953Z" fill="#407BFF"/>
<path opacity="0.2" d="M50.6113 33.6286C50.7016 33.6357 55.0818 34.6446 55.4712 34.4323C55.8608 34.2199 56.4221 31.8478 56.048 30.489C55.6739 29.1303 51.4325 29.4282 51.2758 29.4945C51.1191 29.5605 50.6113 33.6286 50.6113 33.6286Z" fill="#407BFF"/>
<path d="M47.1967 30.8259L50.9032 31.7304L50.8516 32.3507L47.1729 31.5009C47.1719 31.2847 47.1791 31.0606 47.1967 30.8259Z" fill="white"/>
<path d="M47.1797 31.8139L50.8326 32.7174L50.8058 33.3442L47.2535 32.5236C47.2221 32.313 47.1829 32.0434 47.1797 31.8139Z" fill="white"/>
<path opacity="0.2" d="M47.9233 29.5492C47.9233 29.5492 48.0896 27.8888 49.8761 27.5696C51.6627 27.2503 52.81 27.2503 52.5238 27.7612C52.2376 28.2722 50.2921 28.2722 49.8492 28.5913C49.4062 28.9105 48.399 30.2089 47.9233 29.5492Z" fill="white"/>
<path opacity="0.3" d="M54.8993 29.727C54.868 29.9831 54.411 30.138 53.8788 30.0727C53.3466 30.0075 52.9406 29.747 52.9719 29.4907C53.0033 29.2347 53.4603 29.0798 53.9924 29.145C54.5246 29.2105 54.9307 29.4709 54.8993 29.727Z" fill="white"/>
<path d="M58.2567 76.2378L60.3005 75.5679L59.7668 70.1235L57.2598 71.0403L58.2567 76.2378Z" fill="#FAAC6D"/>
<path opacity="0.2" d="M57.9435 74.6042L57.2598 71.0405L59.7668 70.1237L60.1573 74.1069L57.9435 74.6042Z" fill="black"/>
<path d="M60.6062 74.9874L58.0807 75.689C57.996 75.7126 57.9389 75.7943 57.9431 75.8856L58.0387 77.9215C58.0486 78.1325 58.2484 78.2797 58.4429 78.2218C59.2516 77.9816 59.8316 77.7672 60.8549 77.4827C61.4845 77.3078 63.4012 76.8486 64.2708 76.607C65.1213 76.3707 65.0182 75.4363 64.6409 75.4537C62.9492 75.5327 61.6142 75.3641 60.9773 75.0265C60.8627 74.966 60.7302 74.9529 60.6062 74.9874Z" fill="#263238"/>
<path opacity="0.3" d="M60.6062 74.9874L58.0807 75.689C57.996 75.7126 57.9389 75.7943 57.9431 75.8856L58.0387 77.9215C58.0486 78.1325 58.2484 78.2797 58.4429 78.2218C59.2516 77.9816 59.8316 77.7672 60.8549 77.4827C61.4845 77.3078 63.4012 76.8486 64.2708 76.607C65.1213 76.3707 65.0182 75.4363 64.6409 75.4537C62.9492 75.5327 61.6142 75.3641 60.9773 75.0265C60.8627 74.966 60.7302 74.9529 60.6062 74.9874Z" fill="black"/>
<path d="M39.8409 51.3002C39.8409 51.3002 36.8283 56.9069 42.2779 59.0162C46.3838 60.6056 54.4374 62.5598 54.4374 62.5598L56.8536 75.3946L61.5196 74.3723C61.5196 74.3723 60.1571 65.7813 59.3145 60.1437C59.0446 58.3373 58.3069 58.1631 57.9292 57.9064C56.7161 57.0823 47.6493 53.7414 47.6493 53.7414L47.8584 52.9785L39.8409 51.3002Z" fill="#407BFF"/>
<path opacity="0.3" d="M39.8409 51.3002C39.8409 51.3002 36.8283 56.9069 42.2779 59.0162C46.3838 60.6056 54.4374 62.5598 54.4374 62.5598L56.8536 75.3946L61.5196 74.3723C61.5196 74.3723 60.1571 65.7813 59.3145 60.1437C59.0446 58.3373 58.3069 58.1631 57.9292 57.9064C56.7161 57.0823 47.6493 53.7414 47.6493 53.7414L47.8584 52.9785L39.8409 51.3002Z" fill="black"/>
<path opacity="0.3" d="M54.438 62.5599L55.6208 61.6266L54.5661 63.2406L54.438 62.5599Z" fill="black"/>
<path d="M48.8375 36.5451C48.6949 36.5695 46.3648 36.8398 44.8113 39.205C43.2578 41.5702 39.735 49.3419 39.7647 49.6865C39.8873 51.1012 38.0587 51.9009 42.3622 52.7594C46.6657 53.6181 47.8584 53.3606 47.8584 53.3606C47.8584 53.3606 48.7435 52.926 48.9882 51.5732C49.0176 51.4112 51.2663 46.3363 51.7672 44.0076C52.268 41.6789 51.0501 37.6648 51.0501 37.6648L50.7814 38.2509L48.8375 36.5451Z" fill="#263238"/>
<path opacity="0.3" d="M50.2633 48.3227C50.2633 48.3227 46.0231 41.509 45.7843 41.7994C45.6623 41.9476 46.2603 44.2483 47.2162 46.4134C47.2529 46.4965 47.896 46.2299 47.9231 46.3162C48.6053 48.485 49.4185 50.3753 49.4185 50.3753C49.5655 50.0193 50.2633 48.3227 50.2633 48.3227Z" fill="black"/>
<path d="M48.5342 36.6688L49.1068 36.1311L51.3718 37.5336L50.997 38.7279L48.5342 36.6688Z" fill="#263238"/>
<path d="M48.9707 38.6827C48.7233 38.352 46.6218 38.4231 46.0755 39.9052C45.5294 41.3875 50.892 49.9695 52.2301 50.4638C54.0549 51.1378 61.0807 50.0843 61.1326 50.0137L61.8062 47.9675L54.0293 47.3345C53.7538 47.38 49.9775 40.0283 48.9707 38.6827Z" fill="#FAAC6D"/>
<path d="M47.423 46.031L52.0044 43.8017C52.0044 43.8017 49.9554 37.684 48.1726 37.8979C46.3898 38.1117 45.3914 39.645 45.5698 40.7147C45.7481 41.7844 47.423 46.031 47.423 46.031Z" fill="#263238"/>
<path opacity="0.3" d="M46.2607 38.6722C46.2607 38.6722 48.3125 37.2004 49.4806 38.7686C50.6487 40.3368 51.8885 43.7459 51.8885 43.7459" stroke="black" stroke-width="0.75" stroke-miterlimit="10" stroke-linecap="round" stroke-linejoin="round"/>
<path opacity="0.3" d="M47.1733 45.1718L51.7038 43.2599" stroke="black" stroke-width="0.75" stroke-miterlimit="10" stroke-linecap="round" stroke-linejoin="round"/>
</svg>
