<svg width="68" height="42" viewBox="0 0 68 42" fill="none" xmlns="http://www.w3.org/2000/svg">
<path d="M9.18335 26.4023H59.8945V31.4699H9.18335V26.4023Z" fill="#E8505B"/>
<g opacity="0.4">
<path d="M9.18335 26.4023H59.8945V31.4699H9.18335V26.4023Z" fill="black"/>
</g>
<path d="M20.1704 32.1108H35.1396V36.8046H20.1704V32.1108Z" fill="#455A64"/>
<path d="M45.6006 29.9868V36.1916H40.4898L38.441 33.222H1.12037V29.9868H45.6006Z" fill="#263238"/>
<path d="M45.9196 10.3409C45.9313 10.1332 46.1065 9.97321 46.3144 9.98177C48.334 10.0647 57.9248 10.5044 59.8968 11.4526C61.4059 12.1782 63.0598 14.8898 64.226 16.7155C65.0618 18.024 66.9085 20.9298 67.2819 22.415C67.5982 23.673 67.7887 26.2839 67.7669 27.5809L67.2394 34.4386H58.5477L57.6773 32.1736C57.1096 30.6961 55.6902 29.7211 54.1074 29.7211H45.4706V18.3401L45.9196 10.3409Z" fill="#E8505B"/>
<path d="M60.9263 12.2109C62.1225 13.3527 63.3206 15.2988 64.2253 16.715C64.9992 17.9264 66.6393 20.507 67.1747 22.0618C67.1848 22.0907 67.1929 22.118 67.2021 22.1462C66.9373 22.0728 66.5301 21.9233 66.4049 21.6728C66.2146 21.292 65.9699 19.9897 62.9489 15.0707C62.0284 13.572 61.1327 12.6947 60.9263 12.2109Z" fill="#455A64"/>
<path d="M50.3837 11.7035C52.6058 11.8304 57.4236 12.1552 58.9628 12.683C60.9683 13.3707 63.2189 18.6772 63.3253 18.9101L64.8428 22.7915C64.8793 22.9014 64.7975 23.0145 64.6819 23.0145H60.7616C60.6134 23.0145 60.4663 22.988 60.3275 22.9363L50.0155 19.0944C49.5491 18.9206 49.2398 18.4753 49.2398 17.9775V12.7846C49.2396 12.1622 49.7623 11.6679 50.3837 11.7035Z" fill="#263238"/>
<path d="M64.4062 22.6337C64.4062 22.6337 62.9519 19.3736 62.4641 18.308C61.7259 16.6952 60.0029 13.3921 58.8394 13.0432C57.7694 12.7224 54.6928 12.3311 50.362 12.0837C50.3482 12.0829 50.3345 12.0825 50.3208 12.0825C49.9347 12.0825 49.6205 12.3975 49.6205 12.7846V18.0954C49.6205 18.3618 49.7883 18.6034 50.0382 18.6965L57.6564 19.6368C58.2743 19.7131 58.8273 20.0571 59.1688 20.5776L60.489 22.5901C60.5668 22.619 60.6481 22.6337 60.7311 22.6337H64.4062Z" fill="#455A64"/>
<path d="M57.9317 19.6963L60.5254 22.5803L59.0921 13.0034L58.7338 12.8799L59.4388 19.9742C59.4544 20.1302 59.2987 20.2469 59.1533 20.1883L57.9317 19.6963Z" fill="#263238"/>
<path d="M67.9362 28.2462C67.9455 28.1215 67.9033 28.0204 67.84 28.0146L66.4509 27.8861C66.3346 27.8754 66.2304 28.0904 66.2166 28.3478L66.154 29.4134C66.1439 29.5844 66.1953 29.729 66.2718 29.7421L67.6879 29.9863C67.7517 29.9973 67.8127 29.9028 67.822 29.7771L67.9362 28.2462Z" fill="#EBEBEB"/>
<path d="M57.932 33.2236H67.9375V37.2352H57.932V33.2236Z" fill="#263238"/>
<path d="M51.2501 41.4264C48.229 41.3103 45.8741 38.7671 45.9902 35.746C46.1062 32.725 48.6494 30.37 51.6705 30.4861C54.6916 30.6022 57.0465 33.1454 56.9304 36.1664C56.8143 39.1875 54.2712 41.5424 51.2501 41.4264Z" fill="#263238"/>
<path d="M56.9321 35.8608C56.9322 35.8656 56.933 35.8702 56.933 35.875C56.9766 38.8979 54.5614 41.3837 51.5385 41.4273C48.5157 41.4709 46.0297 39.0557 45.9861 36.0329C45.986 36.0281 45.9867 36.0236 45.9867 36.0188L56.9321 35.8608Z" fill="#263238"/>
<path d="M55.3023 35.8981C55.3329 38.0204 53.6374 39.7656 51.5151 39.7962C49.3928 39.8268 47.6476 38.1313 47.617 36.0089C47.5864 33.8866 49.2819 32.1414 51.4043 32.1108C53.5266 32.0802 55.2717 33.7758 55.3023 35.8981Z" fill="#FAFAFA"/>
<path d="M51.4047 32.1108C53.5269 32.0802 55.2721 33.7757 55.3027 35.8981L47.6174 36.0089C47.5868 33.8867 49.2823 32.1414 51.4047 32.1108Z" fill="#E0E0E0"/>
<path d="M53.8005 35.92C53.8191 37.2128 52.7862 38.2759 51.4936 38.2946C50.2007 38.3132 49.1376 37.2803 49.119 35.9876C49.1004 34.6948 50.1333 33.6317 51.4261 33.613C52.7188 33.5943 53.7819 34.6272 53.8005 35.92Z" fill="#263238"/>
<path d="M62.0779 20.6263H62.524C63.0275 20.6263 63.4355 20.2182 63.4355 19.7148V16.0922C63.4355 15.5888 63.0274 15.1807 62.524 15.1807H62.0779C61.5744 15.1807 61.1664 15.5888 61.1664 16.0922V19.7148C61.1663 20.2183 61.5744 20.6263 62.0779 20.6263Z" fill="#263238"/>
<path d="M64.3751 23.9933H64.4893V18.2351C64.4893 17.6639 64.0246 17.1992 63.4534 17.1992H63.1798V17.3134H63.4534C63.9616 17.3134 64.3751 17.7269 64.3751 18.2351V23.9933Z" fill="#263238"/>
<path d="M63.5964 24.0007L63.9138 18.6161C63.9249 18.4277 63.8597 18.2482 63.7303 18.1109C63.6008 17.9735 63.4256 17.8979 63.2369 17.8979V18.0121C63.3939 18.0121 63.5396 18.0751 63.6473 18.1893C63.755 18.3035 63.8091 18.4527 63.8 18.6095L63.4825 23.9941L63.5964 24.0007Z" fill="#263238"/>
<path d="M63.2376 23.4746H64.7773V25.2573H63.2376V23.4746Z" fill="#263238"/>
<path d="M63.8064 20.0913H64.4326V20.2055H63.8064V20.0913Z" fill="#263238"/>
<path d="M58.5831 11.8577C58.5831 11.8577 58.5372 11.8507 58.4471 11.8397C58.3561 11.8289 58.2219 11.813 58.0459 11.7921C57.6917 11.7512 57.1696 11.6909 56.4937 11.6128C55.1396 11.4588 53.1708 11.2347 50.7071 10.9544C50.3986 10.9213 50.0844 10.8797 49.7589 10.851C49.5948 10.8336 49.4278 10.8549 49.2625 10.8839C49.0993 10.9244 48.9365 10.9791 48.7865 11.0642C48.4864 11.2313 48.2264 11.4908 48.0661 11.8126C47.986 11.9726 47.9253 12.1462 47.9003 12.3277C47.8809 12.4176 47.8832 12.5102 47.8763 12.6022C47.8762 12.6935 47.8762 12.7852 47.8761 12.8773C47.8752 14.3514 47.8742 15.9347 47.8731 17.6121C47.872 20.9672 47.8708 24.6985 47.8694 28.6847V28.7137H47.8984C49.1831 28.714 50.5022 28.7141 51.8476 28.7143C52.5203 28.7143 53.1997 28.7144 53.8846 28.7144C54.2275 28.7159 54.5711 28.7066 54.9092 28.7626C55.2502 28.8032 55.5791 28.9139 55.8994 29.0397C56.8935 29.4658 57.6854 30.2999 58.0654 31.2829C58.1084 31.4074 58.1635 31.5278 58.1906 31.6567C58.2205 31.7843 58.2643 31.909 58.278 32.0397L58.3078 32.2335L58.3222 32.3303L58.3271 32.4281L58.337 32.6232L58.342 32.7206L58.3426 32.7329C58.3166 32.7072 58.3779 32.7715 58.373 32.7646H58.3761H58.3822H58.4068H58.4559C58.9794 32.7645 59.4989 32.7645 60.0142 32.7644C62.0753 32.7639 64.0683 32.7635 65.9701 32.763H65.998V32.735C65.9974 31.0138 65.9968 29.3548 65.9962 27.7695C65.9959 26.9768 65.9954 26.2026 65.9951 25.4481C65.9948 25.0709 65.9946 24.6986 65.9944 24.3315C65.9935 24.1477 65.9959 23.9662 65.9923 23.7841C65.9882 23.6023 65.9752 23.4223 65.9537 23.2443C65.8659 22.5328 65.634 21.8631 65.3073 21.2773C64.9926 20.6864 64.6885 20.1154 64.3957 19.5656C63.8099 18.4664 63.2695 17.452 62.7794 16.5325C62.2892 15.6133 61.8497 14.7891 61.466 14.0696C61.37 13.8898 61.2775 13.7165 61.1886 13.5501C61.1429 13.4673 61.1034 13.384 61.0551 13.3065C61.0074 13.2289 60.9553 13.1564 60.9014 13.088C60.684 12.8157 60.4422 12.6059 60.209 12.4448C59.7375 12.1245 59.3096 11.9964 59.0247 11.9295C58.7366 11.8656 58.5831 11.8577 58.5831 11.8577C58.5831 11.8577 58.6208 11.8642 58.695 11.8748C58.7691 11.886 58.8793 11.9052 59.0224 11.9386C59.3058 12.0084 59.7313 12.1391 60.1985 12.4598C60.4295 12.6212 60.669 12.8308 60.8836 13.1019C60.9368 13.1699 60.9881 13.2418 61.0349 13.3187C61.0822 13.3951 61.1219 13.4795 61.1671 13.562C61.2554 13.7289 61.3473 13.9025 61.4427 14.0825C61.8244 14.8031 62.2617 15.6285 62.7493 16.5489C63.2374 17.4694 63.7758 18.4847 64.3592 19.5849C64.6511 20.1351 64.9542 20.7065 65.268 21.2978C65.5922 21.8813 65.8204 22.544 65.9068 23.2498C65.9278 23.4261 65.9406 23.6047 65.9445 23.7848C65.9478 23.9648 65.9452 24.1479 65.9459 24.3311C65.9456 24.6983 65.9454 25.0706 65.9453 25.4477C65.9449 26.2022 65.9445 26.9765 65.9441 27.7691C65.9436 29.3545 65.9429 31.0134 65.9423 32.7347L65.9702 32.7068C64.0684 32.7064 62.0754 32.7059 60.0143 32.7054C59.4991 32.7053 58.9795 32.7053 58.456 32.7052H58.4069H58.3823H58.3762H58.3731C58.3652 32.6993 58.4284 32.7595 58.4016 32.7324L58.4011 32.7201L58.396 32.6212L58.386 32.4232L58.381 32.324L58.3664 32.2257L58.3361 32.0291C58.322 31.8966 58.278 31.77 58.2476 31.6403C58.2201 31.5095 58.1643 31.3873 58.1207 31.261C57.7352 30.2633 56.9319 29.4171 55.923 28.9846C55.5979 28.8569 55.2641 28.7448 54.918 28.7035C54.5743 28.6466 54.2256 28.6561 53.8847 28.6546C53.1998 28.6547 52.5205 28.6547 51.8477 28.6547C50.5023 28.6549 49.1832 28.655 47.8985 28.6553L47.9275 28.6843C47.9261 24.6982 47.9249 20.9667 47.9237 17.6116C47.9227 15.9342 47.9217 14.3509 47.9208 12.8769C47.9212 12.6922 47.9136 12.5096 47.9437 12.334C47.9677 12.1569 48.0267 11.9875 48.1046 11.8313C48.2603 11.517 48.5139 11.2633 48.8067 11.0995C48.9531 11.0159 49.1119 10.9624 49.2712 10.9225C49.4327 10.8941 49.5958 10.8726 49.7563 10.8895C50.0787 10.9174 50.3953 10.9584 50.7031 10.9909C53.1677 11.2641 55.1372 11.4823 56.4916 11.6324C57.1679 11.7061 57.6904 11.7632 58.0449 11.8018C58.2211 11.8204 58.3554 11.8347 58.4466 11.8444C58.5367 11.8542 58.5831 11.8577 58.5831 11.8577Z" fill="#263238"/>
<path d="M49.6922 24.478C49.6924 24.4748 49.6609 24.4751 49.6033 24.4648C49.5461 24.455 49.4608 24.4319 49.3683 24.3713C49.277 24.3113 49.1786 24.2086 49.1293 24.0601C49.1037 23.986 49.0951 23.9042 49.0988 23.8141C49.1008 23.7264 49.123 23.6343 49.1681 23.5484C49.2572 23.3778 49.4524 23.2347 49.6828 23.2349C49.919 23.2356 50.1711 23.2363 50.4361 23.2371C50.9676 23.2378 51.5508 23.2386 52.1632 23.2394C52.3096 23.2394 52.4521 23.2963 52.5567 23.3926C52.6619 23.4885 52.7288 23.6214 52.7435 23.7584C52.7576 23.8989 52.739 24.0366 52.6721 24.153C52.6077 24.2694 52.5026 24.3575 52.3862 24.4069C52.2685 24.4592 52.1415 24.4518 52.0145 24.4523C51.8888 24.4527 51.7667 24.4533 51.6486 24.4537C51.4131 24.455 51.1932 24.4561 50.9919 24.4573C50.5948 24.4612 50.2714 24.4643 50.041 24.4665C49.9331 24.4688 49.847 24.4706 49.7825 24.472C49.7233 24.4741 49.6922 24.476 49.6922 24.478C49.6922 24.4799 49.7233 24.482 49.7823 24.4838C49.8469 24.4851 49.9328 24.487 50.0409 24.4893C50.2714 24.4915 50.5947 24.4946 50.9918 24.4985C51.1931 24.4995 51.4129 24.5008 51.6485 24.5021C51.7666 24.5025 51.8888 24.503 52.0144 24.5035C52.078 24.5027 52.1393 24.5062 52.2075 24.5019C52.2745 24.497 52.3425 24.4832 52.4066 24.4566C52.5341 24.4034 52.6492 24.3077 52.7204 24.1805C52.7944 24.0547 52.815 23.8985 52.8002 23.7522C52.7844 23.6017 52.7112 23.4552 52.5958 23.3499C52.4811 23.2438 52.324 23.181 52.1632 23.1812C51.5508 23.182 50.9676 23.1827 50.4361 23.1834C50.1708 23.1846 49.9185 23.1856 49.682 23.1866C49.4327 23.1888 49.2242 23.3456 49.1315 23.5293C49.0845 23.6218 49.0623 23.7206 49.0617 23.8137C49.0593 23.9041 49.0699 23.9945 49.0984 24.0708C49.1536 24.2264 49.2594 24.3312 49.3559 24.3904C49.4539 24.4503 49.5425 24.4701 49.6015 24.4765C49.6609 24.4831 49.6922 24.478 49.6922 24.478Z" fill="#263238"/>
<path d="M49.904 23.0438C49.904 23.0599 50.3424 23.0729 50.8831 23.0729C51.424 23.0729 51.8623 23.0599 51.8623 23.0438C51.8623 23.0277 51.424 23.0146 50.8831 23.0146C50.3424 23.0146 49.904 23.0277 49.904 23.0438Z" fill="white"/>
<path d="M57.4765 37.2686L58.3877 37.2022C58.1493 33.9307 57.7998 31.9735 57.3194 31.2189C56.3964 29.7688 55.4791 29.507 54.462 29.3332C53.5163 29.1718 52.5621 29.2104 51.6393 29.2476L51.4129 29.2567C49.508 29.3309 45.518 29.2648 45.4779 29.2642L45.4625 30.1775C45.5028 30.1782 49.5184 30.2447 51.4484 30.1695L51.6762 30.1604C52.5518 30.1251 53.4572 30.0883 54.3082 30.2338C55.2165 30.3889 55.8206 30.5656 56.5487 31.7096C56.7691 32.0557 57.1827 33.2383 57.4765 37.2686Z" fill="#263238"/>
<path d="M0.000431061 0H44.9912V29.9556H0.000431061V0Z" fill="#E8505B"/>
<path d="M0.539616 29.3625C0.53973 29.1699 0.548862 18.1827 0.563248 0.676175L0.539616 0.699814C12.5932 0.701527 27.8994 0.703583 44.5058 0.705981H44.5094L44.4797 0.67629C44.4806 10.8733 44.4814 20.5789 44.4821 29.3625L44.5094 29.3352C18.6403 29.3513 0.784679 29.3623 0.539616 29.3625C0.784451 29.3626 18.6403 29.3736 44.5094 29.3897H44.5367V29.3623C44.5375 20.5788 44.5383 10.873 44.5391 0.676175V0.646484H44.5094H44.5058C27.8994 0.648768 12.5932 0.650938 0.539616 0.652651H0.515972V0.67629C0.530476 18.1827 0.539501 29.1701 0.539616 29.3625Z" fill="#263238"/>
<path d="M51.3909 14.1853C51.3898 14.187 51.4042 14.199 51.4326 14.2202C51.467 14.245 51.5085 14.2749 51.5584 14.3109C51.6684 14.3887 51.829 14.4992 52.0284 14.6342C52.4271 14.9042 52.982 15.2714 53.6006 15.6679C54.2195 16.0645 54.7848 16.4154 55.1968 16.6648C55.4028 16.7896 55.5703 16.8893 55.6868 16.9567C55.7404 16.9871 55.7849 17.0122 55.8218 17.0332C55.853 17.0501 55.8699 17.0582 55.871 17.0564C55.8721 17.0547 55.8573 17.0431 55.8281 17.0229C55.7928 16.9994 55.7502 16.9711 55.699 16.9369C55.5776 16.859 55.4156 16.7551 55.219 16.6291C54.8056 16.3655 54.2484 16.0103 53.6327 15.6177C53.019 15.2224 52.4637 14.8645 52.0515 14.599C51.8549 14.473 51.6927 14.3692 51.5712 14.2916C51.5188 14.2593 51.4753 14.2324 51.4392 14.2102C51.4087 14.1922 51.3922 14.1836 51.3909 14.1853Z" fill="#FAFAFA"/>
<path d="M53.3382 14.7014C53.337 14.7031 53.3514 14.7151 53.3799 14.7364C53.4142 14.7612 53.4558 14.7911 53.5057 14.8271C53.6157 14.9049 53.7762 15.0154 53.9756 15.1504C54.3744 15.4205 54.9293 15.7876 55.5479 16.1841C56.1668 16.5807 56.7321 16.9316 57.1441 17.181C57.35 17.3058 57.5175 17.4055 57.6341 17.4729C57.6877 17.5033 57.7322 17.5284 57.7691 17.5494C57.8003 17.5663 57.8172 17.5744 57.8183 17.5726C57.8194 17.5708 57.8046 17.5594 57.7754 17.5391C57.7401 17.5156 57.6975 17.4873 57.6462 17.4532C57.5249 17.3753 57.3629 17.2714 57.1664 17.1452C56.753 16.8816 56.1958 16.5265 55.5801 16.1339C54.9664 15.7384 54.411 15.3806 53.9989 15.1151C53.8023 14.9892 53.6401 14.8854 53.5187 14.8077C53.4663 14.7754 53.4228 14.7485 53.3867 14.7263C53.3559 14.7084 53.3393 14.6997 53.3382 14.7014Z" fill="#FAFAFA"/>
<path d="M62.9522 18.0255C62.9562 18.0264 62.9686 17.9907 62.9873 17.925C63.006 17.8593 63.0312 17.764 63.0589 17.6451C63.1131 17.4079 63.1823 17.0739 63.1796 16.6975C63.1769 16.3208 63.0803 15.9841 62.9621 15.7677C62.9039 15.6589 62.8455 15.5775 62.8004 15.5256C62.7555 15.4736 62.7269 15.4484 62.7243 15.4508C62.7154 15.4579 62.8207 15.5689 62.9245 15.7866C63.0301 16.0023 63.1174 16.3299 63.1202 16.6982C63.123 17.0665 63.0614 17.398 63.0178 17.6365C62.9723 17.8754 62.9437 18.0237 62.9522 18.0255Z" fill="#FAFAFA"/>
<path d="M67.5993 26.1213C67.6034 26.1212 67.6053 26.0758 67.6055 25.9936C67.6057 25.9115 67.6033 25.7929 67.5985 25.6463C67.589 25.3531 67.568 24.9483 67.5329 24.502C67.4977 24.0556 67.4551 23.6525 67.4185 23.3614C67.4002 23.2158 67.384 23.0983 67.3709 23.0173C67.358 22.9362 67.3489 22.8916 67.3447 22.8921C67.3406 22.8926 67.342 22.938 67.3478 23.0199C67.3557 23.1144 67.3653 23.2299 67.3766 23.3659C67.4026 23.6719 67.4363 24.0683 67.4736 24.5067C67.5054 24.9454 67.5342 25.3422 67.5565 25.6484C67.5666 25.7844 67.5752 25.9001 67.5823 25.9947C67.5894 26.0763 67.5952 26.1214 67.5993 26.1213Z" fill="#FAFAFA"/>
<path d="M55.0875 28.3386C55.0853 28.3506 55.3072 28.3822 55.6491 28.4923C55.8203 28.5461 56.0189 28.6261 56.2321 28.7291C56.4436 28.8359 56.6688 28.9678 56.8901 29.1285C57.1097 29.2915 57.303 29.467 57.4681 29.6369C57.6303 29.8095 57.7661 29.975 57.8686 30.1223C58.0759 30.4156 58.1725 30.6178 58.1832 30.6121C58.1869 30.6103 58.1641 30.5593 58.1196 30.4683C58.098 30.4224 58.0699 30.3673 58.0322 30.3059C57.9952 30.2443 57.9562 30.1719 57.9032 30.0983C57.8041 29.9464 57.6701 29.7762 57.508 29.5992C57.343 29.425 57.1479 29.2459 56.9252 29.0805C56.7008 28.9175 56.4716 28.7852 56.256 28.6798C56.0386 28.578 55.8362 28.5012 55.6615 28.4521C55.5754 28.4235 55.4947 28.4079 55.4248 28.391C55.355 28.3734 55.294 28.363 55.2437 28.3562C55.1436 28.341 55.0882 28.3346 55.0875 28.3386Z" fill="#FAFAFA"/>
<path d="M10.8045 41.4219C7.78376 41.3013 5.43273 38.7547 5.55336 35.7339C5.67398 32.7132 8.22058 30.3621 11.2414 30.4828C14.2621 30.6034 16.6132 33.15 16.4925 36.1708C16.3719 39.1915 13.8253 41.5426 10.8045 41.4219Z" fill="#263238"/>
<path d="M16.4964 35.8608C16.4966 35.8656 16.4974 35.8702 16.4975 35.875C16.5411 38.8979 14.1258 41.3837 11.103 41.4273C8.08011 41.4709 5.59419 39.0557 5.55057 36.0329C5.55045 36.0281 5.55113 36.0236 5.55102 36.0188L16.4964 35.8608Z" fill="#263238"/>
<path d="M14.8668 35.8981C14.8974 38.0204 13.2018 39.7656 11.0796 39.7962C8.95727 39.8268 7.21202 38.1313 7.18141 36.0089C7.15081 33.8866 8.84638 32.1414 10.9687 32.1108C13.091 32.0802 14.8362 33.7758 14.8668 35.8981Z" fill="#FAFAFA"/>
<path d="M10.9681 32.1108C13.0905 32.0802 14.8356 33.7757 14.8662 35.8981L7.18084 36.0089C7.15024 33.8867 8.84581 32.1414 10.9681 32.1108Z" fill="#E0E0E0"/>
<path d="M13.365 35.92C13.3836 37.2128 12.3508 38.2759 11.058 38.2946C9.7652 38.3132 8.70203 37.2803 8.68342 35.9876C8.66481 34.6948 9.69771 33.6317 10.9905 33.613C12.2832 33.5943 13.3464 34.6272 13.365 35.92Z" fill="#263238"/>
<path d="M18.2196 37.4536C18.2196 37.4536 19.0535 29.6904 11.0075 29.6904C3.58356 29.6904 3.74914 36.3688 3.81914 37.4016H4.98337C4.98337 37.4016 4.39013 30.8201 11.0075 30.8201C17.6248 30.8201 17.0484 37.5353 17.0484 37.5353C17.0484 37.5353 17.5372 37.5094 18.2196 37.4536Z" fill="#455A64"/>
<path d="M13.9099 30.4922C13.9094 30.4942 13.9311 30.502 13.9729 30.5151C14.0145 30.5292 14.0772 30.5446 14.1557 30.5717C14.3141 30.6215 14.5406 30.7028 14.8097 30.827C15.3467 31.0717 16.0523 31.5238 16.6349 32.2179C17.2181 32.912 17.5413 33.6853 17.6895 34.2565C17.7653 34.543 17.8062 34.7802 17.8279 34.9448C17.8411 35.0269 17.8454 35.0913 17.852 35.1346C17.8577 35.178 17.8617 35.2008 17.8637 35.2007C17.8657 35.2006 17.8657 35.1775 17.8639 35.1337C17.8612 35.0899 17.8605 35.0249 17.8509 34.9422C17.8363 34.776 17.8014 34.5363 17.7302 34.2461C17.5914 33.6678 17.2706 32.8824 16.6805 32.1799C16.0908 31.4773 15.3726 31.0257 14.8271 30.789C14.5536 30.6686 14.3235 30.5929 14.1624 30.5497C14.0824 30.5259 14.0186 30.5141 13.9759 30.5038C13.933 30.4941 13.9103 30.4902 13.9099 30.4922Z" fill="#FAFAFA"/>
</svg>
