<svg width="67" height="38" viewBox="0 0 67 38" fill="none" xmlns="http://www.w3.org/2000/svg">
<path d="M64.025 24.8579H65.3975V26.755H64.025V24.8579Z" fill="#0072BC"/>
<path d="M64.7009 25.9678L66.4668 26.6538V31.9913C66.4668 32.8658 65.7579 33.575 64.8831 33.575H54.5202L57.9902 26.5734L64.7009 25.9678Z" fill="#59ACF9"/>
<path d="M50.2803 6.55665L49.3267 5.62451C48.1271 4.45184 46.608 3.65981 44.9601 3.34749L43.2242 3.0186C42.7114 2.92128 42.2268 3.28848 42.1816 3.80855L41.2381 14.6581C41.1604 15.5509 41.1214 16.4468 41.1214 17.343V25.7567H47.0583L50.2803 6.55665Z" fill="#2F97F7"/>
<path d="M-58.8823 25.0156H37.5264V29.9472H-58.8823V25.0156Z" fill="#001D2F"/>
<path d="M45.1372 15.3961L46.5304 6.04199L56.9726 7.47523C58.272 7.65365 59.4146 8.42634 60.0645 9.56555L64.5074 17.3588C65.3467 18.831 65.7881 20.4968 65.7881 22.1917V25.2949H64.7003V32.4887H54.6035L44.9577 28.6645V17.8136C44.9581 17.0044 45.0178 16.1965 45.1372 15.3961Z" fill="#59ACF9"/>
<path d="M57.5858 32.4883H61.47C61.9331 32.4883 62.3086 32.1128 62.3086 31.6497V30.6699H57.5861L57.5858 32.4883Z" fill="#0072BC"/>
<path d="M51.8591 9.58771V22.4999L54.7952 23.8956L57.7373 29.9474H61.2067C61.8151 29.9474 62.3086 29.4542 62.3086 28.8454V19.9751C62.3086 19.1872 62.1612 18.4066 61.8741 17.6729L58.6125 9.34234C58.5114 9.0842 58.2625 8.91406 57.9851 8.91406H52.5327C52.1607 8.91406 51.8591 9.21569 51.8591 9.58771Z" stroke="#2F97F7" stroke-width="0.7923" stroke-miterlimit="10"/>
<path d="M53.5026 32.9109L55.4297 25.6284H28.9464L31.4647 32.9109H53.5026Z" fill="#59ACF9"/>
<path d="M44.3595 30.7978C44.3595 26.9736 47.4596 23.8735 51.2838 23.8735C55.1079 23.8735 58.208 26.9736 58.208 30.7978C58.208 31.7862 57.9975 32.7242 57.6244 33.5749H56.0342L49.063 31.2181L48.615 32.9112H44.6908C44.4772 32.2445 44.3595 31.5353 44.3595 30.7978Z" fill="#001D2F"/>
<path d="M20.3409 32.9109C20.1272 32.2445 20.0099 31.5353 20.0099 30.7978C20.0099 26.9736 23.11 23.8735 26.9341 23.8735C30.7583 23.8735 33.8584 26.9736 33.8584 30.7978C33.8584 31.5353 33.7411 32.2448 33.5264 32.9109H20.3409Z" fill="#001D2F"/>
<path d="M26.0435 36.23C23.0438 35.7407 21.0086 32.9123 21.498 29.9125C21.9873 26.9127 24.8158 24.8776 27.8155 25.3669C30.8153 25.8563 32.8504 28.6847 32.3611 31.6845C31.8717 34.6842 29.0433 36.7194 26.0435 36.23Z" fill="#00395E"/>
<path d="M23.913 30.7974C23.913 29.1295 25.2652 27.7773 26.9331 27.7773C28.601 27.7773 29.9531 29.1295 29.9531 30.7974C29.9531 32.4653 28.601 33.8178 26.9331 33.8178C25.2652 33.8178 23.913 32.4656 23.913 30.7974Z" fill="#59ACF9"/>
<path d="M24.1558 30.7976C24.1558 29.2639 25.3992 28.0205 26.9329 28.0205C28.4665 28.0205 29.71 29.2639 29.71 30.7976C29.71 32.3313 28.4665 33.5747 26.9329 33.5747C25.3992 33.5747 24.1558 32.3313 24.1558 30.7976Z" fill="#33617E"/>
<path d="M25.1741 30.7977C25.1741 29.8266 25.9613 29.0391 26.9327 29.0391C27.9039 29.0391 28.6914 29.8266 28.6914 30.7977C28.6914 31.7689 27.9039 32.5564 26.9327 32.5564C25.9616 32.5564 25.1741 31.7692 25.1741 30.7977Z" fill="#5C8198"/>
<path d="M26.388 30.7977C26.388 30.4964 26.6323 30.2524 26.9332 30.2524C27.2345 30.2524 27.4785 30.4964 27.4785 30.7977C27.4785 31.099 27.2345 31.343 26.9332 31.343C26.632 31.343 26.388 31.099 26.388 30.7977Z" fill="#001D2F"/>
<path d="M26.9331 34.9926C24.6164 34.9926 22.7384 33.1146 22.7384 30.7979H23.5984C23.5984 32.6397 25.0913 34.1326 26.9331 34.1326C28.775 34.1326 30.2679 32.6397 30.2679 30.7979H31.1279C31.1279 33.1146 29.2499 34.9926 26.9331 34.9926Z" fill="#001D2F"/>
<path d="M26.9333 25.7119C29.7422 25.7119 32.0195 27.9889 32.0195 30.7981H31.1281C31.1281 28.4814 29.25 26.6033 26.9333 26.6033C24.6166 26.6033 22.7385 28.4814 22.7385 30.7981H21.8471C21.8471 27.9889 24.1245 25.7119 26.9333 25.7119Z" fill="#33617E"/>
<path d="M26.6553 29.5654C26.6553 29.4118 26.7796 29.2876 26.9331 29.2876C27.0867 29.2876 27.2109 29.4118 27.2109 29.5654C27.2109 29.719 27.0867 29.8432 26.9331 29.8432C26.7796 29.8432 26.6553 29.719 26.6553 29.5654Z" fill="#001D2F"/>
<path d="M27.8615 29.941C27.9944 29.8644 28.1645 29.9099 28.2411 30.0428C28.3177 30.1757 28.2722 30.3458 28.1393 30.4224C28.0065 30.499 27.8363 30.4535 27.7597 30.3206C27.6831 30.1878 27.7283 30.0176 27.8615 29.941Z" fill="#001D2F"/>
<path d="M28.1393 31.1729C28.2722 31.2495 28.3177 31.4197 28.2411 31.5526C28.1645 31.6854 27.9944 31.731 27.8615 31.6544C27.7286 31.5777 27.6831 31.4076 27.7597 31.2747C27.8363 31.1419 28.0065 31.0963 28.1393 31.1729Z" fill="#001D2F"/>
<path d="M27.2109 32.0298C27.2109 32.1833 27.0867 32.3076 26.9331 32.3076C26.7796 32.3076 26.6553 32.183 26.6553 32.0298C26.6553 31.8762 26.7796 31.752 26.9331 31.752C27.0867 31.7516 27.2109 31.8762 27.2109 32.0298Z" fill="#001D2F"/>
<path d="M26.0046 31.6544C25.8717 31.731 25.7016 31.6854 25.6249 31.5526C25.548 31.4197 25.5935 31.2495 25.7267 31.1729C25.8596 31.0963 26.0298 31.1419 26.1064 31.2747C26.183 31.4076 26.1374 31.5774 26.0046 31.6544Z" fill="#001D2F"/>
<path d="M25.7268 30.4219C25.5939 30.3453 25.5483 30.1752 25.6249 30.0423C25.7016 29.9095 25.8717 29.8639 26.0046 29.9405C26.1374 30.0171 26.183 30.1873 26.1064 30.3201C26.0298 30.4533 25.86 30.4989 25.7268 30.4219Z" fill="#001D2F"/>
<path d="M26.6688 28.3457H27.1982C27.3283 28.3457 27.4336 28.4513 27.4336 28.5814C27.4336 28.7115 27.3283 28.8168 27.1982 28.8168H26.6688C26.5387 28.8168 26.4335 28.7115 26.4335 28.5814C26.4335 28.451 26.5387 28.3457 26.6688 28.3457Z" fill="#001D2F"/>
<path d="M28.9245 29.3424L29.1892 29.8007C29.254 29.9135 29.2157 30.0574 29.1029 30.1223C28.9904 30.1875 28.8461 30.1489 28.7812 30.036L28.5165 29.5777C28.4517 29.4652 28.49 29.321 28.6028 29.2561C28.7153 29.1912 28.8596 29.2299 28.9245 29.3424Z" fill="#001D2F"/>
<path d="M29.189 31.7945L28.9243 32.2528C28.8594 32.3657 28.7152 32.404 28.6027 32.3391C28.4902 32.2739 28.4515 32.13 28.5164 32.0175L28.7811 31.5592C28.8463 31.4467 28.9902 31.408 29.1027 31.4729C29.2156 31.5378 29.2542 31.682 29.189 31.7945Z" fill="#001D2F"/>
<path d="M27.1982 33.2499H26.6688C26.5387 33.2499 26.4335 33.1446 26.4335 33.0145C26.4335 32.8844 26.5387 32.7788 26.6688 32.7788H27.1982C27.3283 32.7788 27.4336 32.8844 27.4336 33.0145C27.4336 33.1443 27.3283 33.2499 27.1982 33.2499Z" fill="#001D2F"/>
<path d="M24.9412 32.2531L24.6765 31.7948C24.6117 31.6819 24.65 31.538 24.7628 31.4731C24.8753 31.4079 25.0196 31.4465 25.0845 31.5594L25.3492 32.0177C25.4144 32.1302 25.3757 32.2745 25.2629 32.3393C25.1504 32.4042 25.0061 32.3659 24.9412 32.2531Z" fill="#001D2F"/>
<path d="M24.6767 29.8011L24.9414 29.3428C25.0066 29.2303 25.1505 29.1917 25.263 29.2566C25.3759 29.3218 25.4142 29.4657 25.3493 29.5782L25.0846 30.0365C25.0197 30.149 24.8755 30.1877 24.763 30.1228C24.6501 30.0576 24.6118 29.9137 24.6767 29.8011Z" fill="#001D2F"/>
<path d="M49.16 35.8737C46.3569 34.6994 45.0365 31.475 46.2109 28.6718C47.3853 25.8687 50.6097 24.5483 53.4128 25.7227C56.2159 26.8971 57.5363 30.1215 56.3619 32.9246C55.1875 35.7277 51.9631 37.0481 49.16 35.8737Z" fill="#00395E"/>
<path d="M48.2633 30.7979C48.2633 29.13 49.6154 27.7778 51.2837 27.7778C52.9516 27.7778 54.3037 29.13 54.3037 30.7979C54.3037 32.4658 52.9516 33.8183 51.2837 33.8183C49.6154 33.8183 48.2633 32.4661 48.2633 30.7979Z" fill="#59ACF9"/>
<path d="M49.3751 30.7976C49.3751 29.7436 50.2296 28.8892 51.2839 28.8892C52.3379 28.8892 53.1924 29.7436 53.1924 30.7976C53.1924 31.8519 52.3379 32.7064 51.2839 32.7064C50.2296 32.7064 49.3751 31.8519 49.3751 30.7976Z" fill="white"/>
<path d="M50.7386 30.7977C50.7386 30.4964 50.9826 30.2524 51.2838 30.2524C51.5851 30.2524 51.8291 30.4964 51.8291 30.7977C51.8291 31.099 51.5848 31.343 51.2838 31.343C50.9829 31.343 50.7386 31.099 50.7386 30.7977Z" fill="#001D2F"/>
<path d="M51.2837 34.9926C48.967 34.9926 47.0889 33.1146 47.0889 30.7979H47.9489C47.9489 32.6397 49.4419 34.1326 51.2837 34.1326C53.1256 34.1326 54.6185 32.6397 54.6185 30.7979H55.4785C55.4785 33.1146 53.6004 34.9926 51.2837 34.9926Z" fill="#001D2F"/>
<path d="M51.2839 25.7119C54.0927 25.7119 56.3701 27.9889 56.3701 30.7981H55.4787C55.4787 28.4814 53.6006 26.6033 51.2839 26.6033C48.9672 26.6033 47.0891 28.4814 47.0891 30.7981H46.1977C46.1981 27.9889 48.4751 25.7119 51.2839 25.7119Z" fill="#33617E"/>
<path d="M51.0059 29.5659C51.0059 29.4123 51.1305 29.2881 51.2837 29.2881C51.4373 29.2881 51.5615 29.4123 51.5615 29.5659C51.5615 29.7195 51.4369 29.8437 51.2837 29.8437C51.1305 29.8437 51.0059 29.7195 51.0059 29.5659Z" fill="#001D2F"/>
<path d="M51.0059 28.4067C51.0059 28.2531 51.1305 28.1289 51.2837 28.1289C51.4373 28.1289 51.5615 28.2535 51.5615 28.4067C51.5615 28.5603 51.4369 28.6845 51.2837 28.6845C51.1305 28.6845 51.0059 28.5603 51.0059 28.4067Z" fill="#001D2F"/>
<path d="M52.7783 28.9106C52.8867 28.8019 53.0627 28.8019 53.1714 28.9106C53.2801 29.019 53.2801 29.195 53.1714 29.3037C53.063 29.4124 52.887 29.4124 52.7783 29.3037C52.6696 29.195 52.6696 29.019 52.7783 28.9106Z" fill="#001D2F"/>
<path d="M53.6753 30.52C53.8289 30.52 53.9531 30.6446 53.9531 30.7978C53.9531 30.9514 53.8289 31.0756 53.6753 31.0756C53.5217 31.0756 53.3975 30.9511 53.3975 30.7978C53.3972 30.6446 53.5217 30.52 53.6753 30.52Z" fill="#001D2F"/>
<path d="M53.1714 32.292C53.2801 32.4003 53.2801 32.5764 53.1714 32.6851C53.063 32.7934 52.887 32.7934 52.7783 32.6851C52.67 32.5767 52.67 32.4007 52.7783 32.292C52.8867 32.1833 53.0627 32.1833 53.1714 32.292Z" fill="#001D2F"/>
<path d="M51.5615 33.1885C51.5615 33.342 51.4369 33.4663 51.2837 33.4663C51.1301 33.4663 51.0059 33.3417 51.0059 33.1885C51.0059 33.0349 51.1305 32.9106 51.2837 32.9106C51.4369 32.9106 51.5615 33.0352 51.5615 33.1885Z" fill="#001D2F"/>
<path d="M49.7898 32.6853C49.6815 32.7937 49.5055 32.7937 49.3967 32.6853C49.2884 32.5769 49.2884 32.4009 49.3967 32.2922C49.5051 32.1838 49.6811 32.1838 49.7898 32.2922C49.8982 32.4006 49.8982 32.5766 49.7898 32.6853Z" fill="#001D2F"/>
<path d="M48.8931 31.0761C48.7395 31.0761 48.6153 30.9516 48.6153 30.7983C48.6153 30.6447 48.7399 30.5205 48.8931 30.5205C49.0467 30.5205 49.1709 30.6451 49.1709 30.7983C49.1709 30.9516 49.0467 31.0761 48.8931 31.0761Z" fill="#001D2F"/>
<path d="M49.3967 29.3037C49.2884 29.1954 49.2884 29.0193 49.3967 28.9106C49.5051 28.8019 49.6811 28.8019 49.7898 28.9106C49.8982 29.019 49.8982 29.195 49.7898 29.3037C49.6811 29.4121 49.5051 29.4121 49.3967 29.3037Z" fill="#001D2F"/>
<path d="M52.2121 29.941C52.345 29.8644 52.5151 29.9099 52.5917 30.0428C52.6683 30.1757 52.6228 30.3458 52.4899 30.4224C52.357 30.499 52.1869 30.4535 52.1103 30.3206C52.0337 30.1878 52.0792 30.0176 52.2121 29.941Z" fill="#001D2F"/>
<path d="M52.4899 31.1734C52.6228 31.25 52.6683 31.4202 52.5917 31.553C52.5151 31.6859 52.345 31.7315 52.2121 31.6548C52.0792 31.5782 52.0337 31.4081 52.1103 31.2752C52.1869 31.1424 52.357 31.0968 52.4899 31.1734Z" fill="#001D2F"/>
<path d="M51.5615 32.0303C51.5615 32.1838 51.4369 32.3081 51.2837 32.3081C51.1301 32.3081 51.0059 32.1835 51.0059 32.0303C51.0059 31.8767 51.1305 31.7524 51.2837 31.7524C51.4369 31.7521 51.5615 31.8767 51.5615 32.0303Z" fill="#001D2F"/>
<path d="M50.3551 31.6548C50.2223 31.7315 50.0521 31.6859 49.9755 31.553C49.8989 31.4202 49.9445 31.25 50.0773 31.1734C50.2102 31.0968 50.3803 31.1424 50.457 31.2752C50.5336 31.4081 50.488 31.5779 50.3551 31.6548Z" fill="#001D2F"/>
<path d="M50.0773 30.4224C49.9445 30.3458 49.8989 30.1757 49.9755 30.0428C50.0521 29.9099 50.2223 29.8644 50.3551 29.941C50.488 30.0176 50.5336 30.1878 50.457 30.3206C50.38 30.4538 50.2102 30.4994 50.0773 30.4224Z" fill="#001D2F"/>
<path d="M49.7764 6.48753L44.4213 5.89221C44.1618 5.86322 43.9651 5.64374 43.9651 5.38249V4.43551C43.9651 4.27607 44.1121 4.15701 44.2681 4.19083L46.9092 4.76026C47.5207 4.89209 48.094 5.16197 48.5854 5.54883L49.7764 6.48753Z" fill="#001D2F"/>
<path d="M35.6128 28.7246H43.2325C43.5583 28.7246 43.8223 28.9886 43.8223 29.3144C43.8223 29.6402 43.5583 29.9042 43.2325 29.9042H35.6128C35.2871 29.9042 35.023 29.6402 35.023 29.3144C35.023 28.9886 35.2871 28.7246 35.6128 28.7246Z" fill="#2F97F7"/>
<path d="M61.6012 16.0352L59.5657 10.1322C59.4636 9.83573 59.6838 9.52686 59.9975 9.52686C60.0189 9.53928 60.043 9.55343 60.0644 9.56585L64.5073 17.3591C64.5322 17.4026 63.5835 17.2328 62.8246 17.0913C62.2565 16.985 61.7896 16.5816 61.6012 16.0352Z" fill="#001D2F"/>
<path d="M58.4076 10.0084L60.3398 16.6034L53.1751 15.5998C52.8224 15.5505 52.5597 15.2485 52.5597 14.8923V10.1968C52.5597 9.80234 52.8796 9.48242 53.2741 9.48242H57.7053C58.0304 9.48242 58.3161 9.69673 58.4076 10.0084Z" fill="#001D2F"/>
<path d="M47.5502 9.48242H50.3283C50.7034 9.48242 51.0078 9.78646 51.0078 10.1619V14.6725C51.0078 15.0476 50.7038 15.352 50.3283 15.352H47.5502C47.175 15.352 46.8707 15.0476 46.8707 14.6725V10.1619C46.8707 9.78681 47.175 9.48242 47.5502 9.48242Z" stroke="#2F97F7" stroke-width="0.7923" stroke-miterlimit="10"/>
<path d="M65.8411 28.3798L65.2154 28.0772V27.1992L66.4668 27.8045V31.0762L65.8411 30.768V28.3798Z" fill="#F2EFFA"/>
<path d="M42.1882 30.9731H43.8223V31.7524H42.1882V30.9731Z" fill="#FFA538"/>
<path d="M35.0231 30.9731H36.6572V31.7524H35.0231V30.9731Z" fill="#FFA538"/>
<path d="M-58.8823 0H37.5264V25.0159H-58.8823V0Z" fill="#59ACF9"/>
<mask id="mask0_657_2125" style="mask-type:luminance" maskUnits="userSpaceOnUse" x="-59" y="0" width="97" height="26">
<path d="M-58.8823 0H37.5264V25.0159H-58.8823V0Z" fill="white"/>
</mask>
<g mask="url(#mask0_657_2125)">
<path d="M69.8438 34.9924L33.1294 -4.22461" stroke="#2F97F7" stroke-width="0.7923" stroke-miterlimit="10"/>
<path d="M66.8154 34.9924L30.1011 -4.22461" stroke="#2F97F7" stroke-width="0.7923" stroke-miterlimit="10"/>
<path d="M63.7871 34.9924L27.0728 -4.22461" stroke="#2F97F7" stroke-width="0.7923" stroke-miterlimit="10"/>
<path d="M60.7588 34.9924L24.0445 -4.22461" stroke="#2F97F7" stroke-width="0.7923" stroke-miterlimit="10"/>
<path d="M57.7305 34.9924L21.0161 -4.22461" stroke="#2F97F7" stroke-width="0.7923" stroke-miterlimit="10"/>
<path d="M54.7021 34.9924L17.9878 -4.22461" stroke="#2F97F7" stroke-width="0.7923" stroke-miterlimit="10"/>
<path d="M51.6729 34.9924L14.9585 -4.22461" stroke="#2F97F7" stroke-width="0.7923" stroke-miterlimit="10"/>
<path d="M48.6455 34.9924L11.9312 -4.22461" stroke="#2F97F7" stroke-width="0.7923" stroke-miterlimit="10"/>
<path d="M45.6172 34.9924L8.90286 -4.22461" stroke="#2F97F7" stroke-width="0.7923" stroke-miterlimit="10"/>
<path d="M42.5879 34.9924L5.87357 -4.22461" stroke="#2F97F7" stroke-width="0.7923" stroke-miterlimit="10"/>
<path d="M38.333 34.9924L1.61868 -4.22461" stroke="#2F97F7" stroke-width="0.7923" stroke-miterlimit="10"/>
<path d="M34.0781 34.9924L-2.6362 -4.22461" stroke="#2F97F7" stroke-width="0.7923" stroke-miterlimit="10"/>
<path d="M29.8232 34.9924L-6.89109 -4.22461" stroke="#2F97F7" stroke-width="0.7923" stroke-miterlimit="10"/>
<path d="M25.5684 34.9924L-11.146 -4.22461" stroke="#2F97F7" stroke-width="0.7923" stroke-miterlimit="10"/>
<path d="M21.3135 34.9924L-15.4008 -4.22461" stroke="#2F97F7" stroke-width="0.7923" stroke-miterlimit="10"/>
<path d="M17.0586 34.9924L-19.6557 -4.22461" stroke="#2F97F7" stroke-width="0.7923" stroke-miterlimit="10"/>
<path d="M12.8037 34.9924L-23.9106 -4.22461" stroke="#2F97F7" stroke-width="0.7923" stroke-miterlimit="10"/>
<path d="M8.54785 34.9924L-28.1665 -4.22461" stroke="#2F97F7" stroke-width="0.7923" stroke-miterlimit="10"/>
<path d="M4.29297 34.9924L-32.421 -4.22461" stroke="#2F97F7" stroke-width="0.7923" stroke-miterlimit="10"/>
</g>
<path d="M40.3637 12.496H37.5259V2.5127H40.3637C40.8096 2.5127 41.1709 2.87402 41.1709 3.3199V11.6884C41.1709 12.1343 40.8096 12.496 40.3637 12.496Z" fill="#E7E3F3"/>
<path d="M38.4375 4.30226C38.4375 3.7984 38.8457 3.39014 39.3496 3.39014C39.8535 3.39014 40.2617 3.79875 40.2617 4.30226C40.2617 4.80612 39.8535 5.21438 39.3496 5.21438C38.8457 5.21438 38.4375 4.80612 38.4375 4.30226Z" fill="#001D2F"/>
<path d="M38.4375 6.5923C38.4375 6.08844 38.8457 5.68018 39.3496 5.68018C39.8535 5.68018 40.2617 6.08844 40.2617 6.5923C40.2617 7.09616 39.8535 7.50442 39.3496 7.50442C38.8457 7.50442 38.4375 7.09581 38.4375 6.5923Z" fill="#001D2F"/>
</svg>
