<svg width="71" height="38" viewBox="0 0 71 38" fill="none" xmlns="http://www.w3.org/2000/svg">
<path d="M35.4087 32.2989L37.3597 32.1284L37.3204 31.6761L35.3732 31.8463L35.3501 31.5142L20.6311 32.5393L20.657 32.9109L19.1943 33.0073L19.2241 33.4604L20.6876 33.3639L20.7166 33.7658L35.4355 32.7407L35.4087 32.2989Z" fill="#231F20"/>
<path d="M69.2442 19.2947H69.2436L67.3942 10.7379C67.2813 10.2156 66.8192 9.84277 66.2849 9.84277H55.678L55.8979 10.6122H53.7309C52.4772 10.6122 51.4609 11.6284 51.4609 12.8821V24.9128H59.5493C60.0444 24.9128 60.4824 25.2338 60.6315 25.7058L61.2653 27.7116C61.4144 28.1837 61.8524 28.5046 62.3474 28.5046H69.9195V19.9973C69.9196 19.6197 69.6215 19.3096 69.2442 19.2947Z" fill="#FEFFFD"/>
<path d="M69.2447 19.2947H69.2441L67.3947 10.7379C67.2817 10.2156 66.8197 9.84277 66.2854 9.84277H65.1504C65.6848 9.84277 66.1468 10.2156 66.2597 10.7379L68.1091 19.2947H68.1097C68.487 19.3096 68.7851 19.6197 68.7851 19.9973V28.5046H69.9201V19.9973C69.9201 19.6197 69.6219 19.3096 69.2447 19.2947Z" fill="#A9C9CE"/>
<path d="M69.2439 30.4823V28.5044H62.3478C61.8528 28.5044 61.4148 28.1835 61.2656 27.7114L60.6319 25.7056C60.4827 25.2336 60.0447 24.9126 59.5497 24.9126H48.8613V32.4603H69.244C69.6173 32.4603 69.92 32.1576 69.92 31.7843V31.1583C69.9199 30.785 69.6173 30.4823 69.2439 30.4823Z" fill="#605973"/>
<path d="M48.8598 26.8989H5.44727V30.1903H48.8598V26.8989Z" fill="#231F20"/>
<path d="M46.3062 26.8988H0.793945V0H44.0363C45.29 0 46.3062 1.01625 46.3062 2.26994V26.8988Z" fill="#FFDE6E"/>
<path d="M52.1945 6.63965H48.0098V24.9127H51.4609V12.882C51.4609 11.6283 52.4771 10.612 53.7308 10.612H55.8978L55.4684 9.10911C55.0508 7.64739 53.7148 6.63965 52.1945 6.63965Z" fill="#FEFFFD"/>
<path d="M50.2129 12.8818V24.9124H51.4614V12.8818C51.4614 11.6281 52.4776 10.6118 53.7313 10.6118H52.4828C51.2291 10.6118 50.2129 11.6281 50.2129 12.8818Z" fill="#A9C9CE"/>
<path d="M66.6606 19.0108L69.2432 19.2945L67.7346 12.3145H65.8057L66.6606 19.0108Z" fill="#00ABFF"/>
<path d="M59.0566 17.7314L65.806 18.7671L64.9489 12.3145H59.0566V17.7314Z" fill="#00ABFF"/>
<path d="M59.0566 17.4593L62.1927 12.3145H61.8605L59.0566 16.9141V17.4593Z" fill="#83E4FF"/>
<path d="M59.4521 17.7922L59.9991 17.876L63.3894 12.3145H62.7912L59.4521 17.7922Z" fill="#83E4FF"/>
<path d="M60.3936 17.9366L61.3052 18.0766L64.8176 12.3145H63.8207L60.3936 17.9366Z" fill="#83E4FF"/>
<path d="M57.4295 12.3145H55.3866C55.1359 12.3145 54.9326 12.5177 54.9326 12.7684V15.1332C54.9326 16.2538 55.7506 17.2069 56.8583 17.3769L57.4295 17.4645V12.3145Z" fill="#0076DA"/>
<path d="M61.5158 20.4673H59.0566V21.2996H61.5158V20.4673Z" fill="#605973"/>
<path d="M61.1592 32.46C61.1592 29.4525 58.7125 27.0059 55.7051 27.0059C52.6976 27.0059 50.251 29.4525 50.251 32.46H61.1592Z" fill="#231F20"/>
<path d="M15.0721 37.0002C17.5794 37.0002 19.612 34.9676 19.612 32.4603C19.612 29.953 17.5794 27.9204 15.0721 27.9204C12.5648 27.9204 10.5322 29.953 10.5322 32.4603C10.5322 34.9676 12.5648 37.0002 15.0721 37.0002Z" fill="#675B73"/>
<path d="M15.7658 34.1604C16.705 33.7759 17.1545 32.7028 16.77 31.7636C16.3855 30.8245 15.3124 30.3748 14.3733 30.7593C13.4342 31.1439 12.9846 32.2169 13.3691 33.1561C13.7537 34.0953 14.8267 34.5449 15.7658 34.1604Z" fill="#9198A5"/>
<path d="M16.0316 32.6165C16.1179 32.0862 15.7579 31.5864 15.2277 31.5001C14.6974 31.4138 14.1976 31.7738 14.1113 32.304C14.025 32.8343 14.3849 33.3341 14.9152 33.4204C15.4455 33.5067 15.9453 33.1468 16.0316 32.6165Z" fill="#FEFFFD"/>
<path d="M69.2436 28.5044H66.0557V30.4823H69.2436V28.5044Z" fill="#FFA600"/>
<path d="M67.1812 28.5044H66.0557V30.4823H67.1812V28.5044Z" fill="#FE0002"/>
<path d="M44.0371 0V26.8988H46.307V2.26994C46.307 1.01625 45.2908 0 44.0371 0Z" fill="#FFA600"/>
<path d="M3.17738 0H0.793945V26.8988H3.17738V0Z" fill="#FFA600"/>
<path d="M44.0366 24.731H3.17773V26.8985H44.0366V24.731Z" fill="#FFA600"/>
<path d="M44.0366 0.0576172H3.17773V1.70264H44.0366V0.0576172Z" fill="#FFA600"/>
<path d="M47.2151 33.5953H37.3408V29.5031C37.3408 28.8763 37.8489 28.3682 38.4758 28.3682H46.0801C46.7069 28.3682 47.2151 28.8763 47.2151 29.5031V33.5953Z" fill="#605973"/>
<path d="M48.2365 33.5952H36.3193V35.0707H48.2365V33.5952Z" fill="#605973"/>
<path d="M0.794479 26.8989H0.453988C0.203273 26.8989 0 26.6956 0 26.4449V24.3641C0 24.1134 0.203273 23.9102 0.453988 23.9102H0.794479V26.8989Z" fill="#FE0002"/>
<path d="M70.6337 22.7749H69.9199V26.3963H70.6337V22.7749Z" fill="#FFA600"/>
<path d="M67.7014 28.5046H66.6611V24.2886L67.7014 24.9696V28.5046Z" fill="#231F20"/>
<path d="M63.8243 20.4673H63.2568V14.6411H63.8243C64.1377 14.6411 64.3918 14.8952 64.3918 15.2086V19.8998C64.3918 20.2132 64.1377 20.4673 63.8243 20.4673Z" fill="#605973"/>
<path d="M55.7049 37.0002C58.2122 37.0002 60.2448 34.9676 60.2448 32.4603C60.2448 29.953 58.2122 27.9204 55.7049 27.9204C53.1976 27.9204 51.165 29.953 51.165 32.4603C51.165 34.9676 53.1976 37.0002 55.7049 37.0002Z" fill="#675B73"/>
<path d="M56.3987 34.1619C57.3378 33.7774 57.7874 32.7043 57.4028 31.7651C57.0183 30.8259 55.9452 30.3763 55.0061 30.7608C54.067 31.1453 53.6174 32.2184 54.0019 33.1576C54.3865 34.0968 55.4595 34.5464 56.3987 34.1619Z" fill="#9198A5"/>
<path d="M56.6634 32.617C56.7497 32.0867 56.3898 31.5869 55.8595 31.5006C55.3292 31.4143 54.8294 31.7742 54.7431 32.3045C54.6569 32.8348 55.0168 33.3346 55.5471 33.4209C56.0773 33.5072 56.5771 33.1472 56.6634 32.617Z" fill="#FEFFFD"/>
<path d="M1.59202 4.31934H0V5.34081H1.59202V4.31934Z" fill="#9198A5"/>
<path d="M1.59202 18.5H0V19.5215H1.59202V18.5Z" fill="#9198A5"/>
<path d="M47.2151 33.595H37.3408V32.6396L47.2151 33.595Z" fill="#231F20"/>
<path d="M50.2232 22.9706H49.3373C49.0745 22.9706 48.8613 22.7574 48.8613 22.4946C48.8613 22.2317 49.0745 22.0186 49.3373 22.0186H50.2232C50.486 22.0186 50.6992 22.2317 50.6992 22.4946C50.6993 22.7574 50.4861 22.9706 50.2232 22.9706Z" fill="#FFA600"/>
<path d="M6.92313 1.14111H3.17773V2.44633H6.92313V1.14111Z" fill="#FEFFFD"/>
<path d="M51.4609 24.9126H59.5493C60.0444 24.9126 60.4824 25.2336 60.6315 25.7056L61.2653 27.7114C61.4144 28.1835 61.8524 28.5044 62.3474 28.5044H69.9195" stroke="#231F20" stroke-miterlimit="10"/>
<path d="M51.4609 24.9125V17.4644" stroke="#231F20" stroke-miterlimit="10"/>
<path d="M51.4609 15.8046V12.882C51.4609 11.6283 52.4772 10.6121 53.7309 10.6121H55.8979L55.5142 9.26953" stroke="#231F20" stroke-miterlimit="10"/>
<path d="M58.2627 11.4634V24.9128" stroke="#231F20" stroke-miterlimit="10"/>
<path d="M66.6611 20.1455V28.5042" stroke="#231F20" stroke-miterlimit="10"/>
<path d="M67.7014 28.5046H66.6611V24.2886L67.7014 24.9696V28.5046Z" stroke="#231F20" stroke-miterlimit="10"/>
<path d="M51.959 11.4634H67.496" stroke="#231F20" stroke-miterlimit="10"/>
<path d="M53.9023 29.0485C54.1714 28.9057 54.4594 28.7939 54.7614 28.7178" stroke="#FEFFFD" stroke-width="3" stroke-miterlimit="10" stroke-linecap="round" stroke-linejoin="round"/>
<path d="M51.8457 32.4602C51.8457 31.2687 52.3884 30.2016 53.2398 29.4932" stroke="#FEFFFD" stroke-width="3" stroke-miterlimit="10" stroke-linecap="round" stroke-linejoin="round"/>
<path d="M53.8672 32.4601C53.8672 31.4468 54.6915 30.6226 55.7047 30.6226" stroke="#231F20" stroke-miterlimit="10"/>
<path d="M56.6634 32.617C56.7497 32.0867 56.3898 31.5869 55.8595 31.5006C55.3292 31.4143 54.8294 31.7742 54.7431 32.3045C54.6569 32.8348 55.0168 33.3346 55.5471 33.4209C56.0773 33.5072 56.5771 33.1472 56.6634 32.617Z" stroke="#231F20" stroke-miterlimit="10"/>
<path d="M61.1592 32.46C61.1592 29.4525 58.7125 27.0059 55.7051 27.0059C52.6976 27.0059 50.251 29.4525 50.251 32.46" stroke="#231F20" stroke-miterlimit="10"/>
<path d="M13.9102 29.0186C14.275 28.8951 14.6658 28.8281 15.0718 28.8281" stroke="#FEFFFD" stroke-width="3" stroke-miterlimit="10" stroke-linecap="round" stroke-linejoin="round"/>
<path d="M11.4404 32.4598C11.4404 31.1273 12.1618 29.9601 13.2345 29.3281" stroke="#FEFFFD" stroke-width="3" stroke-miterlimit="10" stroke-linecap="round" stroke-linejoin="round"/>
<path d="M13.2354 32.4601C13.2354 31.4468 14.0597 30.6226 15.073 30.6226" stroke="#231F20" stroke-miterlimit="10"/>
<path d="M16.0316 32.616C16.1179 32.0857 15.7579 31.5859 15.2277 31.4996C14.6974 31.4133 14.1976 31.7733 14.1113 32.3035C14.025 32.8338 14.3849 33.3336 14.9152 33.4199C15.4455 33.5062 15.9453 33.1463 16.0316 32.616Z" stroke="#231F20" stroke-miterlimit="10"/>
<path d="M53.7311 10.6118H49.9961" stroke="#231F20" stroke-miterlimit="10"/>
<path d="M48.0098 7.83105L55.678 9.84233" stroke="#231F20" stroke-miterlimit="10"/>
<path d="M63.8232 28.5044V32.4601" stroke="#231F20" stroke-miterlimit="10"/>
<path d="M66.0557 28.5044V30.4822H69.2436" stroke="#231F20" stroke-miterlimit="10"/>
<path d="M67.1816 30.4822V28.5044" stroke="#231F20" stroke-miterlimit="10"/>
<path d="M61.3857 29.8496H63.8234" stroke="#231F20" stroke-miterlimit="10"/>
<path d="M61.9697 31.1357H63.8236" stroke="#231F20" stroke-miterlimit="10"/>
<path d="M44.0371 0V26.8988H46.307" stroke="#231F20" stroke-miterlimit="10"/>
<path d="M3.17773 0V26.8988" stroke="#231F20" stroke-miterlimit="10"/>
<path d="M3.17773 24.731H44.0366V26.8985" stroke="#231F20" stroke-miterlimit="10"/>
<path d="M13.0781 1.70264H44.0367" stroke="#231F20" stroke-miterlimit="10"/>
<path d="M6.92383 1.70264H11.7505" stroke="#231F20" stroke-miterlimit="10"/>
<path d="M45.3457 29.0488H46.0805C46.3309 29.0488 46.5345 29.2524 46.5345 29.5028" stroke="#FEFFFD" stroke-width="3" stroke-miterlimit="10" stroke-linecap="round" stroke-linejoin="round"/>
<path d="M37.3408 31.1357H47.2151" stroke="#231F20" stroke-miterlimit="10"/>
<path d="M39.7246 31.1357V33.5949" stroke="#231F20" stroke-miterlimit="10"/>
<path d="M44.7471 31.1357V33.5949" stroke="#231F20" stroke-miterlimit="10"/>
<path d="M9.55284 29.2759H8.98535V34.3328H9.55284V29.2759Z" fill="#231F20"/>
<path d="M0.793945 23.9102V26.8989" stroke="#231F20" stroke-miterlimit="10"/>
<path d="M70.6338 26.3961H69.9199V22.7749" stroke="#231F20" stroke-miterlimit="10"/>
<path d="M59.0566 20.4673V22.0184" stroke="#231F20" stroke-miterlimit="10"/>
<path d="M61.5156 20.4673V22.0184" stroke="#231F20" stroke-miterlimit="10"/>
<path d="M23.0048 26.8989H22.5508V30.9818H23.0048V26.8989Z" fill="#605973"/>
<path d="M33.2206 26.8989H32.7666V30.9818H33.2206V26.8989Z" fill="#605973"/>
<path d="M0 4.31934H1.59202V5.34081" stroke="#231F20" stroke-miterlimit="10"/>
<path d="M0 18.5H1.59202V19.5215" stroke="#231F20" stroke-miterlimit="10"/>
<path d="M6.92313 1.14111H3.17773V2.44633H6.92313V1.14111Z" stroke="#231F20" stroke-miterlimit="10"/>
<path d="M51.165 26.0728V29.4933" stroke="#231F20" stroke-miterlimit="10"/>
<path d="M63.8232 14.6413V11.4634" stroke="#231F20" stroke-miterlimit="10"/>
<path d="M50.2232 22.9706H49.3373C49.0745 22.9706 48.8613 22.7574 48.8613 22.4946C48.8613 22.2317 49.0745 22.0186 49.3373 22.0186H50.2232C50.486 22.0186 50.6992 22.2317 50.6992 22.4946C50.6993 22.7574 50.4861 22.9706 50.2232 22.9706Z" stroke="#231F20" stroke-miterlimit="10"/>
<circle cx="42.9622" cy="2.67318" r="0.170245" fill="#231F20"/>
<path d="M42.9619 3.98926V5.30503" stroke="#231F20" stroke-width="3" stroke-linecap="round" stroke-linejoin="round"/>
<path d="M42.9619 5.30469V23.7267" stroke="#231F20" stroke-width="3" stroke-linecap="round" stroke-linejoin="round"/>
<circle cx="42.9622" cy="23.7269" r="0.170245" fill="#231F20"/>
<circle cx="4.37239" cy="3.35433" r="0.170245" fill="#231F20"/>
<path d="M4.37207 4.80957V6.26483" stroke="#231F20" stroke-width="3" stroke-linecap="round" stroke-linejoin="round"/>
<path d="M4.37207 6.26465V23.7269" stroke="#231F20" stroke-width="3" stroke-linecap="round" stroke-linejoin="round"/>
<circle cx="4.37239" cy="23.7269" r="0.170245" fill="#231F20"/>
<path d="M37.1553 25.8149H44.0377" stroke="#231F20" stroke-miterlimit="10"/>
<path d="M33.6748 25.8149H35.869" stroke="#231F20" stroke-miterlimit="10"/>
<path d="M51.4609 23.9102H58.2624" stroke="#231F20" stroke-miterlimit="10"/>
<path d="M5.07227 37H8.32577" stroke="#231F20" stroke-miterlimit="10" stroke-linecap="round" stroke-linejoin="round"/>
<path d="M0.793945 37H3.17738" stroke="#231F20" stroke-miterlimit="10" stroke-linecap="round" stroke-linejoin="round"/>
</svg>
