<svg width="67" height="35" viewBox="0 0 67 35" fill="none" xmlns="http://www.w3.org/2000/svg">
<path d="M63.1593 23.5884H5.14355V31.1185H63.1593V23.5884Z" fill="#21242A"/>
<path d="M45.8744 2.31006H43.6602V24.0448H45.8744V2.31006Z" fill="#131519"/>
<path d="M38.5154 27.9766C38.5154 29.6738 37.1397 31.0496 35.4427 31.0496H-14.0315C-15.7287 31.0496 -17.1045 29.6738 -17.1045 27.9766V19.987C-17.1045 18.2898 -15.7287 16.9141 -14.0315 16.9141H35.4427C37.1397 16.9141 38.5154 18.2898 38.5154 19.987V27.9766Z" fill="#21242A"/>
<path d="M58.7916 30.2664C58.7916 32.8807 56.672 34.9999 54.0579 34.9999C51.4438 34.9999 49.3242 32.8807 49.3242 30.2664C49.3242 27.6519 51.4438 25.5327 54.0579 25.5327C56.672 25.5327 58.7916 27.6517 58.7916 30.2664Z" fill="#131519"/>
<path opacity="0.2" d="M57.9436 30.2662C57.9436 32.4121 56.2041 34.1521 54.0582 34.1521C51.9123 34.1521 50.1729 32.4121 50.1729 30.2662C50.1729 28.1205 51.9123 26.3809 54.0582 26.3809C56.2041 26.3809 57.9436 28.1205 57.9436 30.2662Z" fill="#A5AFD3"/>
<path d="M56.3287 30.2668C56.3287 31.5207 55.3116 32.5376 54.0573 32.5376C52.8032 32.5376 51.7861 31.5209 51.7861 30.2668C51.7861 29.0125 52.8032 27.9956 54.0573 27.9956C55.3116 27.9956 56.3287 29.0125 56.3287 30.2668Z" fill="#4C7E92"/>
<path d="M52.7031 30.5812C52.7031 30.7171 52.5931 30.8275 52.457 30.8275C52.321 30.8275 52.2109 30.7171 52.2109 30.5812C52.2109 30.4452 52.321 30.335 52.457 30.335C52.5931 30.335 52.7031 30.4452 52.7031 30.5812Z" fill="#9AC9DF"/>
<path d="M53.4966 31.6758C53.4966 31.8114 53.3861 31.9219 53.2502 31.9219C53.1145 31.9219 53.0039 31.8114 53.0039 31.6758C53.0039 31.5396 53.1145 31.4292 53.2502 31.4292C53.3861 31.4292 53.4966 31.5396 53.4966 31.6758Z" fill="#9AC9DF"/>
<path d="M55.0021 31.7305C55.0021 31.8665 54.8917 31.9771 54.7559 31.9771C54.6198 31.9771 54.5098 31.8664 54.5098 31.7305C54.5098 31.5942 54.6198 31.4844 54.7559 31.4844C54.8919 31.4844 55.0021 31.5942 55.0021 31.7305Z" fill="#9AC9DF"/>
<path d="M55.9592 30.6356C55.9592 30.772 55.8495 30.882 55.7131 30.882C55.5767 30.882 55.4668 30.7718 55.4668 30.6356C55.4668 30.4997 55.5768 30.3896 55.7131 30.3896C55.8495 30.3896 55.9592 30.4997 55.9592 30.6356Z" fill="#9AC9DF"/>
<path d="M55.6314 29.2953C55.6314 29.4312 55.521 29.5414 55.3849 29.5414C55.2489 29.5414 55.1387 29.431 55.1387 29.2953C55.1387 29.159 55.2491 29.0488 55.3849 29.0488C55.521 29.0488 55.6314 29.159 55.6314 29.2953Z" fill="#9AC9DF"/>
<path d="M54.482 28.7202C54.482 28.8564 54.3718 28.9665 54.2357 28.9665C54.0996 28.9665 53.9893 28.8564 53.9893 28.7202C53.9893 28.5847 54.0996 28.4746 54.2357 28.4746C54.3718 28.4746 54.482 28.5847 54.482 28.7202Z" fill="#9AC9DF"/>
<path d="M53.1135 29.0763C53.1135 29.2129 53.0031 29.3228 52.8672 29.3228C52.7311 29.3228 52.6211 29.2127 52.6211 29.0763C52.6211 28.9403 52.731 28.8301 52.8672 28.8301C53.0031 28.8301 53.1135 28.9403 53.1135 29.0763Z" fill="#9AC9DF"/>
<path d="M54.8646 30.171C54.8646 30.5944 54.5213 30.9374 54.0984 30.9374C53.6752 30.9374 53.332 30.5944 53.332 30.171C53.332 29.7474 53.6753 29.4043 54.0984 29.4043C54.5213 29.4043 54.8646 29.7474 54.8646 30.171Z" fill="#131519"/>
<path opacity="0.3" d="M51.0033 29.8108C51.5418 29.5832 52.1554 29.4513 52.7424 29.4788C53.4949 29.5144 54.1014 29.8339 54.8094 30.0438C56.0684 30.4173 57.5375 29.9734 58.7017 29.3465C58.2735 27.1729 56.3573 25.5327 54.0579 25.5327C51.4438 25.5327 49.3242 27.6519 49.3242 30.2664C49.3242 30.508 49.3425 30.7452 49.3773 30.9773C49.8077 30.469 50.3801 30.0747 51.0033 29.8108Z" fill="#2F3C4F"/>
<path d="M4.66952 30.2664C4.66952 32.8807 2.54997 34.9999 -0.0643382 34.9999C-2.67848 34.9999 -4.79785 32.8807 -4.79785 30.2664C-4.79785 27.6519 -2.67848 25.5327 -0.0643382 25.5327C2.54997 25.5327 4.66952 27.6517 4.66952 30.2664Z" fill="#131519"/>
<path opacity="0.2" d="M3.82166 30.2662C3.82166 32.4121 2.08204 34.1521 -0.0638661 34.1521C-2.2096 34.1521 -3.94922 32.4121 -3.94922 30.2662C-3.94922 28.1205 -2.2096 26.3809 -0.0638661 26.3809C2.08204 26.3809 3.82166 28.1205 3.82166 30.2662Z" fill="#A5AFD3"/>
<path d="M2.2074 30.2668C2.2074 31.5207 1.19032 32.5376 -0.0639527 32.5376C-1.31805 32.5376 -2.33496 31.5209 -2.33496 30.2668C-2.33496 29.0125 -1.31805 27.9956 -0.0639527 27.9956C1.19015 27.9956 2.2074 29.0125 2.2074 30.2668Z" fill="#4C7E92"/>
<path d="M0.880057 31.7305C0.880057 31.8665 0.769674 31.9771 0.63379 31.9771C0.497564 31.9771 0.387695 31.8664 0.387695 31.7305C0.387695 31.5942 0.497735 31.4844 0.63379 31.4844C0.769674 31.4844 0.880057 31.5942 0.880057 31.7305Z" fill="#9AC9DF"/>
<path d="M1.83709 30.6356C1.83709 30.772 1.72722 30.882 1.59099 30.882C1.45477 30.882 1.34473 30.7718 1.34473 30.6356C1.34473 30.4997 1.45477 30.3896 1.59099 30.3896C1.72722 30.3896 1.83709 30.4997 1.83709 30.6356Z" fill="#9AC9DF"/>
<path d="M1.50914 29.2953C1.50914 29.4312 1.39892 29.5414 1.26304 29.5414C1.12682 29.5414 1.0166 29.431 1.0166 29.2953C1.0166 29.159 1.12682 29.0488 1.26304 29.0488C1.39892 29.0488 1.50914 29.159 1.50914 29.2953Z" fill="#9AC9DF"/>
<path d="M0.359555 28.7202C0.359555 28.8564 0.249342 28.9665 0.113288 28.9665C-0.0224251 28.9665 -0.132812 28.8564 -0.132812 28.7202C-0.132812 28.5847 -0.0224251 28.4746 0.113288 28.4746C0.249342 28.4746 0.359555 28.5847 0.359555 28.7202Z" fill="#9AC9DF"/>
<path d="M0.743311 30.171C0.743311 30.5944 0.400176 30.9374 -0.0228782 30.9374C-0.445932 30.9374 -0.789062 30.5944 -0.789062 30.171C-0.789062 29.7474 -0.445932 29.4043 -0.0228782 29.4043C0.400176 29.4043 0.743311 29.7474 0.743311 30.171Z" fill="#131519"/>
<path opacity="0.3" d="M-3.11881 29.8108C-2.58041 29.5832 -1.96671 29.4513 -1.37971 29.4788C-0.627384 29.5144 -0.0206943 29.8339 0.687134 30.0438C1.94637 30.4173 3.41542 29.9734 4.57967 29.3465C4.15149 27.1729 2.23525 25.5327 -0.0643382 25.5327C-2.67848 25.5327 -4.79785 27.6519 -4.79785 30.2664C-4.79785 30.508 -4.77937 30.7452 -4.74463 30.9773C-4.31439 30.469 -3.74176 30.0747 -3.11881 29.8108Z" fill="#2F3C4F"/>
<path d="M34.5826 30.2664C34.5826 32.8807 32.4631 34.9999 29.8486 34.9999C27.2344 34.9999 25.1152 32.8807 25.1152 30.2664C25.1152 27.6519 27.2344 25.5327 29.8486 25.5327C32.4631 25.5327 34.5826 27.6517 34.5826 30.2664Z" fill="#131519"/>
<path opacity="0.2" d="M33.7346 30.2662C33.7346 32.4121 31.9948 34.1521 29.8489 34.1521C27.7033 34.1521 25.9639 32.4121 25.9639 30.2662C25.9639 28.1205 27.7033 26.3809 29.8489 26.3809C31.9948 26.3809 33.7346 28.1205 33.7346 30.2662Z" fill="#A5AFD3"/>
<path d="M32.1197 30.2668C32.1197 31.5207 31.1026 32.5376 29.8482 32.5376C28.5941 32.5376 27.5771 31.5209 27.5771 30.2668C27.5771 29.0125 28.5939 27.9956 29.8482 27.9956C31.1026 27.9956 32.1197 29.0125 32.1197 30.2668Z" fill="#4C7E92"/>
<path d="M28.4943 30.5812C28.4943 30.7171 28.3839 30.8275 28.2482 30.8275C28.1122 30.8275 28.002 30.7171 28.002 30.5812C28.002 30.4452 28.1123 30.335 28.2482 30.335C28.3839 30.335 28.4943 30.4452 28.4943 30.5812Z" fill="#9AC9DF"/>
<path d="M29.2883 31.6758C29.2883 31.8114 29.1779 31.9219 29.0422 31.9219C28.9065 31.9219 28.7959 31.8114 28.7959 31.6758C28.7959 31.5396 28.9065 31.4292 29.0422 31.4292C29.178 31.4292 29.2883 31.5396 29.2883 31.6758Z" fill="#9AC9DF"/>
<path d="M30.7931 31.7305C30.7931 31.8665 30.6828 31.9771 30.5469 31.9771C30.4108 31.9771 30.3008 31.8664 30.3008 31.7305C30.3008 31.5942 30.4108 31.4844 30.5469 31.4844C30.6829 31.4844 30.7931 31.5942 30.7931 31.7305Z" fill="#9AC9DF"/>
<path d="M31.7503 30.6356C31.7503 30.772 31.6403 30.882 31.5043 30.882C31.3679 30.882 31.2578 30.7718 31.2578 30.6356C31.2578 30.4997 31.3679 30.3896 31.5043 30.3896C31.6403 30.3896 31.7503 30.4997 31.7503 30.6356Z" fill="#9AC9DF"/>
<path d="M31.4224 29.2953C31.4224 29.4312 31.312 29.5414 31.1761 29.5414C31.0397 29.5414 30.9297 29.431 30.9297 29.2953C30.9297 29.159 31.0397 29.0488 31.1761 29.0488C31.312 29.0488 31.4224 29.159 31.4224 29.2953Z" fill="#9AC9DF"/>
<path d="M30.2726 28.7202C30.2726 28.8564 30.1626 28.9665 30.0264 28.9665C29.8907 28.9665 29.7803 28.8564 29.7803 28.7202C29.7803 28.5847 29.8907 28.4746 30.0264 28.4746C30.1626 28.4746 30.2726 28.5847 30.2726 28.7202Z" fill="#9AC9DF"/>
<path d="M28.9048 29.0763C28.9048 29.2129 28.7941 29.3228 28.6585 29.3228C28.5225 29.3228 28.4121 29.2127 28.4121 29.0763C28.4121 28.9403 28.5225 28.8301 28.6585 28.8301C28.7941 28.8301 28.9048 28.9403 28.9048 29.0763Z" fill="#9AC9DF"/>
<path d="M30.6556 30.171C30.6556 30.5944 30.3123 30.9374 29.8894 30.9374C29.4662 30.9374 29.123 30.5944 29.123 30.171C29.123 29.7474 29.4663 29.4043 29.8894 29.4043C30.3123 29.4043 30.6556 29.7474 30.6556 30.171Z" fill="#131519"/>
<path opacity="0.3" d="M26.7943 29.8108C27.3325 29.5832 27.9465 29.4513 28.5334 29.4788C29.2859 29.5144 29.8924 29.8339 30.6 30.0438C31.8594 30.4173 33.3285 29.9734 34.4928 29.3465C34.0646 27.1729 32.1483 25.5327 29.8486 25.5327C27.2344 25.5327 25.1152 27.6519 25.1152 30.2664C25.1152 30.508 25.1335 30.7452 25.1683 30.9773C25.5987 30.469 26.1712 30.0747 26.7943 29.8108Z" fill="#2F3C4F"/>
<path d="M43.7633 30.2664C43.7633 32.8807 41.6437 34.9999 39.0296 34.9999C36.4154 34.9999 34.2959 32.8807 34.2959 30.2664C34.2959 27.6519 36.4154 25.5327 39.0296 25.5327C41.6439 25.5327 43.7633 27.6517 43.7633 30.2664Z" fill="#131519"/>
<path opacity="0.2" d="M42.9152 30.2662C42.9152 32.4121 41.1758 34.1521 39.0299 34.1521C36.884 34.1521 35.1445 32.4121 35.1445 30.2662C35.1445 28.1205 36.884 26.3809 39.0299 26.3809C41.1758 26.3809 42.9152 28.1205 42.9152 30.2662Z" fill="#A5AFD3"/>
<path d="M41.3013 30.2668C41.3013 31.5207 40.2842 32.5376 39.03 32.5376C37.7759 32.5376 36.7588 31.5209 36.7588 30.2668C36.7588 29.0125 37.7759 27.9956 39.03 27.9956C40.2841 27.9956 41.3013 29.0125 41.3013 30.2668Z" fill="#4C7E92"/>
<path d="M37.4287 30.8276C37.5646 30.8276 37.6748 30.7175 37.6748 30.5815C37.6748 30.4456 37.5646 30.3354 37.4287 30.3354C37.2928 30.3354 37.1826 30.4456 37.1826 30.5815C37.1826 30.7175 37.2928 30.8276 37.4287 30.8276Z" fill="#9AC9DF"/>
<path d="M38.4683 31.6758C38.4683 31.8114 38.3577 31.9219 38.2219 31.9219C38.0861 31.9219 37.9756 31.8114 37.9756 31.6758C37.9756 31.5396 38.0861 31.4292 38.2219 31.4292C38.3576 31.4292 38.4683 31.5396 38.4683 31.6758Z" fill="#9AC9DF"/>
<path d="M39.974 31.7305C39.974 31.8665 39.8636 31.9771 39.7275 31.9771C39.5915 31.9771 39.4814 31.8664 39.4814 31.7305C39.4814 31.5942 39.5915 31.4844 39.7275 31.4844C39.8636 31.4844 39.974 31.5942 39.974 31.7305Z" fill="#9AC9DF"/>
<path d="M40.931 30.6356C40.931 30.772 40.8213 30.882 40.6849 30.882C40.5485 30.882 40.4385 30.7718 40.4385 30.6356C40.4385 30.4997 40.5485 30.3896 40.6849 30.3896C40.8213 30.3896 40.931 30.4997 40.931 30.6356Z" fill="#9AC9DF"/>
<path d="M40.6031 29.2953C40.6031 29.4312 40.4928 29.5414 40.3566 29.5414C40.2206 29.5414 40.1104 29.431 40.1104 29.2953C40.1104 29.159 40.2207 29.0488 40.3566 29.0488C40.4928 29.0488 40.6031 29.159 40.6031 29.2953Z" fill="#9AC9DF"/>
<path d="M39.4536 28.7202C39.4536 28.8564 39.3434 28.9665 39.2074 28.9665C39.0713 28.9665 38.9609 28.8564 38.9609 28.7202C38.9609 28.5847 39.0713 28.4746 39.2074 28.4746C39.3434 28.4746 39.4536 28.5847 39.4536 28.7202Z" fill="#9AC9DF"/>
<path d="M38.0853 29.0763C38.0853 29.2129 37.9751 29.3228 37.8389 29.3228C37.7028 29.3228 37.5928 29.2127 37.5928 29.0763C37.5928 28.9403 37.7028 28.8301 37.8389 28.8301C37.9749 28.8301 38.0853 28.9403 38.0853 29.0763Z" fill="#9AC9DF"/>
<path d="M39.8364 30.171C39.8364 30.5944 39.4931 30.9374 39.0702 30.9374C38.647 30.9374 38.3037 30.5944 38.3037 30.171C38.3037 29.7474 38.647 29.4043 39.0702 29.4043C39.4931 29.4043 39.8364 29.7474 39.8364 30.171Z" fill="#131519"/>
<path opacity="0.3" d="M35.9749 29.8108C36.5133 29.5832 37.127 29.4513 37.714 29.4788C38.4665 29.5144 39.073 29.8339 39.781 30.0438C41.0401 30.4173 42.5092 29.9734 43.6734 29.3465C43.2452 27.1729 41.329 25.5327 39.0296 25.5327C36.4154 25.5327 34.2959 27.6519 34.2959 30.2664C34.2959 30.508 34.3142 30.7452 34.349 30.9773C34.7792 30.469 35.3518 30.0747 35.9749 29.8108Z" fill="#2F3C4F"/>
<path d="M44.0481 0H-18V28.2221H44.0481V0Z" fill="white"/>
<path d="M43.1158 1.146H-17.0684V27.0755H43.1158V1.146Z" fill="#E7EDF0"/>
<path opacity="0.3" d="M41.1938 25.7938C39.09 24.5728 36.8171 23.5461 34.5475 22.6753C29.6252 20.787 24.4036 19.7189 19.1366 19.4958C13.9142 19.2747 8.71996 20.1074 3.50092 19.9229C0.98074 19.8338 -1.5593 19.5038 -3.94171 18.6444C-6.00444 17.9001 -7.98828 16.9571 -9.82459 15.7537C-12.5951 13.9382 -14.9724 11.6431 -17.0684 9.10254V27.0755H43.0782C42.4845 26.6081 41.8575 26.1789 41.1938 25.7938Z" fill="#E7EDF0"/>
<path d="M3.86035 1.17578V27.077" stroke="#6B9BB1" stroke-width="0.5" stroke-miterlimit="10"/>
<path d="M9.80469 1.17578V27.077" stroke="#6B9BB1" stroke-width="0.5" stroke-miterlimit="10"/>
<path d="M15.748 1.17578V27.077" stroke="#6B9BB1" stroke-width="0.5" stroke-miterlimit="10"/>
<path d="M21.6924 1.17578V27.077" stroke="#6B9BB1" stroke-width="0.5" stroke-miterlimit="10"/>
<path d="M27.6367 1.17578V27.077" stroke="#6B9BB1" stroke-width="0.5" stroke-miterlimit="10"/>
<path d="M33.5801 1.17578V27.077" stroke="#6B9BB1" stroke-width="0.5" stroke-miterlimit="10"/>
<path d="M39.5254 1.17578V27.077" stroke="#6B9BB1" stroke-width="0.5" stroke-miterlimit="10"/>
<path d="M2.58008 1.17578V27.077" stroke="#9AC9DF" stroke-width="0.5" stroke-miterlimit="10"/>
<path d="M8.5 1.17578V27.077" stroke="#9AC9DF" stroke-width="0.5" stroke-miterlimit="10"/>
<path d="M14.4199 1.17578V27.077" stroke="#9AC9DF" stroke-width="0.5" stroke-miterlimit="10"/>
<path d="M20.3398 1.17578V27.077" stroke="#9AC9DF" stroke-width="0.5" stroke-miterlimit="10"/>
<path d="M26.2598 1.17578V27.077" stroke="#9AC9DF" stroke-width="0.5" stroke-miterlimit="10"/>
<path d="M32.1797 1.17578V27.077" stroke="#9AC9DF" stroke-width="0.5" stroke-miterlimit="10"/>
<path d="M38.0996 1.17578V27.077" stroke="#9AC9DF" stroke-width="0.5" stroke-miterlimit="10"/>
<path d="M43.116 26.2861H-17.3145V27.0501H43.116V26.2861Z" fill="#9AC9DF"/>
<path d="M17.3599 26.2861H14.4375V27.0501H17.3599V26.2861Z" fill="#FC4125"/>
<path d="M8.30878 26.2861H5.38574V27.0501H8.30878V26.2861Z" fill="#FC4125"/>
<path d="M12.8345 26.2861H9.91211V27.0501H12.8345V26.2861Z" fill="#FC4125"/>
<path d="M3.78254 26.2861H0.860352V27.0501H3.78254V26.2861Z" fill="#FC4125"/>
<path d="M39.9893 26.2861H37.0684V27.0501H39.9893V26.2861Z" fill="#FC4125"/>
<path d="M43.1157 26.2861H41.5928V27.0501H43.1157V26.2861Z" fill="#FC4125"/>
<path d="M30.938 26.2861H28.0156V27.0501H30.938V26.2861Z" fill="#FC4125"/>
<path d="M26.4116 26.2861H23.4893V27.0501H26.4116V26.2861Z" fill="#FC4125"/>
<path d="M35.4634 26.2861H32.541V27.0501H35.4634V26.2861Z" fill="#FC4125"/>
<path d="M21.8855 26.2861H18.9639V27.0501H21.8855V26.2861Z" fill="#FC4125"/>
<path d="M65.8985 22.3052H45.6758V18.4435L65.836 18.2847L65.8985 22.3052Z" fill="#21242A"/>
<path d="M63.5832 20.8069H45.6992V26.7231H57.4222C58.8873 26.7231 60.0748 27.9307 60.0748 29.4204V31.1949H63.5832C65.0483 31.1949 66.2358 29.9874 66.2358 28.4976V23.504C66.2358 22.0144 65.6979 20.7451 63.5832 20.8069Z" fill="#298CCE"/>
<path d="M63.3232 31.1951C63.3961 30.5237 63.4663 29.852 63.4957 29.1801C63.5522 27.8982 63.3523 26.6387 62.4934 25.6356C61.7984 24.8241 60.8718 24.2523 59.8744 23.8847C57.4995 23.0092 54.8399 22.8471 52.3349 22.6903C51.1032 22.6133 49.8702 22.564 48.638 22.4925C47.6216 22.4335 46.579 22.3113 45.6992 21.7646V26.7234H57.4222C58.8873 26.7234 60.0748 27.9309 60.0748 29.4207V31.1952L63.3232 31.1951Z" fill="#0072BF"/>
<path d="M62.7314 20.7363V31.1188" stroke="#21242A" stroke-width="0.5" stroke-miterlimit="10"/>
<path d="M66.2356 27.0972H64.5283V28.0983H66.2356V27.0972Z" fill="#FF5A19"/>
<path d="M66.2356 23.7598H64.6953V25.5567H66.2356V23.7598Z" fill="#9AC9DF"/>
<path d="M66.2354 23.9736H64.8877V25.3855H66.2354V23.9736Z" fill="#D3F1FD"/>
<path d="M45.7031 24.958H56.6724" stroke="#21242A" stroke-width="0.5" stroke-miterlimit="10"/>
<path d="M58.3165 4.25006C57.9093 3.0805 57.4053 1.88613 56.9274 1.43056C56.6315 1.1528 56.5794 0.86443 55.0024 0.698084C52.3147 0.425803 48.9821 0.223002 44.1348 0.273317V4.25006H58.3165Z" fill="#0072BF"/>
<path d="M45.7033 20.3088L65.0703 20.3087C65.0703 20.3087 65.8215 20.3484 65.9404 20.2231C66.073 20.0834 66.175 19.863 66.1256 19.5385C65.5894 16.0028 64.5475 8.94712 63.4481 5.98301C63.413 5.88803 63.3324 5.76139 63.2973 5.6753C62.9782 4.8944 62.6128 3.85028 60.4701 3.40858C56.818 2.68637 52.2899 2.14814 45.7031 2.28163L45.7033 20.3088Z" fill="#298CCE"/>
<path d="M65.8119 17.1712C65.5735 17.0607 50.2383 20.2517 49.5965 12.9783C49.5009 11.8938 49.486 3.29431 49.4254 2.28219C47.7684 2.21203 47.7084 2.24112 45.7031 2.28168V20.3089L65.0702 20.3087C65.0702 20.3087 65.8213 20.3484 65.9402 20.2231C66.0729 20.0835 66.1749 19.8631 66.1254 19.5386C66.009 18.7714 65.9673 18.1909 65.8119 17.1712Z" fill="#0072BF"/>
<path d="M53.6713 14.5183C53.6713 14.6288 53.5818 14.7187 53.4711 14.7187H51.9125C51.8019 14.7187 51.7119 14.629 51.7119 14.5183C51.7119 14.4075 51.8018 14.3179 51.9125 14.3179H53.4711C53.5816 14.3179 53.6713 14.4075 53.6713 14.5183Z" fill="#21242A"/>
<path d="M59.6228 6.64603L51.5121 6.27295C51.5121 6.27295 50.6956 6.2697 50.5189 7.13343C50.3425 7.99717 50.5042 20.39 50.5042 20.39" stroke="#21242A" stroke-width="0.5" stroke-miterlimit="10"/>
<path d="M60.2793 14.8608L60.3361 20.3373" stroke="#21242A" stroke-width="0.5" stroke-miterlimit="10"/>
<path d="M60.3423 12.9242C60.0301 11.2908 59.3245 9.4136 58.7652 8.27553C58.685 8.11158 58.5282 7.79908 58.0225 7.60895C57.8801 7.55521 57.7113 7.51089 57.507 7.48299C57.3653 7.46365 57.2079 7.45167 57.0318 7.44962L57.0244 7.44808C56.7429 7.43336 56.4465 7.41881 56.1406 7.40444C54.5188 7.3276 52.6554 7.2535 51.5156 7.21533V13.5115C53.7772 13.5115 55.8596 13.5108 59.1917 13.497C59.2899 13.4964 59.3793 13.5115 59.4645 13.5115C59.8215 13.5115 60.028 13.4311 60.1364 13.3624C60.3082 13.2575 60.3784 13.1097 60.3423 12.9242Z" fill="#21242A"/>
<path d="M59.8297 12.7314C59.5469 11.2514 58.9074 9.55079 58.401 8.51968C58.3278 8.37096 58.186 8.0879 57.7277 7.91573C57.5987 7.8673 57.446 7.82709 57.2607 7.80159C57.1323 7.78396 56.9896 7.77318 56.8301 7.77129L56.8231 7.76975C56.5685 7.75658 56.2996 7.7434 56.0225 7.73039C54.5531 7.66091 52.8649 7.59365 51.832 7.55908V13.2638C53.8814 13.2638 55.7679 13.2631 58.7873 13.2508C58.8761 13.2503 58.9567 13.2638 59.0342 13.2638C59.3575 13.2638 59.5445 13.1911 59.643 13.1288C59.799 13.0336 59.8624 12.8995 59.8297 12.7314Z" fill="#D3F1FD"/>
<path opacity="0.4" d="M53.3873 9.7098C53.8666 9.04835 54.3262 8.38211 54.6669 7.66898C53.601 7.62311 52.5564 7.5829 51.833 7.55859V12.5233C52.1385 11.4968 52.7455 10.5953 53.3873 9.7098Z" fill="#9AC9DF"/>
<path opacity="0.4" d="M58.4984 8.72099C58.4657 8.65134 58.4335 8.58391 58.4019 8.51939C58.3286 8.37067 58.1869 8.08761 57.7286 7.91544C57.5996 7.86701 57.4469 7.82679 57.2616 7.80129C57.2599 7.80112 57.2582 7.80112 57.257 7.80078C56.2224 9.60886 54.4215 11.1611 54.209 13.2625C54.9745 13.2616 55.7847 13.2603 56.6992 13.2577C56.9582 11.6622 57.6988 10.1514 58.4984 8.72099Z" fill="#9AC9DF"/>
<path opacity="0.4" d="M59.5232 11.4678C59.1932 12.046 58.8677 12.6257 58.6504 13.2507C58.6964 13.2505 58.7409 13.2503 58.7882 13.2502C58.877 13.2497 58.9576 13.2632 59.0351 13.2632C59.3584 13.2632 59.5454 13.1905 59.6438 13.1282C59.7996 13.0332 59.8631 12.899 59.8304 12.7309C59.7518 12.3204 59.6462 11.8931 59.5232 11.4678Z" fill="#9AC9DF"/>
<path d="M61.6861 10.5688H60.6797V14.7142H61.6861V10.5688Z" fill="#313B4C"/>
<path d="M61.6851 10.5688H59.2705V10.7669H61.6851V10.5688Z" fill="#21242A"/>
<path d="M61.6851 14.6152H59.2705V14.8134H61.6851V14.6152Z" fill="#21242A"/>
<path d="M59.7222 14.1168V10.4209C59.7222 9.87221 59.2773 9.42725 58.7284 9.42725H58.6028C58.054 9.42725 57.6094 9.87221 57.6094 10.4209V14.1168C57.6094 14.6654 58.054 15.1104 58.6028 15.1104H58.7284C59.2773 15.1102 59.7222 14.6654 59.7222 14.1168Z" fill="#131519"/>
<path d="M58.5339 9.43652C58.6218 9.5197 58.6944 9.61759 58.7408 9.73019C58.8056 9.88781 58.8246 10.059 58.8358 10.227C58.8477 10.4101 58.8498 10.5958 58.8438 10.7796C58.8371 10.9778 58.7967 11.1732 58.7699 11.3694C58.7471 11.534 58.724 11.6981 58.6976 11.8622C58.6846 11.943 58.672 12.0236 58.6612 12.1044C58.6496 12.1895 58.6492 12.2743 58.6422 12.3597C58.6282 12.5273 58.6001 12.6936 58.5951 12.862C58.5898 13.0349 58.5938 13.2082 58.5934 13.3813C58.5927 13.7237 58.5857 14.0668 58.6015 14.4091C58.6092 14.5765 58.6162 14.7509 58.6566 14.9138C58.6727 14.9787 58.687 15.0439 58.7021 15.1087C58.6898 15.1091 58.678 15.1106 58.6656 15.1106C58.0824 15.1106 57.6094 14.6449 57.6094 14.0711V10.4675C57.6092 9.93727 58.0128 9.50087 58.5339 9.43652Z" fill="#313B4C"/>
<path d="M58.8405 10.167C58.9521 10.596 58.8458 11.0463 58.7646 11.4817C58.5844 12.4474 58.5273 13.4349 58.5949 14.414" stroke="#6B9BB1" stroke-width="0.5" stroke-miterlimit="10"/>
<path d="M61.79 5.59082C61.79 5.59082 63.8437 16.2016 63.9577 16.5153C64.072 16.829 64.2144 16.8575 64.4711 16.8575C64.7278 16.8575 65.7168 16.8187 65.7168 16.8187" stroke="#21242A" stroke-width="0.5" stroke-miterlimit="10"/>
<path d="M63.5122 6.1543C63.5122 6.1543 62.874 6.41819 62.874 6.76047C62.874 7.10275 64.1004 13.3209 64.3571 14.3191C64.6138 15.3174 64.671 15.9162 65.0417 15.9734C65.4127 16.0305 65.5825 15.8832 65.5825 15.8832C65.5825 15.8832 65.4692 14.1478 64.9845 11.5808C64.6032 9.56269 63.5122 6.1543 63.5122 6.1543Z" fill="#D3F1FD"/>
<path d="M65.1711 15.8594C64.7927 15.8033 64.7345 15.2146 64.4729 14.2338C64.2108 13.2527 62.9596 7.14183 62.9596 6.80555C62.9596 6.56955 63.3132 6.33799 63.5443 6.2182C63.5148 6.12955 63.4801 6.08984 63.4801 6.08984C63.4801 6.08984 62.7598 6.41792 62.7598 6.76019C62.7598 7.10247 63.9865 13.3206 64.2432 14.3189C64.4999 15.3171 64.5567 15.9159 64.9277 15.9731C65.2984 16.0302 65.5835 15.9731 65.5835 15.9731C65.5835 15.9731 65.5836 15.9418 65.5825 15.8829C65.4699 15.8863 65.3289 15.8829 65.1711 15.8594Z" fill="#21242A"/>
<path d="M48.7265 12.7858C48.7265 13.4946 48.3561 14.0693 47.8995 14.0693C47.4426 14.0693 47.0723 13.4946 47.0723 12.7858V8.60776C47.0723 7.8989 47.4426 7.32422 47.8995 7.32422C48.3561 7.32422 48.7265 7.8989 48.7265 8.60776V12.7858Z" stroke="#21242A" stroke-width="0.5" stroke-miterlimit="10"/>
<path d="M63.2103 5.46337C62.871 4.71498 62.3688 3.09943 60.2365 2.69657C56.2512 1.97437 51.2945 1.75018 44.1067 1.88367L44.1055 5.46337H63.2103Z" fill="#21242A"/>
<path d="M46.7588 3.76611H58.7385" stroke="#D3F1FD" stroke-width="0.5" stroke-miterlimit="10"/>
</svg>
