<svg width="68" height="42" viewBox="0 0 68 42" fill="none" xmlns="http://www.w3.org/2000/svg">
<path d="M-17.9622 31.1929H9.18945V37.4335H-17.9622V31.1929Z" fill="#585857"/>
<path d="M-40.0002 0H29.3281V32.191H-40.0002V0Z" fill="#B6B6B7"/>
<path d="M25.7006 1.32129H26.2754V30.6328H25.7006V1.32129Z" fill="#868686"/>
<path d="M22.3978 1.32129H22.9727V30.6328H22.3978V1.32129Z" fill="#868686"/>
<path d="M19.0961 1.32129H19.6709V30.6328H19.0961V1.32129Z" fill="#868686"/>
<path d="M15.7933 1.32129H16.3682V30.6328H15.7933V1.32129Z" fill="#868686"/>
<path d="M9.18884 1.32129H9.76367V30.6328H9.18884V1.32129Z" fill="#868686"/>
<path d="M5.88708 1.32129H6.46191V30.6328H5.88708V1.32129Z" fill="#868686"/>
<path d="M2.58435 1.32129H3.15918V30.6328H2.58435V1.32129Z" fill="#868686"/>
<path d="M12.4906 1.32129H13.0654V30.6328H12.4906V1.32129Z" fill="#868686"/>
<path d="M-40.0002 0H29.3281V2.64233H-40.0002V0Z" fill="#B6B6B7"/>
<path d="M-40.0002 29.3115H29.3281V31.9539H-40.0002V29.3115Z" fill="#B6B6B7"/>
<path d="M-40.0004 29.1714H29.3281V29.4515H-40.0004V29.1714Z" fill="#353333"/>
<path d="M-40.0004 2.44629H29.3281V2.72638H-40.0004V2.44629Z" fill="#353333"/>
<path d="M14.1348 42C11.6128 42 9.56833 39.9556 9.56833 37.4336C9.56833 34.9116 11.6128 32.8672 14.1348 32.8672C16.6567 32.8672 18.7012 34.9116 18.7012 37.4336C18.7012 39.9556 16.6567 42 14.1348 42Z" fill="#353333"/>
<path d="M14.1351 39.8972C12.7746 39.8972 11.6716 38.7943 11.6716 37.4337C11.6716 36.0732 12.7746 34.9702 14.1351 34.9702C15.4957 34.9702 16.5986 36.0732 16.5986 37.4337C16.5986 38.7943 15.4957 39.8972 14.1351 39.8972Z" fill="#585857"/>
<path d="M13.0872 37.4334C13.0872 38.0118 13.556 38.4806 14.1344 38.4806C14.7128 38.4806 15.1816 38.0118 15.1816 37.4334C15.1816 36.855 14.7128 36.3862 14.1344 36.3862C13.556 36.386 13.0872 36.855 13.0872 37.4334Z" fill="#9C9B9B"/>
<path d="M23.4658 42C20.9438 42 18.8994 39.9556 18.8994 37.4336C18.8994 34.9116 20.9438 32.8672 23.4658 32.8672C25.9878 32.8672 28.0322 34.9116 28.0322 37.4336C28.0322 39.9556 25.9878 42 23.4658 42Z" fill="#353333"/>
<path d="M23.4652 39.8972C22.1046 39.8972 21.0017 38.7943 21.0017 37.4337C21.0017 36.0732 22.1046 34.9702 23.4652 34.9702C24.8258 34.9702 25.9287 36.0732 25.9287 37.4337C25.9287 38.7943 24.8258 39.8972 23.4652 39.8972Z" fill="#585857"/>
<path d="M22.4183 37.4334C22.4183 38.0118 22.8871 38.4806 23.4655 38.4806C24.0439 38.4806 24.5127 38.0118 24.5127 37.4334C24.5127 36.855 24.0439 36.3862 23.4655 36.3862C22.8871 36.386 22.4183 36.855 22.4183 37.4334Z" fill="#9C9B9B"/>
<path d="M55.0252 21.7617C55.0252 21.7617 59.6418 23.3774 66.4014 26.1501V36.0967L62.9771 35.6798L56.3062 30.1364L52.256 32.4703L50.4983 35.7395V24.3038L55.0252 21.7617Z" fill="#E8B158"/>
<path d="M51.4512 13.523L49.8329 9.55077C49.6125 9.00976 49.1671 8.59179 48.613 8.40644L33.9997 3.5166L31.2003 10.4257L51.4512 13.523Z" fill="#E8B158"/>
<path d="M31.2004 32.867H44.959V11.6567C44.959 10.9769 44.4079 10.4258 43.728 10.4258H31.2004V32.867Z" fill="#E8B158"/>
<path d="M53.5998 13.2504C50.8204 12.7958 44.1259 12.0034 44.1259 12.0034V32.8671H52.1071L55.7998 29.7281V22.6327L54.4205 15.0534L54.9217 15.0323C54.8375 14.2889 54.298 13.3647 53.5998 13.2504Z" fill="#E8B158"/>
<path d="M28.8686 32.6143H50.3145V38.4352H28.8686V32.6143Z" fill="#868686"/>
<path d="M46.7208 38.481L50.3911 38.4353C50.5933 36.4665 51.5457 31.9278 56.1881 31.6576C56.7129 31.6269 57.2177 31.7415 57.6905 31.9003C59.8118 32.485 61.4105 34.3233 61.6407 36.569H64.4648C64.4648 36.569 62.6177 27.8492 54.7578 28.6984C47.8119 29.4477 46.7208 38.481 46.7208 38.481Z" fill="#E8B158"/>
<path d="M64.3276 36.5973L64.6016 36.5393C64.5828 36.4507 62.6371 27.706 54.7424 28.5585C52.247 28.8277 50.2189 30.1669 48.7139 32.5384L48.9505 32.6886C50.4074 30.3924 52.3663 29.0966 54.7724 28.8368C62.417 28.0116 64.3094 36.5114 64.3276 36.5973Z" fill="#353333"/>
<path d="M66.1026 36.0897H67.4736V26.9027C67.4736 26.4212 67.0834 26.0308 66.6017 26.0308H66.1026V36.0897Z" fill="#868686"/>
<path d="M61.5479 39.9085H67.8906V36.191C67.8906 35.9086 67.6618 35.6797 67.3793 35.6797H61.5479V39.9085Z" fill="#868686"/>
<path d="M62.3818 29.7231L59.1081 28.0862L57.9715 25.9493L55.7993 25.1307V23.5396L61.5746 26.131L62.3818 29.7231Z" fill="#C49145"/>
<path d="M56.1123 42C53.5903 42 51.5459 39.9556 51.5459 37.4336C51.5459 34.9116 53.5903 32.8672 56.1123 32.8672C58.6343 32.8672 60.6787 34.9116 60.6787 37.4336C60.6787 39.9556 58.6343 42 56.1123 42Z" fill="#353333"/>
<path d="M56.1127 39.8972C54.7521 39.8972 53.6491 38.7943 53.6491 37.4337C53.6491 36.0732 54.7521 34.9702 56.1127 34.9702C57.4732 34.9702 58.5762 36.0732 58.5762 37.4337C58.5762 38.7943 57.4732 39.8972 56.1127 39.8972Z" fill="#585857"/>
<path d="M56.112 38.4806C55.5336 38.4806 55.0648 38.0118 55.0648 37.4334C55.0648 36.8551 55.5336 36.3862 56.112 36.3862C56.6903 36.3862 57.1592 36.8551 57.1592 37.4334C57.1592 38.0118 56.6903 38.4806 56.112 38.4806Z" fill="#9C9B9B"/>
<path d="M44.711 14.8926L54.4219 14.978L54.4194 15.2581L44.7086 15.1727L44.711 14.8926Z" fill="#353333"/>
<path d="M37.948 15.6738H40.2349C40.835 15.6738 41.3262 16.0946 41.3262 16.6087V21.3824C41.3262 21.8965 40.835 22.3172 40.2349 22.3172H37.948C37.3478 22.3172 36.8567 21.8965 36.8567 21.3824V16.6087C36.8567 16.0946 37.3478 15.6738 37.948 15.6738Z" fill="#353333"/>
<path d="M53.8105 21.7614L52.8476 15.6738H46.961V21.7614H53.8105Z" fill="#353333"/>
<path d="M46.9939 29.513H50.4471L50.4874 29.4748C51.6747 28.3558 53.6555 27.9657 53.6755 27.9617L53.7891 27.9398V21.7612H53.509V27.7105C53.0623 27.8104 51.43 28.2296 50.3365 29.2327H47.274V21.7612H46.9939V29.513Z" fill="#353333"/>
<path d="M33.9997 3.5166C33.9997 3.5166 31.0519 8.40723 30.6947 11.028C30.3372 13.6486 30.5359 32.6139 30.5359 32.6139L32.2679 32.6038V11.1471C32.2679 11.1471 34.2418 5.27196 35.3867 3.98066L33.9997 3.5166Z" fill="#C49145"/>
<path d="M35.0829 32.6049C35.0841 32.409 35.2125 13.0067 35.5248 11.0546C35.8348 9.11722 38.1776 4.9927 38.2012 4.95116L37.9577 4.8125C37.8603 4.98341 35.5662 9.02267 35.2483 11.0103C34.9326 12.9834 34.8082 31.8028 34.8028 32.6029L35.0829 32.6049Z" fill="#353333"/>
<path d="M53.3135 21.2724L52.4795 16.0708H47.3772V21.2724H53.3135Z" fill="#90BFC4"/>
<path d="M36.8569 33.6567H44.126V36.5681H36.8569V33.6567Z" fill="#585857"/>
<path d="M-17.9624 33.8281H9.18945V34.1082H-17.9624V33.8281Z" fill="#353333"/>
<path d="M-17.9624 35.6938H9.18945V35.9739H-17.9624V35.6938Z" fill="#353333"/>
<path d="M44.2663 32.607C44.4716 23.0315 45.0603 12.1221 45.0662 12.0131L45.0674 11.9929L45.0628 11.9734C44.6771 10.3286 43.0424 10.2858 43.026 10.2856H30.8127V10.5657H43.0238C43.0796 10.5669 44.4425 10.6083 44.7855 12.0181C44.7566 12.5553 44.1875 23.2178 43.9864 32.6009L44.2663 32.607Z" fill="#353333"/>
<path d="M44.9437 11.8692L51.2148 12.7598L51.1755 13.0371L44.9043 12.1466L44.9437 11.8692Z" fill="#353333"/>
</svg>
