<svg width="69" height="39" viewBox="0 0 69 39" fill="none" xmlns="http://www.w3.org/2000/svg">
<path d="M-79.0009 26.3154H22.417V31.5033H-79.0009V26.3154Z" fill="#001D2F"/>
<path d="M-79.0009 0H22.417V26.3156H-79.0009V0Z" fill="#FF4757"/>
<path d="M20.8592 0H22.417V26.3156H20.8592V0Z" fill="#F2EFFA"/>
<path d="M-77.4426 0H20.8594V3.00742H-77.4426V0Z" fill="#F2EFFA"/>
<path d="M-77.4426 23.3076H20.8594V26.315H-77.4426V23.3076Z" fill="#F2EFFA"/>
<path d="M15.9259 24.0298H19.0778C19.3127 24.0298 19.5029 24.22 19.5029 24.4549V25.1683C19.5029 25.4032 19.3127 25.5934 19.0778 25.5934H15.9259C15.691 25.5934 15.5008 25.4032 15.5008 25.1683V24.4549C15.5008 24.22 15.6914 24.0298 15.9259 24.0298Z" fill="#FFA538"/>
<path d="M8.9123 23.3076H14.8857V24.0297H8.9123V23.3076Z" fill="#AB2C37"/>
<path d="M-3.03497 23.3076H2.93848V24.0297H-3.03497V23.3076Z" fill="#AB2C37"/>
<path d="M14.8857 23.3078V3.00732" stroke="#AB2C37" stroke-width="0.7923" stroke-miterlimit="10"/>
<path d="M8.91211 23.3078V3.00732" stroke="#AB2C37" stroke-width="0.7923" stroke-miterlimit="10"/>
<path d="M2.93848 23.3078V3.00732" stroke="#AB2C37" stroke-width="0.7923" stroke-miterlimit="10"/>
<path d="M19.4998 0H20.8594V0.597927H19.4998V0Z" fill="#AB2C37"/>
<path d="M1.57889 0H2.93848V0.597927H1.57889V0Z" fill="#AB2C37"/>
<path d="M-77.4426 3.00732H20.8594V3.93017H-77.4426V3.00732Z" fill="#AB2C37"/>
<path d="M26.4787 25.6865H68.1055V32.7966L63.794 32.8221L53.5893 34.4688H26.4787V25.6865Z" fill="#001D2F"/>
<path d="M-2.92716 28.0776H37.8672V32.7427H-2.92716V28.0776Z" fill="#001D2F"/>
<path d="M26.6405 27.8516H35.4315C35.7572 27.8516 36.0215 28.1159 36.0215 28.4415V32.2752C36.0215 32.6008 35.7576 32.8651 35.4315 32.8651H26.6405C26.3149 32.8651 26.0506 32.6012 26.0506 32.2752V28.4415C26.0506 28.1159 26.3149 27.8516 26.6405 27.8516Z" fill="white"/>
<path d="M36.0215 30.5801V32.2751C36.0215 32.6008 35.7576 32.865 35.4315 32.865H26.6405C26.3149 32.865 26.0506 32.6011 26.0506 32.2751V30.5801H36.0215Z" fill="#E7E3F3"/>
<path d="M33.9197 27.8516H34.9863V32.8651H33.9197V27.8516Z" fill="#001D2F"/>
<path d="M30.5024 27.8516H31.5693V32.8651H30.5024V27.8516Z" fill="#001D2F"/>
<path d="M27.0863 27.8516H28.1533V32.8651H27.0863V27.8516Z" fill="#001D2F"/>
<path d="M49.699 18.3931H65.2255C66.3222 18.3931 67.2109 19.2821 67.2109 20.3785V29.9047H49.6987L49.699 18.3931Z" fill="#FF4757"/>
<path d="M65.2255 18.3931C66.3219 18.3931 67.2109 19.2821 67.2109 20.3785V21.3921C67.2109 20.2954 66.3219 19.4067 65.2255 19.4067H49.699V18.3931H65.2255Z" fill="#FF6C79"/>
<path d="M67.2107 21.043V29.9044H68.1045V21.9368C68.1049 21.4434 67.7044 21.043 67.2107 21.043Z" fill="#E7E3F3"/>
<path d="M27.3578 9.77832H44.9862C46.071 9.77832 47.0345 10.471 47.3805 11.4991L49.6992 18.3925V26.2886H26.4785V10.6572C26.4785 10.1719 26.872 9.77832 27.3578 9.77832Z" fill="#FF4757"/>
<path d="M47.4767 11.7856L49.6992 18.393H48.6268L46.7426 12.8083C46.5731 12.3059 46.9467 11.7856 47.4767 11.7856Z" fill="#001D2F"/>
<path d="M27.3578 9.77832H44.9862C46.071 9.77832 47.0345 10.471 47.3805 11.4991L47.4346 11.66C46.9706 10.9945 46.2068 10.5756 45.366 10.5756H27.3574C26.872 10.5756 26.4785 10.9691 26.4785 11.4545V10.6572C26.4785 10.1719 26.872 9.77832 27.3578 9.77832Z" fill="#FF6C79"/>
<path d="M47.2119 18.3931L45.327 12.4262C45.2065 12.045 44.8532 11.7861 44.4535 11.7861H39.4207C39.2178 11.7861 39.0537 11.9506 39.0537 12.1535V18.0264C39.0537 18.2294 39.2182 18.3938 39.4207 18.3938H47.2119V18.3931Z" fill="#001D2F"/>
<path d="M36.6679 28.3979H49.6992V29.9042H36.6679V28.3979Z" fill="#FF4757"/>
<path d="M49.2695 32.7967C49.2833 28.116 53.0815 23.1787 57.765 23.1787C67.6582 23.1787 67.6408 28.116 67.6582 32.7967H49.2695Z" fill="#FF4757"/>
<path d="M50.911 32.7968C51.2969 29.1765 54.272 25.6177 57.8861 25.6177C65.52 25.6177 66.0105 29.1762 66.0537 32.7968H50.911Z" fill="#001D2F"/>
<path d="M57.765 24.3423C53.4685 24.3423 49.9197 28.4969 49.3512 32.7967H49.2695C49.2833 28.116 53.0815 23.1787 57.765 23.1787C67.6582 23.1787 67.6408 28.116 67.6582 32.7967H67.6484C67.5754 28.4969 66.8399 24.3423 57.765 24.3423Z" fill="#FF6C79"/>
<path d="M20.0293 38.1869C16.8321 38.1869 14.2403 35.5951 14.2403 32.3979C14.2403 29.2007 16.8321 26.6089 20.0293 26.6089C23.2265 26.6089 25.8184 29.2007 25.8184 32.3979C25.8184 35.5951 23.2265 38.1869 20.0293 38.1869Z" fill="#00395E"/>
<path d="M20.0291 35.5751C18.2745 35.5751 16.8521 34.1527 16.8521 32.3981C16.8521 30.6436 18.2745 29.2212 20.0291 29.2212C21.7837 29.2212 23.2061 30.6436 23.2061 32.3981C23.2061 34.1527 21.7837 35.5751 20.0291 35.5751Z" fill="#FF4757"/>
<path d="M17.1074 32.3979C17.1074 30.7846 18.4155 29.4766 20.0288 29.4766C21.6422 29.4766 22.9502 30.7846 22.9502 32.3979C22.9502 34.0113 21.6422 35.3193 20.0288 35.3193C18.4155 35.3193 17.1074 34.0113 17.1074 32.3979Z" fill="#33617E"/>
<path d="M18.1788 32.3979C18.1788 31.3763 19.0069 30.5479 20.0289 30.5479C21.0508 30.5479 21.8789 31.3759 21.8789 32.3979C21.8789 33.4199 21.0508 34.2479 20.0289 34.2479C19.0069 34.2479 18.1788 33.4195 18.1788 32.3979Z" fill="#5C8198"/>
<path d="M19.4553 32.3978C19.4553 32.0809 19.712 31.8242 20.0289 31.8242C20.3459 31.8242 20.6025 32.0809 20.6025 32.3978C20.6025 32.7148 20.3459 32.9714 20.0289 32.9714C19.712 32.9714 19.4553 32.7148 19.4553 32.3978Z" fill="#001D2F"/>
<path d="M20.0296 36.8107C17.5926 36.8107 15.6169 34.835 15.6169 32.3979H16.5216C16.5216 34.3355 18.0921 35.906 20.0296 35.906C21.9672 35.906 23.5377 34.3355 23.5377 32.3979H24.4424C24.4424 34.835 22.4667 36.8107 20.0296 36.8107Z" fill="#001D2F"/>
<path d="M20.0294 27.0474C22.9842 27.0474 25.3799 29.4427 25.3799 32.3978H24.4422C24.4422 29.9608 22.4665 27.9851 20.0294 27.9851C17.5923 27.9851 15.6167 29.9608 15.6167 32.3978H14.6789C14.6789 29.4427 17.0746 27.0474 20.0294 27.0474Z" fill="#33617E"/>
<path d="M19.7368 31.1013C19.7368 30.9398 19.8675 30.8091 20.029 30.8091C20.1906 30.8091 20.3213 30.9401 20.3213 31.1013C20.3213 31.2629 20.1902 31.3936 20.029 31.3936C19.8679 31.3936 19.7368 31.2629 19.7368 31.1013Z" fill="#001D2F"/>
<path d="M21.0059 31.4966C21.1456 31.416 21.3246 31.464 21.4052 31.6037C21.4858 31.7435 21.4379 31.9225 21.2981 32.0031C21.1583 32.0837 20.9794 32.0358 20.8988 31.896C20.8182 31.7562 20.8657 31.5776 21.0059 31.4966Z" fill="#001D2F"/>
<path d="M21.2981 32.7928C21.4379 32.8734 21.4858 33.0524 21.4052 33.1921C21.3246 33.3319 21.1456 33.3798 21.0059 33.2992C20.8661 33.2186 20.8182 33.0396 20.8988 32.8999C20.9794 32.7597 21.1583 32.7118 21.2981 32.7928Z" fill="#001D2F"/>
<path d="M20.3213 33.6941C20.3213 33.8557 20.1902 33.9864 20.029 33.9864C19.8679 33.9864 19.7368 33.8557 19.7368 33.6941C19.7368 33.5325 19.8675 33.4019 20.029 33.4019C20.1906 33.4019 20.3213 33.5329 20.3213 33.6941Z" fill="#001D2F"/>
<path d="M19.053 33.299C18.9132 33.3796 18.7343 33.3317 18.6537 33.1919C18.5727 33.0521 18.621 32.8731 18.7608 32.7925C18.9005 32.7119 19.0795 32.7599 19.1601 32.8996C19.2407 33.0398 19.1928 33.2184 19.053 33.299Z" fill="#001D2F"/>
<path d="M18.7608 32.0031C18.621 31.9221 18.5731 31.7435 18.6537 31.6037C18.7343 31.464 18.9132 31.416 19.053 31.4966C19.1928 31.5772 19.2407 31.7562 19.1601 31.896C19.0795 32.0358 18.9009 32.0837 18.7608 32.0031Z" fill="#001D2F"/>
<path d="M19.7512 29.8184H20.3081C20.4449 29.8184 20.5557 29.9295 20.5557 30.066C20.5557 30.2028 20.4446 30.3139 20.3081 30.3139H19.7512C19.6143 30.3139 19.5036 30.2028 19.5036 30.066C19.5036 29.9295 19.6143 29.8184 19.7512 29.8184Z" fill="#001D2F"/>
<path d="M22.1237 30.8671L22.4022 31.3492C22.4708 31.4679 22.4302 31.6193 22.3114 31.6876C22.1927 31.7558 22.0413 31.7155 21.9731 31.5968L21.6946 31.1147C21.626 30.996 21.6667 30.8446 21.7854 30.7764C21.9037 30.7081 22.0555 30.7484 22.1237 30.8671Z" fill="#001D2F"/>
<path d="M22.4022 33.4462L22.1237 33.9283C22.0555 34.0466 21.9037 34.0873 21.7854 34.019C21.667 33.9508 21.6264 33.799 21.6946 33.6807L21.9731 33.1986C22.0417 33.0802 22.1931 33.0396 22.3114 33.1078C22.4302 33.1764 22.4708 33.3278 22.4022 33.4462Z" fill="#001D2F"/>
<path d="M20.3077 34.9771H19.7508C19.6139 34.9771 19.5032 34.866 19.5032 34.7295C19.5032 34.5927 19.6143 34.4819 19.7508 34.4819H20.3077C20.4446 34.4819 20.5557 34.593 20.5557 34.7295C20.5553 34.8664 20.4446 34.9771 20.3077 34.9771Z" fill="#001D2F"/>
<path d="M17.935 33.9288L17.6565 33.4467C17.5883 33.3284 17.6286 33.1766 17.7473 33.1084C17.866 33.0401 18.0174 33.0804 18.0857 33.1991L18.3641 33.6813C18.4327 33.8 18.3921 33.9514 18.2734 34.0196C18.155 34.0879 18.0032 34.0472 17.935 33.9288Z" fill="#001D2F"/>
<path d="M17.6558 31.3492L17.9343 30.867C18.0029 30.7487 18.1543 30.708 18.2726 30.7763C18.391 30.8445 18.4316 30.9963 18.3634 31.1146L18.0849 31.5967C18.0167 31.7155 17.8649 31.7558 17.7466 31.6875C17.6279 31.6193 17.5876 31.4679 17.6558 31.3492Z" fill="#001D2F"/>
<path d="M8.45121 38.1869C5.25402 38.1869 2.66219 35.5951 2.66219 32.3979C2.66219 29.2007 5.25402 26.6089 8.45121 26.6089C11.6484 26.6089 14.2402 29.2007 14.2402 32.3979C14.2402 35.5951 11.6484 38.1869 8.45121 38.1869Z" fill="#00395E"/>
<path d="M8.45097 35.5751C6.69639 35.5751 5.27402 34.1527 5.27402 32.3981C5.27402 30.6436 6.69639 29.2212 8.45097 29.2212C10.2056 29.2212 11.6279 30.6436 11.6279 32.3981C11.6279 34.1527 10.2056 35.5751 8.45097 35.5751Z" fill="#FF4757"/>
<path d="M5.52932 32.3979C5.52932 30.7846 6.83735 29.4766 8.4507 29.4766C10.064 29.4766 11.3721 30.7846 11.3721 32.3979C11.3721 34.0113 10.064 35.3193 8.4507 35.3193C6.83735 35.3193 5.52932 34.0113 5.52932 32.3979Z" fill="#33617E"/>
<path d="M6.60069 32.3979C6.60069 31.3763 7.42878 30.5479 8.45073 30.5479C9.47232 30.5479 10.3008 31.3759 10.3008 32.3979C10.3008 33.4199 9.47269 34.2479 8.45073 34.2479C7.42914 34.2476 6.60069 33.4195 6.60069 32.3979Z" fill="#5C8198"/>
<path d="M7.87721 32.3978C7.87721 32.0809 8.13424 31.8242 8.45081 31.8242C8.76738 31.8242 9.02441 32.0809 9.02441 32.3978C9.02441 32.7148 8.76774 32.9714 8.45081 32.9714C8.13388 32.9714 7.87721 32.7148 7.87721 32.3978Z" fill="#001D2F"/>
<path d="M8.45054 36.8107C6.01346 36.8107 4.0378 34.835 4.0378 32.3979H4.9425C4.9425 34.3355 6.513 35.906 8.45054 35.906C10.3881 35.906 11.9586 34.3355 11.9586 32.3979H12.8633C12.8633 34.835 10.8876 36.8107 8.45054 36.8107Z" fill="#001D2F"/>
<path d="M8.45128 27.0474C11.4061 27.0474 13.8018 29.4427 13.8018 32.3978H12.864C12.864 29.9608 10.8884 27.9851 8.45128 27.9851C6.0142 27.9851 4.03854 29.9608 4.03854 32.3978H3.10082C3.10082 29.4427 5.49615 27.0474 8.45128 27.0474Z" fill="#33617E"/>
<path d="M8.15867 31.1013C8.15867 30.9398 8.28973 30.8091 8.45091 30.8091C8.61247 30.8091 8.74316 30.9401 8.74316 31.1013C8.74316 31.2629 8.6121 31.3936 8.45091 31.3936C8.28936 31.3939 8.15867 31.2629 8.15867 31.1013Z" fill="#001D2F"/>
<path d="M9.42677 31.4966C9.56654 31.416 9.74552 31.464 9.82611 31.6037C9.90671 31.7435 9.85879 31.9225 9.71902 32.0031C9.57925 32.0837 9.40027 32.0358 9.31967 31.896C9.23908 31.7562 9.287 31.5776 9.42677 31.4966Z" fill="#001D2F"/>
<path d="M9.71999 32.7928C9.85976 32.8734 9.90768 33.0524 9.82709 33.1921C9.7465 33.3319 9.56751 33.3798 9.42774 33.2992C9.28797 33.2186 9.24005 33.0396 9.32065 32.8999C9.40124 32.7597 9.57986 32.7118 9.71999 32.7928Z" fill="#001D2F"/>
<path d="M8.74316 33.6941C8.74316 33.8557 8.6121 33.9864 8.45091 33.9864C8.28936 33.9864 8.15867 33.8557 8.15867 33.6941C8.15867 33.5325 8.28973 33.4019 8.45091 33.4019C8.6121 33.4019 8.74316 33.5329 8.74316 33.6941Z" fill="#001D2F"/>
<path d="M7.47479 33.299C7.33502 33.3796 7.15605 33.3317 7.07545 33.1919C6.99486 33.0521 7.04242 32.8731 7.18255 32.7925C7.32232 32.7119 7.5013 32.7599 7.5819 32.8996C7.66249 33.0398 7.61493 33.2184 7.47479 33.299Z" fill="#001D2F"/>
<path d="M7.18263 32.0031C7.04286 31.9221 6.99494 31.7435 7.07553 31.6037C7.15613 31.464 7.3351 31.416 7.47487 31.4966C7.61464 31.5772 7.66257 31.7562 7.58197 31.896C7.50138 32.0358 7.3224 32.0837 7.18263 32.0031Z" fill="#001D2F"/>
<path d="M8.17304 29.8184H8.72994C8.86681 29.8184 8.97754 29.9295 8.97754 30.066C8.97754 30.2028 8.86645 30.3139 8.72994 30.3139H8.17304C8.03618 30.3139 7.92509 30.2028 7.92509 30.066C7.92545 29.9295 8.03618 29.8184 8.17304 29.8184Z" fill="#001D2F"/>
<path d="M10.5456 30.8671L10.8241 31.3492C10.8927 31.4679 10.852 31.6193 10.7333 31.6876C10.615 31.7558 10.4632 31.7155 10.395 31.5968L10.1165 31.1147C10.0479 30.996 10.0886 30.8446 10.2073 30.7764C10.3256 30.7081 10.4774 30.7484 10.5456 30.8671Z" fill="#001D2F"/>
<path d="M10.8242 33.4462L10.5458 33.9283C10.4772 34.0466 10.3258 34.0873 10.2074 34.019C10.0891 33.9508 10.0484 33.799 10.1167 33.6807L10.3951 33.1986C10.4634 33.0802 10.6151 33.0396 10.7335 33.1078C10.8522 33.1764 10.8925 33.3278 10.8242 33.4462Z" fill="#001D2F"/>
<path d="M8.72994 34.9771H8.17304C8.03618 34.9771 7.92545 34.866 7.92545 34.7295C7.92545 34.5927 8.03654 34.4819 8.17304 34.4819H8.72994C8.86681 34.4819 8.97754 34.593 8.97754 34.7295C8.97754 34.8664 8.86681 34.9771 8.72994 34.9771Z" fill="#001D2F"/>
<path d="M6.3559 33.9288L6.07744 33.4467C6.00919 33.3284 6.04949 33.1766 6.1682 33.1084C6.28655 33.0401 6.43831 33.0804 6.50656 33.1991L6.78501 33.6813C6.85362 33.8 6.81296 33.9514 6.69425 34.0196C6.5759 34.0879 6.42415 34.0472 6.3559 33.9288Z" fill="#001D2F"/>
<path d="M6.07768 31.3492L6.35614 30.867C6.42475 30.7487 6.57614 30.708 6.69449 30.7763C6.81284 30.8445 6.8535 30.9963 6.78525 31.1146L6.5068 31.5967C6.43855 31.7155 6.2868 31.7558 6.16844 31.6875C6.04973 31.6193 6.00907 31.4679 6.07768 31.3492Z" fill="#001D2F"/>
<path d="M59.2022 38.1869C56.005 38.1869 53.4132 35.5951 53.4132 32.3979C53.4132 29.2007 56.005 26.6089 59.2022 26.6089C62.3994 26.6089 64.9912 29.2007 64.9912 32.3979C64.9912 35.5951 62.3994 38.1869 59.2022 38.1869Z" fill="#00395E"/>
<path d="M56.0246 32.3981C56.0246 30.6436 57.447 29.2212 59.202 29.2212C60.9565 29.2212 62.3789 30.6436 62.3789 32.3981C62.3789 34.1527 60.9565 35.5751 59.202 35.5751C57.447 35.5751 56.0246 34.1527 56.0246 32.3981Z" fill="#FF4757"/>
<path d="M57.1944 32.3977C57.1944 31.289 58.0933 30.3901 59.2024 30.3901C60.3111 30.3901 61.21 31.289 61.21 32.3977C61.21 33.5065 60.3111 34.4057 59.2024 34.4057C58.0933 34.4053 57.1944 33.5065 57.1944 32.3977Z" fill="white"/>
<path d="M58.6282 32.3978C58.6282 32.0809 58.8849 31.8242 59.2018 31.8242C59.5187 31.8242 59.7754 32.0809 59.7754 32.3978C59.7754 32.7148 59.5187 32.9714 59.2018 32.9714C58.8852 32.9714 58.6282 32.7148 58.6282 32.3978Z" fill="#001D2F"/>
<path d="M59.2025 36.8107C56.7654 36.8107 54.7898 34.835 54.7898 32.3979H55.6944C55.6944 34.3355 57.265 35.906 59.2025 35.906C61.14 35.906 62.7105 34.3355 62.7105 32.3979H63.6152C63.6149 34.835 61.6396 36.8107 59.2025 36.8107Z" fill="#001D2F"/>
<path d="M59.2023 27.0474C62.157 27.0474 64.5527 29.4427 64.5527 32.3978H63.615C63.615 29.9608 61.6393 27.9851 59.2023 27.9851C56.7652 27.9851 54.7895 29.9608 54.7895 32.3978H53.8518C53.8518 29.4427 56.2471 27.0474 59.2023 27.0474Z" fill="#33617E"/>
<path d="M58.9096 31.1013C58.9096 30.9398 59.0403 30.8091 59.2019 30.8091C59.3634 30.8091 59.4941 30.9401 59.4941 31.1013C59.4941 31.2629 59.3631 31.3936 59.2019 31.3936C59.0407 31.3939 58.9096 31.2629 58.9096 31.1013Z" fill="#001D2F"/>
<path d="M58.9096 29.8826C58.9096 29.721 59.0403 29.5903 59.2019 29.5903C59.3634 29.5903 59.4941 29.7214 59.4941 29.8826C59.4941 30.0438 59.3631 30.1748 59.2019 30.1748C59.0407 30.1748 58.9096 30.0438 58.9096 29.8826Z" fill="#001D2F"/>
<path d="M60.7735 30.4124C60.8875 30.2981 61.0726 30.2981 61.187 30.4124C61.301 30.5264 61.301 30.7116 61.187 30.8259C61.0726 30.9399 60.8878 30.9399 60.7735 30.8259C60.6595 30.7119 60.6595 30.5268 60.7735 30.4124Z" fill="#001D2F"/>
<path d="M61.7175 32.1055C61.8791 32.1055 62.0098 32.2365 62.0098 32.3977C62.0098 32.5589 61.8791 32.69 61.7175 32.69C61.556 32.69 61.4253 32.5589 61.4253 32.3977C61.4253 32.2365 61.556 32.1055 61.7175 32.1055Z" fill="#001D2F"/>
<path d="M61.187 33.9693C61.301 34.0836 61.301 34.2684 61.187 34.3828C61.0726 34.4968 60.8878 34.4968 60.7735 34.3828C60.6595 34.2684 60.6595 34.0836 60.7735 33.9693C60.8878 33.8553 61.0726 33.8553 61.187 33.9693Z" fill="#001D2F"/>
<path d="M59.4941 34.9128C59.4941 35.0744 59.3631 35.2051 59.2019 35.2051C59.0403 35.2051 58.9096 35.074 58.9096 34.9128C58.9096 34.7513 59.0403 34.6206 59.2019 34.6206C59.3631 34.6206 59.4941 34.7513 59.4941 34.9128Z" fill="#001D2F"/>
<path d="M57.6303 34.3828C57.5163 34.4968 57.3312 34.4968 57.2168 34.3828C57.1028 34.2684 57.1028 34.0836 57.2168 33.9693C57.3312 33.8553 57.516 33.8553 57.6303 33.9693C57.7443 34.0836 57.7443 34.2688 57.6303 34.3828Z" fill="#001D2F"/>
<path d="M56.6863 32.69C56.5247 32.69 56.394 32.5589 56.394 32.3977C56.394 32.2365 56.5251 32.1055 56.6863 32.1055C56.8478 32.1055 56.9785 32.2365 56.9785 32.3977C56.9785 32.5589 56.8478 32.69 56.6863 32.69Z" fill="#001D2F"/>
<path d="M57.2168 30.8259C57.1028 30.7119 57.1028 30.5268 57.2168 30.4124C57.3312 30.2981 57.516 30.2981 57.6303 30.4124C57.7443 30.5264 57.7443 30.7116 57.6303 30.8259C57.516 30.9403 57.3312 30.9403 57.2168 30.8259Z" fill="#001D2F"/>
<path d="M60.1787 31.4966C60.3185 31.416 60.4975 31.464 60.5781 31.6037C60.6587 31.7435 60.6107 31.9225 60.471 32.0031C60.3312 32.0837 60.1522 32.0358 60.0716 31.896C59.991 31.7562 60.039 31.5776 60.1787 31.4966Z" fill="#001D2F"/>
<path d="M60.471 32.7928C60.6107 32.8734 60.6587 33.0524 60.5781 33.1921C60.4975 33.3319 60.3185 33.3798 60.1787 33.2992C60.039 33.2186 59.991 33.0396 60.0716 32.8999C60.1526 32.7597 60.3312 32.7118 60.471 32.7928Z" fill="#001D2F"/>
<path d="M59.4941 33.6941C59.4941 33.8557 59.3631 33.9864 59.2019 33.9864C59.0403 33.9864 58.9096 33.8557 58.9096 33.6941C58.9096 33.5325 59.0403 33.4019 59.2019 33.4019C59.3631 33.4019 59.4941 33.5329 59.4941 33.6941Z" fill="#001D2F"/>
<path d="M58.2259 33.299C58.0861 33.3796 57.9071 33.3317 57.8265 33.1919C57.7459 33.0521 57.7935 32.8731 57.9336 32.7925C58.0734 32.7119 58.2524 32.7599 58.3329 32.8996C58.4135 33.0398 58.3656 33.2184 58.2259 33.299Z" fill="#001D2F"/>
<path d="M57.9336 32.0031C57.7938 31.9221 57.7459 31.7435 57.8265 31.6037C57.9071 31.464 58.0861 31.416 58.2259 31.4966C58.3656 31.5772 58.4135 31.7562 58.3329 31.896C58.252 32.0358 58.0734 32.0837 57.9336 32.0031Z" fill="#001D2F"/>
<path d="M34.2077 1.66553L35.6914 3.77805C36.3271 4.68311 36.668 5.76206 36.668 6.86788V26.8314C36.668 27.3302 36.2635 27.7346 35.7647 27.7346H35.3236V6.25543C35.3236 5.54823 35.1055 4.8581 34.6992 4.27941L34.208 3.57984L34.2077 1.66553Z" fill="#E7E3F3"/>
<path d="M36.668 23.4338L35.3236 24.0201V21.6143H36.668V23.4338Z" fill="#C5BAEB"/>
<path d="M35.3236 11.0205L36.668 11.0274V11.4631H35.3236V11.0205Z" fill="#C5BAEB"/>
<path d="M29.7775 12.2319H32.2937C32.624 12.2319 32.8916 12.4999 32.8916 12.8299V18.8106C32.8916 19.1409 32.624 19.4085 32.2937 19.4085H29.7775C29.4471 19.4085 29.1795 19.1406 29.1795 18.8106V12.8299C29.1795 12.4999 29.4471 12.2319 29.7775 12.2319Z" stroke="#AB2C37" stroke-width="0.7923" stroke-miterlimit="10"/>
<path d="M48.3325 24.4546V18.7738C48.3325 18.5632 48.5031 18.3926 48.7137 18.3926H51.1911C51.4016 18.3926 51.5723 18.5632 51.5723 18.7738V24.4546C51.5723 24.6652 51.4016 24.8358 51.1911 24.8358H48.7137C48.5031 24.8358 48.3325 24.6652 48.3325 24.4546Z" fill="white"/>
<path d="M48.333 19.7509V19.0615H51.5728V19.7509H48.333Z" fill="#001D2F"/>
<path d="M48.333 21.9589V21.2695H51.5728V21.9589H48.333Z" fill="#001D2F"/>
<path d="M48.333 24.167V23.4775H51.5728V24.167H48.333Z" fill="#001D2F"/>
<path d="M35.2534 22.7365H36.7364C37.1742 22.7365 37.5293 22.3814 37.5293 21.9436V12.2563C37.5293 11.8184 37.1742 11.4634 36.7364 11.4634H35.2534C34.8156 11.4634 34.4605 11.8184 34.4605 12.2563V21.9436C34.4605 22.3814 34.8156 22.7365 35.2534 22.7365Z" fill="#E7E3F3"/>
<path d="M34.4528 19.0947H37.5303V19.9918H34.4528V19.0947Z" fill="#C5BAEB"/>
<path d="M34.4528 14.207H37.5303V15.1041H34.4528V14.207Z" fill="#C5BAEB"/>
<path d="M63.137 23.9033H66.3154V26.364L63.137 23.9033Z" fill="#FF6C79"/>
<path d="M66.3157 26.364V23.9033C66.6555 23.9033 66.9307 24.1789 66.9307 24.5187V25.749C66.9307 26.0885 66.6555 26.364 66.3157 26.364Z" fill="white"/>
<path d="M48.0312 18.3931L45.8908 11.8896C45.7201 11.3708 45.2359 11.0205 44.6898 11.0205H39.18C38.7269 11.0205 38.3599 11.3879 38.3599 11.8406V24.5354C38.3599 24.9884 38.7269 25.3555 39.18 25.3555H47.2111C47.6642 25.3555 48.0312 24.9881 48.0312 24.5354V18.3931Z" stroke="#AB2C37" stroke-width="0.7923" stroke-miterlimit="10"/>
<path d="M25.4028 12.232H22.4175V1.72998H25.4028C25.8718 1.72998 26.252 2.11008 26.252 2.57913V11.3825C26.252 11.8519 25.8715 12.232 25.4028 12.232Z" fill="#D5C9F1"/>
<path d="M23.3749 3.61234C23.3749 3.0823 23.8044 2.65283 24.3344 2.65283C24.8645 2.65283 25.2939 3.0823 25.2939 3.61234C25.2939 4.14238 24.8645 4.57186 24.3344 4.57186C23.8044 4.57222 23.3749 4.14238 23.3749 3.61234Z" fill="#001D2F"/>
<path d="M23.3749 6.02152C23.3749 5.49148 23.8044 5.06201 24.3344 5.06201C24.8645 5.06201 25.2939 5.49148 25.2939 6.02152C25.2939 6.55156 24.8645 6.98103 24.3344 6.98103C23.8044 6.9814 23.3749 6.55156 23.3749 6.02152Z" fill="#001D2F"/>
</svg>
