<svg width="72" height="39" viewBox="0 0 72 39" fill="none" xmlns="http://www.w3.org/2000/svg">
<path d="M-62.9997 25.0854H33.6768V30.0307H-62.9997V25.0854Z" fill="#001D2F"/>
<path d="M-62.9997 0H33.6768V25.085H-62.9997V0Z" fill="#FFC538"/>
<path d="M32.1918 0H33.6768V25.085H32.1918V0Z" fill="#F2EFFA"/>
<path d="M-61.5148 0H32.1914V2.86682H-61.5148V0Z" fill="#F2EFFA"/>
<path d="M-61.5148 22.2183H32.1914V25.0851H-61.5148V22.2183Z" fill="#F2EFFA"/>
<path d="M27.4886 22.9067H30.4932C30.7171 22.9067 30.8984 23.0881 30.8984 23.312V23.992C30.8984 24.2159 30.7171 24.3972 30.4932 24.3972H27.4886C27.2647 24.3972 27.0834 24.2159 27.0834 23.992V23.312C27.0834 23.0881 27.2651 22.9067 27.4886 22.9067Z" fill="#FFA538"/>
<path d="M20.8029 22.2183H26.4971V22.9066H20.8029V22.2183Z" fill="#AB2C37"/>
<path d="M9.4152 22.2183H15.1094V22.9066H9.4152V22.2183Z" fill="#AB2C37"/>
<path d="M-1.97348 22.2183H3.7207V22.9066H-1.97348V22.2183Z" fill="#AB2C37"/>
<path d="M26.4971 22.2181V2.8667" stroke="#FFA538" stroke-width="0.7923" stroke-miterlimit="10"/>
<path d="M20.8037 22.2181V2.8667" stroke="#FFA538" stroke-width="0.7923" stroke-miterlimit="10"/>
<path d="M15.1094 22.2181V2.8667" stroke="#FFA538" stroke-width="0.7923" stroke-miterlimit="10"/>
<path d="M9.41504 22.2181V2.8667" stroke="#FFA538" stroke-width="0.7923" stroke-miterlimit="10"/>
<path d="M3.7207 22.2181V2.8667" stroke="#FFA538" stroke-width="0.7923" stroke-miterlimit="10"/>
<path d="M30.8954 0H32.1914V0.569973H30.8954V0Z" fill="#AB2C37"/>
<path d="M13.8134 0H15.1094V0.569973H13.8134V0Z" fill="#AB2C37"/>
<path d="M-61.5148 2.8667H32.1914V3.7464H-61.5148V2.8667Z" fill="#FFA538"/>
<path d="M11.7405 27.7349H45.3408V31.5772H11.7405V27.7349Z" fill="#001D2F"/>
<path d="M20.3642 29.2422H62.71V33.912H20.3642V29.2422Z" fill="#001D2F"/>
<path d="M53.3643 11.9237L50.0739 7.31933C48.0771 4.52519 44.8541 2.86719 41.4201 2.86719H39.7012V12.5429L53.3643 11.9237Z" fill="#FFC538"/>
<path d="M48.7235 10.66C49.2118 11.0386 49.8119 11.2438 50.4296 11.2438H52.8787L53.3643 11.9234L39.7012 12.5425V9.54492H45.466C46.6454 9.54492 47.7915 9.93737 48.7235 10.66Z" fill="#F7E041"/>
<path d="M47.7666 11.3639C48.2344 11.727 48.81 11.9239 49.4021 11.9239H53.3642C54.5311 11.9239 55.5994 12.5769 56.1317 13.6154L59.6104 20.4025V27.735H46.3878H39.7011V10.2949H44.6433C45.7743 10.2949 46.873 10.6711 47.7666 11.3639Z" fill="#FFC538"/>
<path d="M47.5317 25.0853H46.8925V23.147H47.5317C47.7362 23.147 47.9023 23.3127 47.9023 23.5176V24.715C47.9023 24.9192 47.7362 25.0853 47.5317 25.0853Z" fill="#001D2F"/>
<path d="M56.5352 20.4018L53.7362 14.78C53.4552 14.2152 52.8786 13.8584 52.2477 13.8584H47.7772C47.2883 13.8584 46.892 14.2546 46.892 14.7436V25.4759C46.892 26.0337 47.344 26.4857 47.9018 26.4857H55.525C56.0828 26.4857 56.5348 26.0337 56.5348 25.4759L56.5352 20.4018Z" stroke="#FFA538" stroke-width="0.7923" stroke-miterlimit="10"/>
<path d="M59.6104 20.4019L65.9106 22.0619C67.445 22.4662 68.6864 23.5929 69.237 25.081L70.2188 27.7343H59.6108L59.6104 20.4019Z" fill="#FFC538"/>
<path d="M36.9185 32.3818H69.4682C70.5784 32.3265 71.3414 31.2104 70.939 30.176L69.989 27.7349H36.9182L36.9185 32.3818Z" fill="#FFC538"/>
<path d="M36.919 27.7349H57.5225V28.897H36.919V27.7349Z" fill="#F7E041"/>
<path d="M70.5282 26.8821C70.3282 26.1744 69.796 25.6106 69.1011 25.3698C66.5128 24.4721 63.5463 22.558 58.9727 24.2669C55.0307 25.7397 55.3802 32.3818 55.3802 32.3818L70.2438 32.3579C71.1629 32.3565 71.8267 31.4782 71.5768 30.5936L70.5282 26.8821Z" fill="#FFC538"/>
<path d="M70.5288 27.81C70.3288 27.1023 69.7965 26.5386 69.1016 26.2977C66.5134 25.4 63.5469 23.4859 58.9733 25.1951C55.9459 26.3264 55.4503 30.5035 55.3828 32.3823H55.3808C55.3808 32.3823 55.0312 25.7402 58.9733 24.2673C63.5469 22.5585 66.5134 24.4726 69.1016 25.3703C69.7965 25.6111 70.3288 26.1749 70.5288 26.8826L71.5774 30.5941C71.659 30.8834 71.6417 31.1714 71.5511 31.4288L70.5288 27.81Z" fill="#F7E041"/>
<path d="M63.3343 30.2656H71.5402L71.6389 30.6145C71.9047 31.5554 71.1983 32.4901 70.2207 32.4912L63.3347 32.5002L63.3343 30.2656Z" fill="#E7E3F3"/>
<path d="M30.1419 36.2532C27.1747 35.5577 25.333 32.5885 26.0285 29.6212C26.724 26.6539 29.6933 24.8123 32.6605 25.5078C35.6278 26.2033 37.4694 29.1725 36.7739 32.1398C36.0784 35.107 33.1092 36.9487 30.1419 36.2532Z" fill="#00395E"/>
<path d="M31.0358 33.8951C29.3756 33.6904 28.1957 32.1787 28.4004 30.5187C28.6051 28.8587 30.1169 27.6789 31.7771 27.8837C33.4373 28.0884 34.6172 29.6001 34.4125 31.2601C34.2078 32.9201 32.696 34.0999 31.0358 33.8951Z" fill="#FFC538"/>
<path d="M28.6299 31.2165C28.4492 29.6891 29.5409 28.3044 31.0683 28.1237C32.5957 27.943 33.9804 29.0347 34.1611 30.5621C34.3418 32.0894 33.2501 33.4741 31.7227 33.6549C30.1953 33.8356 28.8106 32.7439 28.6299 31.2165Z" fill="#33617E"/>
<path d="M29.6379 30.8832C29.6379 29.9094 30.4273 29.1196 31.4015 29.1196C32.3753 29.1196 33.165 29.909 33.165 30.8832C33.165 31.857 32.3757 32.6467 31.4015 32.6467C30.4273 32.6467 29.6379 31.8574 29.6379 30.8832Z" fill="#5C8198"/>
<path d="M30.8547 30.8832C30.8547 30.5811 31.0997 30.3364 31.4015 30.3364C31.7036 30.3364 31.9482 30.5811 31.9482 30.8832C31.9482 31.1853 31.7032 31.43 31.4015 31.43C31.0993 31.4303 30.8547 31.1853 30.8547 30.8832Z" fill="#001D2F"/>
<path d="M31.401 35.0897C29.0778 35.0897 27.1945 33.2064 27.1945 30.8833H28.0569C28.0569 32.7303 29.554 34.2273 31.401 34.2273C33.2479 34.2273 34.745 32.7303 34.745 30.8833H35.6074C35.6074 33.2064 33.7241 35.0897 31.401 35.0897Z" fill="#001D2F"/>
<path d="M31.4016 25.7832C34.2183 25.7832 36.502 28.0666 36.502 30.8835H35.6081C35.6081 28.5604 33.7248 26.6771 31.4016 26.6771C29.0785 26.6771 27.1952 28.5604 27.1952 30.8835H26.3013C26.3016 28.0666 28.585 25.7832 31.4016 25.7832Z" fill="#33617E"/>
<path d="M31.1225 29.6477C31.1225 29.4937 31.2471 29.3691 31.4011 29.3691C31.5551 29.3691 31.6797 29.4941 31.6797 29.6477C31.6797 29.8017 31.5551 29.9263 31.4011 29.9263C31.2471 29.9263 31.1225 29.8017 31.1225 29.6477Z" fill="#001D2F"/>
<path d="M32.332 30.0241C32.4653 29.9473 32.6359 29.993 32.7127 30.1262C32.7895 30.2594 32.7439 30.43 32.6106 30.5069C32.4774 30.5837 32.3068 30.538 32.2299 30.4048C32.1531 30.2715 32.1988 30.1009 32.332 30.0241Z" fill="#001D2F"/>
<path d="M32.6106 31.2599C32.7439 31.3368 32.7895 31.5074 32.7127 31.6406C32.6359 31.7739 32.4653 31.8195 32.332 31.7427C32.1988 31.6659 32.1531 31.4953 32.2299 31.362C32.3068 31.2288 32.4774 31.1831 32.6106 31.2599Z" fill="#001D2F"/>
<path d="M31.6797 32.1189C31.6797 32.2729 31.5551 32.3975 31.4011 32.3975C31.2471 32.3975 31.1225 32.2729 31.1225 32.1189C31.1225 31.9649 31.2471 31.8403 31.4011 31.8403C31.5551 31.8403 31.6797 31.9649 31.6797 32.1189Z" fill="#001D2F"/>
<path d="M30.471 31.7427C30.3377 31.8195 30.1671 31.7739 30.0903 31.6406C30.0135 31.5074 30.0591 31.3368 30.1924 31.2599C30.3256 31.1831 30.4962 31.2288 30.5731 31.362C30.6499 31.4953 30.6042 31.6659 30.471 31.7427Z" fill="#001D2F"/>
<path d="M30.1914 30.5069C30.0582 30.43 30.0125 30.2594 30.0893 30.1262C30.1662 29.993 30.3368 29.9473 30.47 30.0241C30.6032 30.1009 30.6489 30.2715 30.5721 30.4048C30.4953 30.5384 30.3246 30.584 30.1914 30.5069Z" fill="#001D2F"/>
<path d="M31.1361 28.4243H31.667C31.7974 28.4243 31.9033 28.5299 31.9033 28.6603C31.9033 28.7908 31.7974 28.8964 31.667 28.8964H31.1361C31.0056 28.8964 30.9001 28.7905 30.9001 28.6603C30.9001 28.5299 31.0056 28.4243 31.1361 28.4243Z" fill="#001D2F"/>
<path d="M33.3982 29.4245L33.6637 29.884C33.7287 29.9969 33.6903 30.1415 33.5772 30.2066C33.4643 30.272 33.3197 30.2332 33.2546 30.1201L32.9892 29.6605C32.9241 29.5477 32.9625 29.403 33.0757 29.3379C33.1889 29.2725 33.3332 29.3113 33.3982 29.4245Z" fill="#001D2F"/>
<path d="M33.6635 31.8829L33.3981 32.3425C33.333 32.4553 33.1884 32.4941 33.0756 32.429C32.9627 32.3636 32.924 32.2193 32.989 32.1065L33.2545 31.6469C33.3199 31.5341 33.4642 31.4953 33.577 31.5604C33.6902 31.6254 33.7289 31.7701 33.6635 31.8829Z" fill="#001D2F"/>
<path d="M31.667 33.3426H31.1361C31.0056 33.3426 30.9001 33.2367 30.9001 33.1066C30.9001 32.9762 31.006 32.8706 31.1361 32.8706H31.667C31.7974 32.8706 31.9033 32.9765 31.9033 33.1066C31.9033 33.2367 31.7974 33.3426 31.667 33.3426Z" fill="#001D2F"/>
<path d="M29.404 32.3427L29.1386 31.8831C29.0732 31.77 29.112 31.6257 29.2251 31.5606C29.3379 31.4952 29.4826 31.534 29.5477 31.6471L29.8131 32.1067C29.8781 32.2195 29.8397 32.3642 29.7266 32.4292C29.6138 32.4943 29.4691 32.4559 29.404 32.3427Z" fill="#001D2F"/>
<path d="M29.1386 29.8839L29.404 29.4243C29.4691 29.3111 29.6138 29.2727 29.7266 29.3378C29.8397 29.4032 29.8781 29.5475 29.8131 29.6603L29.5477 30.1199C29.4823 30.2327 29.3379 30.2715 29.2251 30.2064C29.1123 30.1414 29.0735 29.9967 29.1386 29.8839Z" fill="#001D2F"/>
<path d="M15.213 32.8592C14.121 30.0138 15.5424 26.822 18.3877 25.73C21.2331 24.638 24.4249 26.0593 25.5169 28.9047C26.6089 31.75 25.1875 34.9419 22.3422 36.0339C19.4968 37.1259 16.305 35.7045 15.213 32.8592Z" fill="#00395E"/>
<path d="M19.9019 33.8815C18.2492 33.623 17.1189 32.0739 17.3773 30.4214C17.6357 28.7689 19.185 27.6388 20.8376 27.8973C22.4903 28.1557 23.6206 29.7048 23.3622 31.3573C23.1038 33.0098 21.5545 34.1399 19.9019 33.8815Z" fill="#FFC538"/>
<path d="M17.8358 32.0271C17.2028 30.6255 17.8258 28.9761 19.2274 28.3431C20.629 27.7101 22.2784 28.3331 22.9114 29.7347C23.5444 31.1363 22.9214 32.7856 21.5198 33.4187C20.1183 34.0517 18.4689 33.4287 17.8358 32.0271Z" fill="#33617E"/>
<path d="M20.3634 32.6472C19.3894 32.6472 18.5998 31.8577 18.5998 30.8837C18.5998 29.9097 19.3894 29.1201 20.3634 29.1201C21.3374 29.1201 22.127 29.9097 22.127 30.8837C22.127 31.8577 21.3374 32.6472 20.3634 32.6472Z" fill="#5C8198"/>
<path d="M19.8166 30.8837C19.8166 30.5816 20.0616 30.3369 20.3634 30.3369C20.6655 30.3369 20.9102 30.5816 20.9102 30.8837C20.9102 31.1858 20.6655 31.4305 20.3634 31.4305C20.0613 31.4308 19.8166 31.1858 19.8166 30.8837Z" fill="#001D2F"/>
<path d="M20.3639 35.0897C18.0407 35.0897 16.1574 33.2064 16.1574 30.8833H17.0198C17.0198 32.7303 18.5169 34.2273 20.3639 34.2273C22.2108 34.2273 23.7079 32.7303 23.7079 30.8833H24.5703C24.5703 33.2064 22.687 35.0897 20.3639 35.0897Z" fill="#001D2F"/>
<path d="M20.3635 25.7837C23.1802 25.7837 25.4639 28.067 25.4639 30.884H24.57C24.57 28.5609 22.6867 26.6776 20.3635 26.6776C18.0404 26.6776 16.1571 28.5609 16.1571 30.884H15.2632C15.2632 28.067 17.5469 25.7837 20.3635 25.7837Z" fill="#33617E"/>
<path d="M20.0854 29.6482C20.0854 29.4942 20.21 29.3696 20.364 29.3696C20.518 29.3696 20.6426 29.4946 20.6426 29.6482C20.6426 29.8022 20.5177 29.9268 20.364 29.9268C20.21 29.9268 20.0854 29.8022 20.0854 29.6482Z" fill="#001D2F"/>
<path d="M21.2949 30.0246C21.4282 29.9478 21.5988 29.9934 21.6756 30.1267C21.7524 30.2599 21.7067 30.4305 21.5735 30.5074C21.4403 30.5842 21.2697 30.5385 21.1928 30.4053C21.1157 30.272 21.1613 30.1014 21.2949 30.0246Z" fill="#001D2F"/>
<path d="M21.5735 31.2599C21.7067 31.3368 21.7524 31.5074 21.6756 31.6406C21.5988 31.7739 21.4282 31.8195 21.2949 31.7427C21.1617 31.6659 21.116 31.4953 21.1928 31.362C21.2697 31.2288 21.4403 31.1831 21.5735 31.2599Z" fill="#001D2F"/>
<path d="M20.6426 32.1194C20.6426 32.2734 20.5177 32.398 20.364 32.398C20.21 32.398 20.0854 32.2734 20.0854 32.1194C20.0854 31.9654 20.21 31.8408 20.364 31.8408C20.518 31.8408 20.6426 31.9654 20.6426 32.1194Z" fill="#001D2F"/>
<path d="M19.4329 31.7427C19.2996 31.8195 19.129 31.7739 19.0522 31.6406C18.975 31.5074 19.0207 31.3368 19.1543 31.2599C19.2875 31.1831 19.4581 31.2288 19.535 31.362C19.6118 31.4953 19.5661 31.6659 19.4329 31.7427Z" fill="#001D2F"/>
<path d="M19.1543 30.5069C19.0211 30.43 18.9754 30.2594 19.0522 30.1262C19.129 29.993 19.2996 29.9473 19.4329 30.0241C19.5661 30.1009 19.6118 30.2715 19.535 30.4048C19.4581 30.5384 19.2875 30.584 19.1543 30.5069Z" fill="#001D2F"/>
<path d="M20.0984 28.4248H20.6292C20.7597 28.4248 20.8652 28.5304 20.8652 28.6608C20.8652 28.7913 20.7597 28.8968 20.6292 28.8968H20.0984C19.9679 28.8968 19.8623 28.7909 19.8623 28.6608C19.8623 28.5304 19.9679 28.4248 20.0984 28.4248Z" fill="#001D2F"/>
<path d="M22.361 29.4245L22.6264 29.884C22.6918 29.9969 22.6531 30.1415 22.5399 30.2066C22.4271 30.272 22.2824 30.2332 22.2174 30.1201L21.9519 29.6605C21.8869 29.5477 21.9253 29.403 22.0384 29.3379C22.1513 29.2725 22.2959 29.3113 22.361 29.4245Z" fill="#001D2F"/>
<path d="M22.6264 31.8834L22.361 32.343C22.2959 32.4558 22.1513 32.4946 22.0384 32.4295C21.9253 32.3641 21.8869 32.2198 21.9519 32.107L22.2174 31.6474C22.2828 31.5346 22.4271 31.4958 22.5399 31.5609C22.6531 31.6259 22.6918 31.7706 22.6264 31.8834Z" fill="#001D2F"/>
<path d="M20.6292 33.3426H20.0984C19.9679 33.3426 19.8623 33.2367 19.8623 33.1066C19.8623 32.9762 19.9679 32.8706 20.0984 32.8706H20.6292C20.7597 32.8706 20.8652 32.9765 20.8652 33.1066C20.8652 33.2367 20.7597 33.3426 20.6292 33.3426Z" fill="#001D2F"/>
<path d="M18.3669 32.3427L18.1015 31.8831C18.0364 31.77 18.0749 31.6257 18.188 31.5606C18.3008 31.4952 18.4455 31.534 18.5105 31.6471L18.776 32.1067C18.841 32.2195 18.8026 32.3642 18.6895 32.4292C18.5766 32.4943 18.432 32.4559 18.3669 32.3427Z" fill="#001D2F"/>
<path d="M18.1015 29.8839L18.3669 29.4243C18.432 29.3111 18.5766 29.2727 18.6895 29.3378C18.8026 29.4032 18.841 29.5475 18.776 29.6603L18.5105 30.1199C18.4455 30.2327 18.3008 30.2715 18.188 30.2064C18.0749 30.1414 18.0364 29.9967 18.1015 29.8839Z" fill="#001D2F"/>
<path d="M56.6426 33.0114C55.465 30.2005 56.789 26.9672 59.5999 25.7895C62.4108 24.6119 65.6442 25.9359 66.8218 28.7468C67.9994 31.5577 66.6754 34.7911 63.8645 35.9687C61.0536 37.1464 57.8202 35.8223 56.6426 33.0114Z" fill="#00395E"/>
<path d="M61.2459 33.8706C59.5949 33.602 58.4742 32.0459 58.7428 30.3951C59.0115 28.7443 60.5676 27.6238 62.2186 27.8925C63.8696 28.1611 64.9903 29.7172 64.7216 31.368C64.453 33.0188 62.8969 34.1393 61.2459 33.8706Z" fill="#FFC538"/>
<path d="M59.8141 30.883C59.8141 29.8261 60.671 28.9692 61.7279 28.9692C62.7847 28.9692 63.6416 29.8261 63.6416 30.883C63.6416 31.9399 62.7847 32.7967 61.7279 32.7967C60.671 32.7971 59.8141 31.9402 59.8141 30.883Z" fill="white"/>
<path d="M61.1818 30.8832C61.1818 30.5811 61.4265 30.3364 61.7286 30.3364C62.0307 30.3364 62.2754 30.5811 62.2754 30.8832C62.2754 31.1853 62.0307 31.43 61.7286 31.43C61.4265 31.4303 61.1818 31.1853 61.1818 30.8832Z" fill="#001D2F"/>
<path d="M61.7281 35.0897C59.405 35.0897 57.5217 33.2064 57.5217 30.8833H58.3841C58.3841 32.7303 59.8812 34.2273 61.7281 34.2273C63.5751 34.2273 65.0722 32.7303 65.0722 30.8833H65.9346C65.9346 33.2064 64.0513 35.0897 61.7281 35.0897Z" fill="#001D2F"/>
<path d="M61.7288 25.7832C64.5454 25.7832 66.8291 28.0666 66.8291 30.8835H65.9352C65.9352 28.5604 64.0519 26.6771 61.7288 26.6771C59.4056 26.6771 57.5223 28.5604 57.5223 30.8835H56.6284C56.6284 28.0666 58.9118 25.7832 61.7288 25.7832Z" fill="#33617E"/>
<path d="M61.4497 29.6477C61.4497 29.4937 61.5743 29.3691 61.7283 29.3691C61.8823 29.3691 62.0068 29.4941 62.0068 29.6477C62.0068 29.8017 61.8823 29.9263 61.7283 29.9263C61.5743 29.9263 61.4497 29.8017 61.4497 29.6477Z" fill="#001D2F"/>
<path d="M61.4497 28.4856C61.4497 28.3316 61.5743 28.207 61.7283 28.207C61.8823 28.207 62.0068 28.332 62.0068 28.4856C62.0068 28.6396 61.8823 28.7642 61.7283 28.7642C61.5743 28.7642 61.4497 28.6396 61.4497 28.4856Z" fill="#001D2F"/>
<path d="M63.2265 28.9912C63.3351 28.8825 63.5116 28.8825 63.6206 28.9912C63.7293 29.0998 63.7293 29.2763 63.6206 29.3853C63.5116 29.4944 63.3355 29.4944 63.2265 29.3853C63.1178 29.2763 63.1178 29.0998 63.2265 28.9912Z" fill="#001D2F"/>
<path d="M64.1257 30.6045C64.2797 30.6045 64.4043 30.7294 64.4043 30.8831C64.4043 31.0371 64.2797 31.1617 64.1257 31.1617C63.9717 31.1617 63.8471 31.0367 63.8471 30.8831C63.8471 30.7294 63.9717 30.6045 64.1257 30.6045Z" fill="#001D2F"/>
<path d="M63.6206 32.3818C63.7293 32.4908 63.7293 32.667 63.6206 32.776C63.5116 32.8846 63.3355 32.8846 63.2265 32.776C63.1178 32.667 63.1178 32.4908 63.2265 32.3818C63.3355 32.2731 63.512 32.2731 63.6206 32.3818Z" fill="#001D2F"/>
<path d="M61.7283 33.5596C61.5744 33.5596 61.4497 33.4349 61.4497 33.281C61.4497 33.1272 61.5744 33.0024 61.7283 33.0024C61.8821 33.0024 62.0068 33.1272 62.0068 33.281C62.0068 33.4349 61.8821 33.5596 61.7283 33.5596Z" fill="#001D2F"/>
<path d="M60.2298 32.776C60.1211 32.8846 59.9446 32.8846 59.8356 32.776C59.7269 32.667 59.7269 32.4908 59.8356 32.3818C59.9446 32.2731 60.1208 32.2731 60.2298 32.3818C60.3388 32.4905 60.3388 32.667 60.2298 32.776Z" fill="#001D2F"/>
<path d="M59.3308 31.1622C59.1768 31.1622 59.0522 31.0372 59.0522 30.8836C59.0522 30.7296 59.1771 30.605 59.3308 30.605C59.4848 30.605 59.6094 30.7299 59.6094 30.8836C59.6094 31.0372 59.4844 31.1622 59.3308 31.1622Z" fill="#001D2F"/>
<path d="M59.8359 29.3853C59.7272 29.2767 59.7272 29.1002 59.8359 28.9912C59.9449 28.8825 60.121 28.8825 60.23 28.9912C60.3387 29.0998 60.3387 29.2763 60.23 29.3853C60.1214 29.494 59.9449 29.494 59.8359 29.3853Z" fill="#001D2F"/>
<path d="M62.6592 30.0241C62.7924 29.9473 62.963 29.993 63.0399 30.1262C63.1167 30.2594 63.071 30.43 62.9378 30.5069C62.8045 30.5837 62.6339 30.538 62.5571 30.4048C62.4803 30.2715 62.5259 30.1009 62.6592 30.0241Z" fill="#001D2F"/>
<path d="M62.9378 31.2599C63.071 31.3368 63.1167 31.5074 63.0399 31.6406C62.963 31.7739 62.7924 31.8195 62.6592 31.7427C62.5259 31.6659 62.4803 31.4953 62.5571 31.362C62.6339 31.2288 62.8042 31.1831 62.9378 31.2599Z" fill="#001D2F"/>
<path d="M62.0068 32.1189C62.0068 32.2729 61.8823 32.3975 61.7283 32.3975C61.5743 32.3975 61.4497 32.2729 61.4497 32.1189C61.4497 31.9649 61.5743 31.8403 61.7283 31.8403C61.8823 31.8403 62.0068 31.9649 62.0068 32.1189Z" fill="#001D2F"/>
<path d="M60.7981 31.7427C60.6649 31.8195 60.4943 31.7739 60.4174 31.6406C60.3406 31.5074 60.386 31.3368 60.5195 31.2599C60.6528 31.1831 60.8234 31.2288 60.9002 31.362C60.977 31.4953 60.9314 31.6659 60.7981 31.7427Z" fill="#001D2F"/>
<path d="M60.5195 30.5069C60.3863 30.43 60.3406 30.2594 60.4174 30.1262C60.4943 29.993 60.6649 29.9473 60.7981 30.0241C60.9314 30.1009 60.977 30.2715 60.9002 30.4048C60.8234 30.5384 60.6528 30.584 60.5195 30.5069Z" fill="#001D2F"/>
<path d="M55.0376 20.4019H52.4971C52.1538 20.4019 51.8122 20.3583 51.4803 20.2718L48.0401 19.3768C47.6868 19.2848 47.4404 18.9661 47.4404 18.601V15.0925C47.4404 14.7707 47.7013 14.5098 48.0231 14.5098H51.9313C52.4445 14.5098 52.9127 14.8018 53.1387 15.2625L55.3857 19.8433C55.512 20.1012 55.3244 20.4019 55.0376 20.4019Z" fill="#001D2F"/>
<path d="M67.4424 27.4834V26.8169H70.4421C70.4719 26.8394 70.4985 26.8595 70.5283 26.882L71.165 29.1366L68.201 28.4406C67.7566 28.3368 67.4424 27.9402 67.4424 27.4834Z" fill="white"/>
<path d="M59.6104 20.4018H58.2929C57.8707 20.4018 57.4858 20.1599 57.3024 19.7796L54.7841 14.5516C54.6294 14.2308 54.8634 13.8584 55.2198 13.8584H56.2417L59.6104 20.4018Z" fill="#001D2F"/>
<path d="M38.302 28.7642H46.2217C46.5152 28.7642 46.7529 29.0019 46.7529 29.2954V32.7491C46.7529 33.0426 46.5152 33.2807 46.2217 33.2807H38.302C38.0085 33.2807 37.7704 33.0426 37.7704 32.7491V29.2954C37.7704 29.0023 38.0085 28.7642 38.302 28.7642Z" fill="white"/>
<path d="M46.7529 31.2222V32.7494C46.7529 33.0428 46.5148 33.2809 46.2214 33.2809H38.3016C38.0082 33.2809 37.7704 33.0428 37.7704 32.7494V31.2222H46.7529Z" fill="#E7E3F3"/>
<path d="M44.8603 28.7642H45.8213V33.2807H44.8603V28.7642Z" fill="#001D2F"/>
<path d="M41.7812 28.7642H42.7422V33.2807H41.7812V28.7642Z" fill="#001D2F"/>
<path d="M38.703 28.7642H39.6641V33.2807H38.703V28.7642Z" fill="#001D2F"/>
<path d="M46.8916 11.9238H40.9379V10.8569H44.6263C45.2689 10.8569 45.8908 11.0833 46.3829 11.4965L46.8916 11.9238Z" fill="#001D2F"/>
<path d="M48.5186 29.1202H49.207C49.9614 29.1202 50.5732 28.5083 50.5732 27.7539H47.1527C47.1527 28.5083 47.7642 29.1202 48.5186 29.1202Z" fill="#FFA538"/>
<path d="M45.4607 24.1875C45.6597 24.1875 45.8213 24.0262 45.8213 23.8269V20.052C45.8213 19.853 45.66 19.6914 45.4607 19.6914C45.2617 19.6914 45.1001 19.8527 45.1001 20.052V23.8269C45.1004 24.0262 45.2617 24.1875 45.4607 24.1875Z" fill="white"/>
<path d="M40.9465 20.0356H43.3451C43.66 20.0356 43.915 20.2907 43.915 20.6056V26.3067C43.915 26.6216 43.6596 26.8767 43.3451 26.8767H40.9465C40.6316 26.8767 40.3765 26.6213 40.3765 26.3067V20.6056C40.3765 20.291 40.6316 20.0356 40.9465 20.0356Z" stroke="#FFA538" stroke-width="0.7923" stroke-miterlimit="10"/>
<path d="M42.8139 13.8584H43.9344C44.3629 13.8584 44.71 14.2055 44.71 14.6339V17.9569C44.71 18.385 44.3629 18.7324 43.9344 18.7324H42.8139C42.3854 18.7324 42.0383 18.3853 42.0383 17.9569V14.6339C42.0383 14.2058 42.3854 13.8584 42.8139 13.8584Z" fill="#001D2F"/>
<path d="M69.0732 28.6455L68.2018 28.441C67.7572 28.3365 67.4429 27.9399 67.4429 27.4834V26.8169H69.0732V28.6455Z" fill="#FFA538"/>
<path d="M36.5226 12.8777H33.6769V2.8667H36.5226C36.9697 2.8667 37.332 3.22903 37.332 3.67615V12.0683C37.332 12.5154 36.9697 12.8777 36.5226 12.8777Z" fill="#D5C9F1"/>
<path d="M34.5896 4.66124C34.5896 4.15598 34.9994 3.74658 35.5043 3.74658C36.0096 3.74658 36.4189 4.15598 36.4189 4.66124C36.4189 5.1665 36.0096 5.57589 35.5043 5.57589C34.999 5.57624 34.5896 5.1665 34.5896 4.66124Z" fill="#001D2F"/>
<path d="M34.5896 6.95761C34.5896 6.45236 34.9994 6.04297 35.5043 6.04297C36.0096 6.04297 36.4189 6.45236 36.4189 6.95761C36.4189 7.46287 36.0096 7.87227 35.5043 7.87227C34.999 7.87227 34.5896 7.46287 34.5896 6.95761Z" fill="#001D2F"/>
</svg>
